<svg width="100%" height="100%" viewBox="0 0 1440 275" fill="none" xmlns="http://www.w3.org/2000/svg">
<g clip-path="url(#clip0)">
<rect width="1440" height="275" fill="#FFF3F3"/>
<g clip-path="url(#clip1)">
<rect width="1600" height="366.667" transform="translate(-80 -45.8333)" fill="#FFF3F3"/>
<rect x="-80" y="-665.833" width="1600" height="1200" fill="#FFF3F3"/>
<mask id="mask0" mask-type="alpha" maskUnits="userSpaceOnUse" x="-80" y="-666" width="1600" height="1201">
<rect x="-80" y="-665.833" width="1600" height="1200" fill="#FBF4E2"/>
</mask>
<g mask="url(#mask0)">
<path fill-rule="evenodd" clip-rule="evenodd" d="M370.164 -0.704666C370.164 41.124 336.31 75.0321 294.548 75.0321H157.063C115.301 75.0321 81.4468 41.124 81.4468 -0.704666C81.4468 -42.5334 115.301 -76.4414 157.063 -76.4414H294.548C336.31 -76.4414 370.164 -42.5334 370.164 -0.704666ZM294.548 33.7211C313.53 33.7211 328.919 18.308 328.919 -0.704666C328.919 -19.7173 313.53 -35.1305 294.548 -35.1305H157.063C138.081 -35.1305 122.692 -19.7173 122.692 -0.704666C122.692 18.308 138.081 33.7211 157.063 33.7211H294.548Z" fill="#B7544A"/>
<path d="M367.664 -0.704666C367.664 39.7471 334.926 72.5321 294.548 72.5321V77.5321C337.695 77.5321 372.664 42.501 372.664 -0.704666H367.664ZM294.548 72.5321H157.063V77.5321H294.548V72.5321ZM157.063 72.5321C116.685 72.5321 83.9468 39.7471 83.9468 -0.704666H78.9468C78.9468 42.501 113.917 77.5321 157.063 77.5321V72.5321ZM83.9468 -0.704666C83.9468 -41.1564 116.685 -73.9414 157.063 -73.9414V-78.9414C113.917 -78.9414 78.9468 -43.9103 78.9468 -0.704666H83.9468ZM157.063 -73.9414H294.548V-78.9414H157.063V-73.9414ZM294.548 -73.9414C334.926 -73.9414 367.664 -41.1564 367.664 -0.704666H372.664C372.664 -43.9103 337.695 -78.9414 294.548 -78.9414V-73.9414ZM294.548 36.2211C314.915 36.2211 331.419 19.685 331.419 -0.704666H326.419C326.419 16.931 312.146 31.2211 294.548 31.2211V36.2211ZM331.419 -0.704666C331.419 -21.0943 314.915 -37.6305 294.548 -37.6305V-32.6305C312.146 -32.6305 326.419 -18.3404 326.419 -0.704666H331.419ZM294.548 -37.6305H157.063V-32.6305H294.548V-37.6305ZM157.063 -37.6305C136.696 -37.6305 120.192 -21.0943 120.192 -0.704666H125.192C125.192 -18.3404 139.465 -32.6305 157.063 -32.6305V-37.6305ZM120.192 -0.704666C120.192 19.685 136.696 36.2211 157.063 36.2211V31.2211C139.465 31.2211 125.192 16.931 125.192 -0.704666H120.192ZM157.063 36.2211H294.548V31.2211H157.063V36.2211Z" fill="#444B54"/>
<path fill-rule="evenodd" clip-rule="evenodd" d="M3.6698 425.72C3.6698 437.112 12.9056 446.348 24.2986 446.348H88.2477C109.922 446.348 129.467 437.232 143.258 422.624C157.049 437.232 176.594 446.348 198.268 446.348H261.529C303.304 446.348 337.168 412.484 337.168 370.71C337.168 359.317 327.932 350.081 316.539 350.081C305.147 350.081 295.91 359.317 295.91 370.71C295.91 389.698 280.517 405.091 261.529 405.091H198.268C179.28 405.091 163.886 389.698 163.886 370.71V231.81C163.886 190.796 130.637 157.547 89.6229 157.547V198.804C107.852 198.804 122.629 213.581 122.629 231.81V370.71C122.629 389.698 107.236 405.091 88.2477 405.091H24.2986C12.9056 405.091 3.6698 414.327 3.6698 425.72Z" fill="#B7544A" stroke="#444B54" stroke-width="5" stroke-linecap="round"/>
<path d="M271.47 259.458C290.477 259.458 305.886 244.045 305.886 225.032C305.886 206.019 290.477 190.606 271.47 190.606C252.463 190.606 237.054 206.019 237.054 225.032C237.054 236.439 227.809 245.688 216.405 245.688C205.001 245.688 195.755 236.439 195.755 225.032C195.755 183.203 229.653 149.295 271.47 149.295C313.286 149.295 347.185 183.203 347.185 225.032C347.185 266.861 313.286 300.769 271.47 300.769C260.066 300.769 250.82 291.521 250.82 280.113C250.82 268.706 260.066 259.458 271.47 259.458Z" fill="#F3DDD7" stroke="#444B54" stroke-width="5"/>
<path d="M222.921 -21.0387C248.306 -21.0387 268.716 -41.4487 268.716 -66.4218C268.716 -91.3949 248.306 -111.805 222.921 -111.805C208.897 -111.805 196.384 -105.586 187.964 -95.742C180.552 -87.0752 167.503 -86.0452 158.818 -93.4412C150.133 -100.837 149.1 -113.858 156.512 -122.524C172.478 -141.191 196.326 -153.062 222.921 -153.062C270.957 -153.062 310.064 -114.364 310.064 -66.4218C310.064 -18.4793 270.957 20.2187 222.921 20.2187C211.503 20.2187 202.247 10.9825 202.247 -0.410004C202.247 -11.8025 211.503 -21.0387 222.921 -21.0387Z" fill="#F3DDD7" stroke="#444B54" stroke-width="5"/>
<path fill-rule="evenodd" clip-rule="evenodd" d="M89.6958 198.804C78.3066 198.804 69.0731 189.568 69.0731 178.176C69.0731 166.783 78.3066 157.547 89.6958 157.547C101.085 157.547 110.318 166.783 110.318 178.176C110.318 189.568 101.085 198.804 89.6958 198.804Z" fill="#C58E8F" stroke="#444B54" stroke-width="5" stroke-linecap="round"/>
<path fill-rule="evenodd" clip-rule="evenodd" d="M30.7203 265.111C30.7203 246.098 15.3118 230.685 -3.69547 230.685C-22.7027 230.685 -38.1112 246.098 -38.1112 265.111C-38.1112 284.123 -22.7027 299.537 -3.69547 299.537C15.3118 299.537 30.7203 284.123 30.7203 265.111ZM-3.69547 189.374C38.1207 189.374 72.0192 223.282 72.0192 265.111C72.0192 306.939 38.1207 340.848 -3.69547 340.848C-45.5116 340.848 -79.4102 306.939 -79.4102 265.111C-79.4102 223.282 -45.5116 189.374 -3.69547 189.374Z" fill="#C18363"/>
<path d="M-79.4102 265.111H-81.9102H-79.4102ZM33.2203 265.111C33.2203 244.718 16.6932 228.185 -3.69547 228.185V233.185C13.9304 233.185 28.2203 247.478 28.2203 265.111H33.2203ZM-3.69547 228.185C-24.0841 228.185 -40.6112 244.718 -40.6112 265.111H-35.6112C-35.6112 247.478 -21.3213 233.185 -3.69547 233.185V228.185ZM-40.6112 265.111C-40.6112 285.503 -24.0841 302.037 -3.69547 302.037V297.037C-21.3213 297.037 -35.6112 282.743 -35.6112 265.111H-40.6112ZM-3.69547 302.037C16.6932 302.037 33.2203 285.503 33.2203 265.111H28.2203C28.2203 282.743 13.9304 297.037 -3.69547 297.037V302.037ZM-3.69547 191.874C36.7393 191.874 69.5192 224.662 69.5192 265.111H74.5192C74.5192 221.902 39.502 186.874 -3.69547 186.874V191.874ZM69.5192 265.111C69.5192 305.559 36.7393 338.348 -3.69547 338.348V343.348C39.502 343.348 74.5192 308.32 74.5192 265.111H69.5192ZM-3.69547 338.348C-44.1302 338.348 -76.9102 305.559 -76.9102 265.111H-81.9102C-81.9102 308.32 -46.893 343.348 -3.69547 343.348V338.348ZM-76.9102 265.111C-76.9102 224.662 -44.1302 191.874 -3.69547 191.874V186.874C-46.893 186.874 -81.9102 221.902 -81.9102 265.111H-76.9102Z" fill="#444B54"/>
<path d="M59.6456 87.4532C36.1623 87.4532 17.1252 106.561 17.1252 130.131V209.981C17.1252 221.385 7.91378 230.631 -3.44918 230.631C-14.8121 230.631 -24.0236 221.385 -24.0236 209.981V130.131C-24.0236 83.7512 13.4363 46.1519 59.6456 46.1519V87.4532Z" fill="#F3DDD7" stroke="#444B54" stroke-width="5"/>
<path fill-rule="evenodd" clip-rule="evenodd" d="M-3.40088 230.631C-14.7905 230.631 -24.0236 221.395 -24.0236 210.003C-24.0236 198.61 -14.7905 189.374 -3.40088 189.374C7.98875 189.374 17.2218 198.61 17.2218 210.003C17.2218 221.395 7.98875 230.631 -3.40088 230.631Z" fill="#C58E8F" stroke="#444B54" stroke-width="5" stroke-linecap="round"/>
<path fill-rule="evenodd" clip-rule="evenodd" d="M-3.99012 285.445C-15.3797 285.445 -24.6128 276.208 -24.6128 264.816C-24.6128 253.423 -15.3797 244.187 -3.99012 244.187C7.39951 244.187 16.6326 253.423 16.6326 264.816C16.6326 276.208 7.39951 285.445 -3.99012 285.445Z" fill="#C58E8F" stroke="#444B54" stroke-width="5" stroke-linecap="round"/>
<path fill-rule="evenodd" clip-rule="evenodd" d="M100.638 21.4279C81.6208 21.4279 66.2036 36.8323 66.2036 55.8343C66.2036 74.8363 81.6208 90.2408 100.638 90.2408C175.949 90.2408 237.001 151.242 237.001 226.49C237.001 237.891 227.75 247.134 216.34 247.134C204.929 247.134 195.679 237.891 195.679 226.49C195.679 174.044 153.128 131.529 100.638 131.529C58.7987 131.529 24.8817 97.6396 24.8817 55.8343C24.8817 14.0291 58.7987 -19.8599 100.638 -19.8599C112.049 -19.8599 121.299 -10.6169 121.299 0.784012C121.299 12.1849 112.049 21.4279 100.638 21.4279Z" fill="#C18363" stroke="#444B54" stroke-width="5" stroke-linecap="round"/>
<path d="M370.164 3.71584C370.164 56.1237 412.636 98.6078 465.028 98.6078C476.418 98.6078 485.651 107.844 485.651 119.236C485.651 130.629 476.418 139.865 465.028 139.865C389.857 139.865 328.919 78.9088 328.919 3.71584C328.919 -7.67669 338.152 -16.9128 349.542 -16.9128C360.931 -16.9128 370.164 -7.67669 370.164 3.71584Z" fill="#F3DDD7" stroke="#444B54" stroke-width="5"/>
<path fill-rule="evenodd" clip-rule="evenodd" d="M216.378 247.134C204.989 247.134 195.755 237.898 195.755 226.506C195.755 215.113 204.989 205.877 216.378 205.877C227.767 205.877 237.001 215.113 237.001 226.506C237.001 237.898 227.767 247.134 216.378 247.134Z" fill="#C58E8F" stroke="#444B54" stroke-width="5" stroke-linecap="round"/>
<path fill-rule="evenodd" clip-rule="evenodd" d="M216.378 301.948C204.989 301.948 195.755 292.711 195.755 281.319C195.755 269.926 204.989 260.69 216.378 260.69C227.767 260.69 237.001 269.926 237.001 281.319C237.001 292.711 227.767 301.948 216.378 301.948Z" fill="#1E96A3" stroke="#444B54" stroke-width="5" stroke-linecap="round"/>
<path fill-rule="evenodd" clip-rule="evenodd" d="M349.542 24.3445C338.152 24.3445 328.919 15.1084 328.919 3.71584C328.919 -7.67669 338.152 -16.9128 349.542 -16.9128C360.931 -16.9128 370.164 -7.67669 370.164 3.71584C370.164 15.1084 360.931 24.3445 349.542 24.3445Z" fill="#C58E8F" stroke="#444B54" stroke-width="5" stroke-linecap="round"/>
<path fill-rule="evenodd" clip-rule="evenodd" d="M102.069 21.3975C90.6802 21.3975 81.4468 12.1614 81.4468 0.76882C81.4468 -10.6237 90.6802 -19.8599 102.069 -19.8599C113.459 -19.8599 122.692 -10.6237 122.692 0.76882C122.692 12.1614 113.459 21.3975 102.069 21.3975Z" fill="#C58E8F" stroke="#444B54" stroke-width="5" stroke-linecap="round"/>
<path fill-rule="evenodd" clip-rule="evenodd" d="M498.56 -3.06209C498.56 -22.0748 483.152 -37.4879 464.145 -37.4879C445.136 -37.4879 429.729 -22.0748 429.729 -3.06209C429.729 15.9506 445.136 31.3637 464.145 31.3637C483.152 31.3637 498.56 15.9506 498.56 -3.06209ZM464.145 -78.7988C505.96 -78.7988 539.859 -44.8908 539.859 -3.06209C539.859 38.7666 505.96 72.6747 464.145 72.6747C422.328 72.6747 388.43 38.7666 388.43 -3.06209C388.43 -44.8908 422.328 -78.7988 464.145 -78.7988Z" fill="#C18363"/>
<path d="M501.06 -3.06209C501.06 -23.4548 484.533 -39.9879 464.145 -39.9879V-34.9879C481.77 -34.9879 496.06 -20.6947 496.06 -3.06209H501.06ZM464.145 -39.9879C443.755 -39.9879 427.229 -23.4547 427.229 -3.06209H432.229C432.229 -20.6948 446.518 -34.9879 464.145 -34.9879V-39.9879ZM427.229 -3.06209C427.229 17.3305 443.755 33.8637 464.145 33.8637V28.8637C446.518 28.8637 432.229 14.5706 432.229 -3.06209H427.229ZM464.145 33.8637C484.533 33.8637 501.06 17.3306 501.06 -3.06209H496.06C496.06 14.5706 481.77 28.8637 464.145 28.8637V33.8637ZM464.145 -76.2988C504.578 -76.2988 537.359 -43.5107 537.359 -3.06209H542.359C542.359 -46.2709 507.341 -81.2988 464.145 -81.2988V-76.2988ZM537.359 -3.06209C537.359 37.3866 504.578 70.1747 464.145 70.1747V75.1747C507.341 75.1747 542.359 40.1467 542.359 -3.06209H537.359ZM464.145 70.1747C423.709 70.1747 390.93 37.3866 390.93 -3.06209H385.93C385.93 40.1467 420.947 75.1747 464.145 75.1747V70.1747ZM390.93 -3.06209C390.93 -43.5108 423.709 -76.2988 464.145 -76.2988V-81.2988C420.947 -81.2988 385.93 -46.2708 385.93 -3.06209H390.93Z" fill="#444B54"/>
<path d="M1073.75 -8.95613C1073.75 -27.9688 1089.15 -43.3819 1108.16 -43.3819C1127.17 -43.3819 1142.58 -27.9688 1142.58 -8.95613C1142.58 10.0565 1127.17 25.4697 1108.16 25.4697C1096.76 25.4697 1087.51 34.7178 1087.51 46.1251C1087.51 57.5325 1096.76 66.7806 1108.16 66.7806C1149.98 66.7806 1183.88 32.8726 1183.88 -8.95613C1183.88 -50.7848 1149.98 -84.6929 1108.16 -84.6929C1066.34 -84.6929 1032.45 -50.7848 1032.45 -8.95613C1032.45 2.4512 1041.69 11.6993 1053.1 11.6993C1064.5 11.6993 1073.75 2.4512 1073.75 -8.95613Z" fill="#F3DDD7" stroke="#444B54" stroke-width="5"/>
<path fill-rule="evenodd" clip-rule="evenodd" d="M463.85 17.2718C452.461 17.2718 443.227 8.03562 443.227 -3.35691C443.227 -14.7494 452.461 -23.9856 463.85 -23.9856C475.239 -23.9856 484.473 -14.7494 484.473 -3.35691C484.473 8.03562 475.239 17.2718 463.85 17.2718Z" fill="#1E96A3" stroke="#444B54" stroke-width="5" stroke-linecap="round"/>
<path fill-rule="evenodd" clip-rule="evenodd" d="M585.253 4.84744C646.067 4.84744 695.366 -44.466 695.366 -105.298C695.366 -116.703 704.61 -125.95 716.012 -125.95C727.415 -125.95 736.659 -116.703 736.659 -105.298C736.659 -21.6549 668.871 46.152 585.253 46.152C573.851 46.152 564.607 36.9053 564.607 25.4997C564.607 14.0942 573.851 4.84744 585.253 4.84744Z" fill="#B7544A" stroke="#444B54" stroke-width="5" stroke-linecap="round"/>
<path fill-rule="evenodd" clip-rule="evenodd" d="M1034.8 47.3308C1034.8 58.7234 1044.04 67.9595 1055.43 67.9595C1066.82 67.9595 1076.05 58.7234 1076.05 47.3308C1076.05 35.9383 1066.82 26.7021 1055.43 26.7021C1044.04 26.7021 1034.8 35.9383 1034.8 47.3308Z" fill="#C58E8F" stroke="#444B54" stroke-width="5" stroke-linecap="round"/>
<path fill-rule="evenodd" clip-rule="evenodd" d="M980.006 47.3308C980.006 58.7234 989.24 67.9595 1000.63 67.9595C1012.02 67.9595 1021.25 58.7234 1021.25 47.3308C1021.25 35.9383 1012.02 26.7021 1000.63 26.7021C989.24 26.7021 980.006 35.9383 980.006 47.3308Z" fill="#C58E8F" stroke="#444B54" stroke-width="5" stroke-linecap="round"/>
<g style="mix-blend-mode:multiply">
<path fill-rule="evenodd" clip-rule="evenodd" d="M1384.51 533.578C1342.68 533.578 1308.79 499.714 1308.79 457.94V320.415C1308.79 278.641 1342.68 244.777 1384.51 244.777C1426.33 244.777 1460.22 278.641 1460.22 320.415V457.94C1460.22 499.714 1426.33 533.578 1384.51 533.578ZM1418.92 457.94V320.415C1418.92 301.427 1403.52 286.034 1384.51 286.034C1365.49 286.034 1350.09 301.427 1350.09 320.415V457.94C1350.09 476.928 1365.49 492.321 1384.51 492.321C1403.52 492.321 1418.92 476.928 1418.92 457.94Z" fill="#B7544A"/>
<path d="M1384.51 531.078C1344.06 531.078 1311.29 498.331 1311.29 457.94H1306.29C1306.29 501.097 1341.3 536.078 1384.51 536.078V531.078ZM1311.29 457.94V320.415H1306.29V457.94H1311.29ZM1311.29 320.415C1311.29 280.024 1344.06 247.277 1384.51 247.277V242.277C1341.3 242.277 1306.29 277.258 1306.29 320.415H1311.29ZM1384.51 247.277C1424.95 247.277 1457.72 280.024 1457.72 320.415H1462.72C1462.72 277.258 1427.71 242.277 1384.51 242.277V247.277ZM1457.72 320.415V457.94H1462.72V320.415H1457.72ZM1457.72 457.94C1457.72 498.331 1424.95 531.078 1384.51 531.078V536.078C1427.71 536.078 1462.72 501.097 1462.72 457.94H1457.72ZM1421.42 457.94V320.415H1416.42V457.94H1421.42ZM1421.42 320.415C1421.42 300.044 1404.9 283.534 1384.51 283.534V288.534C1402.14 288.534 1416.42 302.81 1416.42 320.415H1421.42ZM1384.51 283.534C1364.12 283.534 1347.59 300.044 1347.59 320.415H1352.59C1352.59 302.81 1366.87 288.534 1384.51 288.534V283.534ZM1347.59 320.415V457.94H1352.59V320.415H1347.59ZM1347.59 457.94C1347.59 478.311 1364.12 494.821 1384.51 494.821V489.821C1366.87 489.821 1352.59 475.545 1352.59 457.94H1347.59ZM1384.51 494.821C1404.9 494.821 1421.42 478.311 1421.42 457.94H1416.42C1416.42 475.545 1402.14 489.821 1384.51 489.821V494.821Z" fill="#444B54"/>
</g>
<path d="M1405.54 265.435C1405.54 223.72 1439.49 189.904 1481.37 189.904C1492.79 189.904 1502.05 180.682 1502.05 169.305C1502.05 157.929 1492.79 148.706 1481.37 148.706C1416.65 148.706 1364.18 200.968 1364.18 265.435C1364.18 276.811 1373.44 286.034 1384.86 286.034C1396.28 286.034 1405.54 276.811 1405.54 265.435Z" fill="#F3DDD7" stroke="#444B54" stroke-width="5"/>
<path fill-rule="evenodd" clip-rule="evenodd" d="M1405.42 265.405C1405.42 254.011 1396.18 244.777 1384.8 244.777C1373.42 244.777 1364.18 254.011 1364.18 265.405C1364.18 276.798 1373.42 286.034 1384.8 286.034C1396.18 286.034 1405.42 276.798 1405.42 265.405Z" fill="#C58E8F" stroke="#444B54" stroke-width="5" stroke-linecap="round"/>
<path fill-rule="evenodd" clip-rule="evenodd" d="M617.931 77.979C659.748 77.979 693.646 111.843 693.646 153.618V291.142C693.646 332.917 659.748 366.781 617.931 366.781C576.114 366.781 542.216 332.917 542.216 291.142V153.618C542.216 111.843 576.114 77.979 617.931 77.979ZM652.347 153.618C652.347 134.629 636.938 119.236 617.931 119.236C598.924 119.236 583.515 134.629 583.515 153.618V291.142C583.515 310.13 598.924 325.523 617.931 325.523C636.938 325.523 652.347 310.13 652.347 291.142V153.618Z" fill="#B7544A"/>
<path d="M617.931 80.479C658.369 80.479 691.146 113.226 691.146 153.618H696.146C696.146 110.46 661.126 75.479 617.931 75.479V80.479ZM691.146 153.618V291.142H696.146V153.618H691.146ZM691.146 291.142C691.146 331.533 658.369 364.281 617.931 364.281V369.281C661.126 369.281 696.146 334.3 696.146 291.142H691.146ZM617.931 364.281C577.493 364.281 544.716 331.533 544.716 291.142H539.716C539.716 334.3 574.736 369.281 617.931 369.281V364.281ZM544.716 291.142V153.618H539.716V291.142H544.716ZM544.716 153.618C544.716 113.226 577.493 80.479 617.931 80.479V75.479C574.736 75.479 539.716 110.46 539.716 153.618H544.716ZM654.847 153.618C654.847 133.246 638.316 116.736 617.931 116.736V121.736C635.56 121.736 649.847 136.013 649.847 153.618H654.847ZM617.931 116.736C597.546 116.736 581.015 133.246 581.015 153.618H586.015C586.015 136.013 600.302 121.736 617.931 121.736V116.736ZM581.015 153.618V291.142H586.015V153.618H581.015ZM581.015 291.142C581.015 311.513 597.546 328.023 617.931 328.023V323.023C600.302 323.023 586.015 308.747 586.015 291.142H581.015ZM617.931 328.023C638.316 328.023 654.847 311.513 654.847 291.142H649.847C649.847 308.747 635.56 323.023 617.931 323.023V328.023ZM654.847 291.142V153.618H649.847V291.142H654.847Z" fill="#444B54"/>
<path fill-rule="evenodd" clip-rule="evenodd" d="M787.331 365.602C798.721 365.602 807.954 356.352 807.954 344.943C807.954 325.927 823.343 310.512 842.325 310.512H979.81C998.792 310.512 1014.18 325.927 1014.18 344.943C1014.18 356.352 1023.41 365.602 1034.8 365.602C1046.19 365.602 1055.43 356.352 1055.43 344.943C1055.43 323.237 1046.31 303.664 1031.71 289.853C1046.31 276.042 1055.43 256.468 1055.43 234.763V171.409C1055.43 129.574 1021.57 95.6606 979.81 95.6606C968.421 95.6606 959.187 104.91 959.187 116.319C959.187 127.729 968.421 136.978 979.81 136.978C998.792 136.978 1014.18 152.394 1014.18 171.409V234.763C1014.18 253.779 998.792 269.194 979.81 269.194H842.327C842.325 269.194 842.327 269.194 842.327 269.194C800.564 269.194 766.709 303.108 766.709 344.943C766.709 356.352 775.942 365.602 787.331 365.602Z" fill="#B7544A" stroke="#444B54" stroke-width="5" stroke-linecap="round"/>
<path fill-rule="evenodd" clip-rule="evenodd" d="M1055.48 344.678C1055.48 363.691 1070.89 379.104 1089.9 379.104C1108.9 379.104 1124.31 363.691 1124.31 344.678C1124.31 325.666 1108.9 310.253 1089.9 310.253C1078.49 310.253 1069.25 301.004 1069.25 289.597C1069.25 278.19 1078.49 268.942 1089.9 268.942C1131.71 268.942 1165.61 302.85 1165.61 344.678C1165.61 386.507 1131.71 420.415 1089.9 420.415C1048.08 420.415 1014.18 386.507 1014.18 344.678C1014.18 333.271 1023.43 324.023 1034.83 324.023C1046.23 324.023 1055.48 333.271 1055.48 344.678Z" fill="#1E96A3" stroke="#444B54" stroke-width="5" stroke-linecap="round"/>
<path fill-rule="evenodd" clip-rule="evenodd" d="M879.785 175.523C879.785 156.511 864.377 141.098 845.37 141.098C826.362 141.098 810.954 156.511 810.954 175.523C810.954 194.536 826.362 209.949 845.37 209.949C856.774 209.949 866.019 219.197 866.019 230.605C866.019 242.012 856.774 251.26 845.37 251.26C803.553 251.26 769.655 217.352 769.655 175.523C769.655 133.695 803.553 99.7866 845.37 99.7866C887.186 99.7866 921.084 133.695 921.084 175.523C921.084 186.931 911.839 196.179 900.435 196.179C889.031 196.179 879.785 186.931 879.785 175.523Z" fill="#1E96A3" stroke="#444B54" stroke-width="5" stroke-linecap="round"/>
<path fill-rule="evenodd" clip-rule="evenodd" d="M597.603 287.151C597.603 261.759 577.199 241.343 552.233 241.343C527.267 241.343 506.863 261.759 506.863 287.151C506.863 301.179 513.08 313.696 522.921 322.118C531.585 329.532 532.615 342.586 525.221 351.273C517.827 359.961 504.81 360.993 496.147 353.579C477.485 337.609 465.618 313.754 465.618 287.151C465.618 239.101 504.304 199.983 552.233 199.983C600.161 199.983 638.848 239.101 638.848 287.151C638.848 298.572 629.615 307.831 618.225 307.831C606.836 307.831 597.603 298.572 597.603 287.151Z" fill="#C58E8F" stroke="#444B54" stroke-width="5" stroke-linecap="round"/>
<path fill-rule="evenodd" clip-rule="evenodd" d="M981.148 -3.35689C954.909 -3.35689 932.942 18.4215 932.942 46.1519C932.942 73.8824 954.909 95.6608 981.148 95.6608C992.557 95.6608 1001.81 104.897 1001.81 116.289C1001.81 127.682 992.557 136.918 981.148 136.918C931.321 136.918 891.623 95.8932 891.623 46.1519C891.623 -3.58931 931.321 -44.6143 981.148 -44.6143C992.557 -44.6143 1001.81 -35.3781 1001.81 -23.9856C1001.81 -12.593 992.557 -3.35689 981.148 -3.35689Z" fill="#C18363" stroke="#444B54" stroke-width="5" stroke-linecap="round"/>
<path fill-rule="evenodd" clip-rule="evenodd" d="M845.06 251.337C792.629 251.337 750.126 293.899 750.126 346.405C750.126 388.257 716.246 422.183 674.453 422.183C632.66 422.183 598.781 388.257 598.781 346.405C598.781 334.991 608.022 325.738 619.419 325.738C630.817 325.738 640.057 334.991 640.057 346.405C640.057 365.428 655.457 380.85 674.453 380.85C693.45 380.85 708.85 365.428 708.85 346.405C708.85 271.072 769.833 210.003 845.06 210.003C856.457 210.003 865.698 219.256 865.698 230.67C865.698 242.083 856.457 251.337 845.06 251.337Z" fill="#C18363" stroke="#444B54" stroke-width="5" stroke-linecap="round"/>
<path d="M622.35 77.9789C708.91 77.9789 779.082 7.78642 779.082 -78.7991C779.082 -90.1916 788.316 -99.4277 799.705 -99.4277C811.094 -99.4277 820.328 -90.1916 820.328 -78.7991C820.328 30.5728 731.69 119.236 622.35 119.236C610.961 119.236 601.727 110 601.727 98.6076C601.727 87.2151 610.961 77.9789 622.35 77.9789Z" fill="#F3DDD7" stroke="#444B54" stroke-width="5"/>
<path fill-rule="evenodd" clip-rule="evenodd" d="M1194.48 329.649C1194.48 277.241 1152.01 234.757 1099.62 234.757C1088.23 234.757 1079 225.521 1079 214.128C1079 202.736 1088.23 193.5 1099.62 193.5C1174.79 193.5 1235.73 254.456 1235.73 329.649C1235.73 341.042 1226.49 350.278 1215.1 350.278C1203.72 350.278 1194.48 341.042 1194.48 329.649Z" fill="#C58E8F" stroke="#444B54" stroke-width="5" stroke-linecap="round"/>
<path fill-rule="evenodd" clip-rule="evenodd" d="M506.895 188.13C472.022 188.13 443.752 216.409 443.752 251.292C443.752 262.667 434.533 271.889 423.162 271.889C411.79 271.889 402.571 262.667 402.571 251.292C402.571 193.658 449.278 146.938 506.895 146.938C518.267 146.938 527.486 156.159 527.486 167.534C527.486 178.909 518.267 188.13 506.895 188.13Z" fill="#C18363" stroke="#444B54" stroke-width="5" stroke-linecap="round"/>
<path fill-rule="evenodd" clip-rule="evenodd" d="M866.287 230.631C866.287 242.024 857.053 251.26 845.664 251.26C834.275 251.26 825.042 242.024 825.042 230.631C825.042 219.239 834.275 210.003 845.664 210.003C857.053 210.003 866.287 219.239 866.287 230.631Z" fill="#C58E8F" stroke="#444B54" stroke-width="5" stroke-linecap="round"/>
<path fill-rule="evenodd" clip-rule="evenodd" d="M865.698 61.4761C865.698 72.8686 856.464 82.1048 845.075 82.1048C833.686 82.1048 824.452 72.8686 824.452 61.4761C824.452 50.0836 833.686 40.8474 845.075 40.8474C856.464 40.8474 865.698 50.0836 865.698 61.4761Z" fill="#C58E8F" stroke="#444B54" stroke-width="5" stroke-linecap="round"/>
<path fill-rule="evenodd" clip-rule="evenodd" d="M865.698 6.07326C865.698 17.4658 856.464 26.7019 845.075 26.7019C833.686 26.7019 824.452 17.4658 824.452 6.07326C824.452 -5.31927 833.686 -14.5554 845.075 -14.5554C856.464 -14.5554 865.698 -5.31927 865.698 6.07326Z" fill="#C58E8F" stroke="#444B54" stroke-width="5" stroke-linecap="round"/>
<path fill-rule="evenodd" clip-rule="evenodd" d="M1001.81 116.289C1001.81 127.682 992.574 136.918 981.185 136.918C969.795 136.918 960.562 127.682 960.562 116.289C960.562 104.897 969.795 95.6606 981.185 95.6606C992.574 95.6606 1001.81 104.897 1001.81 116.289Z" fill="#C58E8F" stroke="#444B54" stroke-width="5" stroke-linecap="round"/>
<path fill-rule="evenodd" clip-rule="evenodd" d="M921.084 230.631C921.084 242.024 911.851 251.26 900.462 251.26C889.072 251.26 879.839 242.024 879.839 230.631C879.839 219.239 889.072 210.003 900.462 210.003C911.851 210.003 921.084 219.239 921.084 230.631Z" fill="#1E96A3" stroke="#444B54" stroke-width="5" stroke-linecap="round"/>
<path fill-rule="evenodd" clip-rule="evenodd" d="M975.882 230.631C975.882 242.024 966.648 251.26 955.259 251.26C943.87 251.26 934.636 242.024 934.636 230.631C934.636 219.239 943.87 210.003 955.259 210.003C966.648 210.003 975.882 219.239 975.882 230.631Z" fill="#1E96A3" stroke="#444B54" stroke-width="5" stroke-linecap="round"/>
<path fill-rule="evenodd" clip-rule="evenodd" d="M638.848 98.6077C638.848 110 629.615 119.236 618.225 119.236C606.836 119.236 597.603 110 597.603 98.6077C597.603 87.2152 606.836 77.979 618.225 77.979C629.615 77.979 638.848 87.2152 638.848 98.6077Z" fill="#C58E8F" stroke="#444B54" stroke-width="5" stroke-linecap="round"/>
<path fill-rule="evenodd" clip-rule="evenodd" d="M1116.12 128.667C1189.01 128.667 1248.1 69.5572 1248.1 -3.35691C1248.1 -14.7494 1257.33 -23.9856 1268.72 -23.9856C1280.11 -23.9856 1289.35 -14.7494 1289.35 -3.35691C1289.35 92.3437 1211.79 169.924 1116.12 169.924C1104.73 169.924 1095.49 160.688 1095.49 149.295C1095.49 137.903 1104.73 128.667 1116.12 128.667Z" fill="#B7544A" stroke="#444B54" stroke-width="5" stroke-linecap="round"/>
<path fill-rule="evenodd" clip-rule="evenodd" d="M1283.31 11.2296C1275.25 19.2858 1262.19 19.2858 1254.14 11.2296C1246.09 3.17344 1246.09 -9.88864 1254.14 -17.9435C1262.19 -25.9996 1275.25 -25.9996 1283.31 -17.9435C1291.36 -9.88864 1291.36 3.17344 1283.31 11.2296Z" fill="#1E96A3" stroke="#444B54" stroke-width="5" stroke-linecap="round"/>
<path fill-rule="evenodd" clip-rule="evenodd" d="M1341.64 11.2296C1333.58 19.2858 1320.52 19.2858 1312.48 11.2296C1304.42 3.17344 1304.42 -9.88864 1312.48 -17.9435C1320.52 -25.9996 1333.58 -25.9996 1341.64 -17.9435C1349.69 -9.88864 1349.69 3.17344 1341.64 11.2296Z" fill="#1E96A3" stroke="#444B54" stroke-width="5" stroke-linecap="round"/>
<path fill-rule="evenodd" clip-rule="evenodd" d="M1479.63 88.6553C1380.76 88.6553 1300.61 168.829 1300.61 267.729C1300.61 279.14 1291.36 288.391 1279.95 288.391C1268.54 288.391 1259.3 279.14 1259.3 267.729C1259.3 146.006 1357.94 47.3306 1479.63 47.3306C1491.03 47.3306 1500.29 56.5818 1500.29 67.9929C1500.29 79.4041 1491.03 88.6553 1479.63 88.6553Z" fill="#C18363" stroke="#444B54" stroke-width="5" stroke-linecap="round"/>
<path d="M1469.04 17.2718H1387.17C1375.78 17.2718 1366.53 8.03562 1366.53 -3.35691C1366.53 -14.7494 1375.78 -23.9856 1387.17 -23.9856H1469.04C1480.43 -23.9856 1489.68 -14.7494 1489.68 -3.35691C1489.68 8.03562 1480.43 17.2718 1469.04 17.2718Z" fill="#F3DDD7" stroke="#444B54" stroke-width="5"/>
</g>
</g>
</g>
<rect x="150" y="63" width="415" height="150" fill="white"/>
<path d="M247.719 124.18C246.063 124.18 244.575 123.832 243.255 123.136C241.959 122.416 240.927 121.372 240.159 120.004C239.415 118.636 239.043 116.956 239.043 114.964V106.108C239.043 105.58 239.211 105.148 239.547 104.812C239.907 104.452 240.351 104.272 240.879 104.272C241.407 104.272 241.839 104.452 242.175 104.812C242.535 105.148 242.715 105.58 242.715 106.108V114.964C242.715 116.308 242.967 117.424 243.471 118.312C243.975 119.176 244.659 119.824 245.523 120.256C246.387 120.664 247.359 120.868 248.439 120.868C249.471 120.868 250.383 120.664 251.175 120.256C251.991 119.848 252.639 119.296 253.119 118.6C253.599 117.904 253.839 117.124 253.839 116.26H256.107C256.107 117.748 255.735 119.092 254.991 120.292C254.271 121.492 253.275 122.44 252.003 123.136C250.755 123.832 249.327 124.18 247.719 124.18ZM255.675 124C255.147 124 254.703 123.832 254.343 123.496C254.007 123.136 253.839 122.692 253.839 122.164V106.108C253.839 105.556 254.007 105.112 254.343 104.776C254.703 104.44 255.147 104.272 255.675 104.272C256.227 104.272 256.671 104.44 257.007 104.776C257.343 105.112 257.511 105.556 257.511 106.108V122.164C257.511 122.692 257.343 123.136 257.007 123.496C256.671 123.832 256.227 124 255.675 124ZM280.61 124.036C280.082 124.036 279.638 123.868 279.278 123.532C278.942 123.172 278.774 122.728 278.774 122.2V113.344C278.774 111.976 278.522 110.86 278.018 109.996C277.514 109.132 276.83 108.496 275.966 108.088C275.126 107.656 274.154 107.44 273.05 107.44C272.042 107.44 271.13 107.644 270.314 108.052C269.498 108.46 268.85 109.012 268.37 109.708C267.89 110.38 267.65 111.16 267.65 112.048H265.382C265.382 110.536 265.742 109.192 266.462 108.016C267.206 106.816 268.214 105.868 269.486 105.172C270.758 104.476 272.186 104.128 273.77 104.128C275.426 104.128 276.902 104.488 278.198 105.208C279.518 105.904 280.55 106.936 281.294 108.304C282.062 109.672 282.446 111.352 282.446 113.344V122.2C282.446 122.728 282.266 123.172 281.906 123.532C281.57 123.868 281.138 124.036 280.61 124.036ZM265.814 124.036C265.286 124.036 264.842 123.868 264.482 123.532C264.146 123.172 263.978 122.728 263.978 122.2V106.144C263.978 105.592 264.146 105.148 264.482 104.812C264.842 104.476 265.286 104.308 265.814 104.308C266.366 104.308 266.81 104.476 267.146 104.812C267.482 105.148 267.65 105.592 267.65 106.144V122.2C267.65 122.728 267.482 123.172 267.146 123.532C266.81 123.868 266.366 124.036 265.814 124.036ZM293.197 124C292.141 124 291.205 123.712 290.389 123.136C289.573 122.56 288.937 121.78 288.481 120.796C288.025 119.788 287.797 118.636 287.797 117.34V97.684C287.797 97.156 287.965 96.724 288.301 96.388C288.637 96.052 289.069 95.884 289.597 95.884C290.125 95.884 290.557 96.052 290.893 96.388C291.229 96.724 291.397 97.156 291.397 97.684V117.34C291.397 118.228 291.565 118.96 291.901 119.536C292.237 120.112 292.669 120.4 293.197 120.4H294.097C294.577 120.4 294.961 120.568 295.249 120.904C295.561 121.24 295.717 121.672 295.717 122.2C295.717 122.728 295.489 123.16 295.033 123.496C294.577 123.832 293.989 124 293.269 124H293.197ZM301.506 124C300.978 124 300.534 123.832 300.174 123.496C299.838 123.136 299.67 122.692 299.67 122.164V106.144C299.67 105.592 299.838 105.148 300.174 104.812C300.534 104.476 300.978 104.308 301.506 104.308C302.058 104.308 302.502 104.476 302.838 104.812C303.174 105.148 303.342 105.592 303.342 106.144V122.164C303.342 122.692 303.174 123.136 302.838 123.496C302.502 123.832 302.058 124 301.506 124ZM301.506 101.104C300.858 101.104 300.294 100.876 299.814 100.42C299.358 99.94 299.13 99.376 299.13 98.728C299.13 98.08 299.358 97.528 299.814 97.072C300.294 96.592 300.858 96.352 301.506 96.352C302.154 96.352 302.706 96.592 303.162 97.072C303.642 97.528 303.882 98.08 303.882 98.728C303.882 99.376 303.642 99.94 303.162 100.42C302.706 100.876 302.154 101.104 301.506 101.104ZM336.022 124.036C335.494 124.036 335.05 123.868 334.69 123.532C334.354 123.172 334.186 122.728 334.186 122.2V111.904C334.186 110.392 333.814 109.276 333.07 108.556C332.326 107.812 331.354 107.44 330.154 107.44C328.906 107.44 327.874 107.872 327.058 108.736C326.266 109.6 325.87 110.704 325.87 112.048H322.882C322.882 110.488 323.218 109.12 323.89 107.944C324.562 106.744 325.498 105.808 326.698 105.136C327.922 104.464 329.314 104.128 330.874 104.128C332.242 104.128 333.454 104.428 334.51 105.028C335.566 105.628 336.382 106.516 336.958 107.692C337.558 108.844 337.858 110.248 337.858 111.904V122.2C337.858 122.728 337.69 123.172 337.354 123.532C337.018 123.868 336.574 124.036 336.022 124.036ZM312.01 124.036C311.482 124.036 311.038 123.868 310.678 123.532C310.342 123.172 310.174 122.728 310.174 122.2V106.18C310.174 105.628 310.342 105.184 310.678 104.848C311.038 104.512 311.482 104.344 312.01 104.344C312.562 104.344 313.006 104.512 313.342 104.848C313.678 105.184 313.846 105.628 313.846 106.18V122.2C313.846 122.728 313.678 123.172 313.342 123.532C313.006 123.868 312.562 124.036 312.01 124.036ZM324.034 124.036C323.506 124.036 323.062 123.868 322.702 123.532C322.366 123.172 322.198 122.728 322.198 122.2V111.904C322.198 110.392 321.826 109.276 321.082 108.556C320.338 107.812 319.366 107.44 318.166 107.44C316.918 107.44 315.886 107.872 315.07 108.736C314.254 109.6 313.846 110.704 313.846 112.048H311.578C311.578 110.488 311.89 109.12 312.514 107.944C313.138 106.744 314.002 105.808 315.106 105.136C316.21 104.464 317.47 104.128 318.886 104.128C320.254 104.128 321.466 104.428 322.522 105.028C323.578 105.628 324.394 106.516 324.97 107.692C325.57 108.844 325.87 110.248 325.87 111.904V122.2C325.87 122.728 325.702 123.172 325.366 123.532C325.03 123.868 324.586 124.036 324.034 124.036ZM346.155 124C345.627 124 345.183 123.832 344.823 123.496C344.487 123.136 344.319 122.692 344.319 122.164V106.144C344.319 105.592 344.487 105.148 344.823 104.812C345.183 104.476 345.627 104.308 346.155 104.308C346.707 104.308 347.151 104.476 347.487 104.812C347.823 105.148 347.991 105.592 347.991 106.144V122.164C347.991 122.692 347.823 123.136 347.487 123.496C347.151 123.832 346.707 124 346.155 124ZM346.155 101.104C345.507 101.104 344.943 100.876 344.463 100.42C344.007 99.94 343.779 99.376 343.779 98.728C343.779 98.08 344.007 97.528 344.463 97.072C344.943 96.592 345.507 96.352 346.155 96.352C346.803 96.352 347.355 96.592 347.811 97.072C348.291 97.528 348.531 98.08 348.531 98.728C348.531 99.376 348.291 99.94 347.811 100.42C347.355 100.876 346.803 101.104 346.155 101.104ZM361.986 124C360.786 124 359.706 123.7 358.746 123.1C357.786 122.476 357.03 121.636 356.478 120.58C355.926 119.524 355.65 118.336 355.65 117.016V99.844C355.65 99.316 355.818 98.884 356.154 98.548C356.49 98.212 356.922 98.044 357.45 98.044C357.978 98.044 358.41 98.212 358.746 98.548C359.082 98.884 359.25 99.316 359.25 99.844V117.016C359.25 117.976 359.514 118.78 360.042 119.428C360.57 120.076 361.218 120.4 361.986 120.4H363.21C363.642 120.4 364.002 120.568 364.29 120.904C364.602 121.24 364.758 121.672 364.758 122.2C364.758 122.728 364.554 123.16 364.146 123.496C363.762 123.832 363.258 124 362.634 124H361.986ZM353.994 108.124C353.49 108.124 353.082 107.98 352.77 107.692C352.458 107.404 352.302 107.044 352.302 106.612C352.302 106.132 352.458 105.748 352.77 105.46C353.082 105.172 353.49 105.028 353.994 105.028H362.31C362.814 105.028 363.222 105.172 363.534 105.46C363.846 105.748 364.002 106.132 364.002 106.612C364.002 107.044 363.846 107.404 363.534 107.692C363.222 107.98 362.814 108.124 362.31 108.124H353.994ZM378.523 124.144C376.531 124.144 374.755 123.724 373.195 122.884C371.659 122.02 370.447 120.844 369.559 119.356C368.695 117.844 368.263 116.116 368.263 114.172C368.263 112.204 368.671 110.476 369.487 108.988C370.327 107.476 371.479 106.3 372.943 105.46C374.407 104.596 376.087 104.164 377.983 104.164C379.855 104.164 381.463 104.584 382.807 105.424C384.151 106.24 385.171 107.38 385.867 108.844C386.587 110.284 386.947 111.952 386.947 113.848C386.947 114.304 386.791 114.688 386.479 115C386.167 115.288 385.771 115.432 385.291 115.432H370.783V112.552H385.183L383.707 113.56C383.683 112.36 383.443 111.292 382.987 110.356C382.531 109.396 381.883 108.64 381.043 108.088C380.203 107.536 379.183 107.26 377.983 107.26C376.615 107.26 375.439 107.56 374.455 108.16C373.495 108.76 372.763 109.588 372.259 110.644C371.755 111.676 371.503 112.852 371.503 114.172C371.503 115.492 371.803 116.668 372.403 117.7C373.003 118.732 373.831 119.548 374.887 120.148C375.943 120.748 377.155 121.048 378.523 121.048C379.267 121.048 380.023 120.916 380.791 120.652C381.583 120.364 382.219 120.04 382.699 119.68C383.059 119.416 383.443 119.284 383.851 119.284C384.283 119.26 384.655 119.38 384.967 119.644C385.375 120.004 385.591 120.4 385.615 120.832C385.639 121.264 385.447 121.636 385.039 121.948C384.223 122.596 383.203 123.124 381.979 123.532C380.779 123.94 379.627 124.144 378.523 124.144ZM399.856 124.144C397.984 124.144 396.292 123.712 394.78 122.848C393.292 121.96 392.104 120.76 391.216 119.248C390.352 117.736 389.92 116.032 389.92 114.136C389.92 112.24 390.316 110.548 391.108 109.06C391.924 107.548 393.028 106.36 394.42 105.496C395.812 104.608 397.384 104.164 399.136 104.164C400.552 104.164 401.86 104.464 403.06 105.064C404.26 105.64 405.268 106.432 406.084 107.44V97.72C406.084 97.168 406.252 96.724 406.588 96.388C406.948 96.052 407.392 95.884 407.92 95.884C408.472 95.884 408.916 96.052 409.252 96.388C409.588 96.724 409.756 97.168 409.756 97.72V114.136C409.756 116.032 409.312 117.736 408.424 119.248C407.56 120.76 406.384 121.96 404.896 122.848C403.408 123.712 401.728 124.144 399.856 124.144ZM399.856 120.904C401.08 120.904 402.172 120.616 403.132 120.04C404.092 119.44 404.848 118.624 405.4 117.592C405.952 116.56 406.228 115.408 406.228 114.136C406.228 112.84 405.952 111.688 405.4 110.68C404.848 109.672 404.092 108.88 403.132 108.304C402.172 107.704 401.08 107.404 399.856 107.404C398.656 107.404 397.564 107.704 396.58 108.304C395.62 108.88 394.852 109.672 394.276 110.68C393.724 111.688 393.448 112.84 393.448 114.136C393.448 115.408 393.724 116.56 394.276 117.592C394.852 118.624 395.62 119.44 396.58 120.04C397.564 120.616 398.656 120.904 399.856 120.904ZM186.88 178.192C184.32 178.192 182.032 177.616 180.016 176.464C178.032 175.28 176.464 173.696 175.312 171.712C174.192 169.696 173.632 167.424 173.632 164.896C173.632 162.304 174.192 160 175.312 157.984C176.432 155.968 177.968 154.4 179.92 153.28C181.872 152.128 184.112 151.552 186.64 151.552C188.528 151.552 190.256 151.92 191.824 152.656C193.392 153.36 194.8 154.432 196.048 155.872C196.496 156.384 196.656 156.912 196.528 157.456C196.4 158 196.048 158.48 195.472 158.896C195.024 159.216 194.528 159.328 193.984 159.232C193.44 159.104 192.944 158.816 192.496 158.368C190.928 156.704 188.976 155.872 186.64 155.872C185.008 155.872 183.568 156.256 182.32 157.024C181.072 157.76 180.096 158.8 179.392 160.144C178.688 161.488 178.336 163.072 178.336 164.896C178.336 166.624 178.688 168.16 179.392 169.504C180.128 170.848 181.136 171.92 182.416 172.72C183.696 173.488 185.184 173.872 186.88 173.872C188 173.872 188.976 173.744 189.808 173.488C190.672 173.2 191.456 172.768 192.16 172.192C192.672 171.776 193.2 171.552 193.744 171.52C194.288 171.456 194.768 171.6 195.184 171.952C195.728 172.4 196.032 172.912 196.096 173.488C196.16 174.032 195.968 174.528 195.52 174.976C193.216 177.12 190.336 178.192 186.88 178.192ZM214.748 178.192C212.412 178.192 210.316 177.616 208.46 176.464C206.604 175.28 205.132 173.696 204.044 171.712C202.988 169.696 202.46 167.424 202.46 164.896C202.46 162.368 203.036 160.096 204.188 158.08C205.372 156.064 206.956 154.48 208.94 153.328C210.956 152.144 213.212 151.552 215.708 151.552C218.204 151.552 220.444 152.144 222.428 153.328C224.412 154.48 225.98 156.064 227.132 158.08C228.316 160.096 228.908 162.368 228.908 164.896H227.036C227.036 167.424 226.492 169.696 225.404 171.712C224.348 173.696 222.892 175.28 221.036 176.464C219.18 177.616 217.084 178.192 214.748 178.192ZM215.708 173.872C217.34 173.872 218.796 173.488 220.076 172.72C221.356 171.92 222.364 170.848 223.1 169.504C223.836 168.128 224.204 166.592 224.204 164.896C224.204 163.168 223.836 161.632 223.1 160.288C222.364 158.912 221.356 157.84 220.076 157.072C218.796 156.272 217.34 155.872 215.708 155.872C214.108 155.872 212.652 156.272 211.34 157.072C210.06 157.84 209.036 158.912 208.268 160.288C207.532 161.632 207.164 163.168 207.164 164.896C207.164 166.592 207.532 168.128 208.268 169.504C209.036 170.848 210.06 171.92 211.34 172.72C212.652 173.488 214.108 173.872 215.708 173.872ZM226.46 178.048C225.756 178.048 225.164 177.824 224.684 177.376C224.236 176.896 224.012 176.304 224.012 175.6V168.256L224.924 163.168L228.908 164.896V175.6C228.908 176.304 228.668 176.896 228.188 177.376C227.74 177.824 227.164 178.048 226.46 178.048ZM245.747 178.192C243.507 178.192 241.427 177.856 239.507 177.184C237.619 176.48 236.147 175.6 235.091 174.544C234.611 174.032 234.403 173.456 234.467 172.816C234.563 172.144 234.883 171.6 235.427 171.184C236.067 170.672 236.691 170.464 237.299 170.56C237.939 170.624 238.483 170.896 238.931 171.376C239.475 171.984 240.339 172.56 241.523 173.104C242.739 173.616 244.083 173.872 245.555 173.872C247.411 173.872 248.819 173.568 249.779 172.96C250.771 172.352 251.283 171.568 251.315 170.608C251.347 169.648 250.883 168.816 249.923 168.112C248.995 167.408 247.283 166.832 244.787 166.384C241.555 165.744 239.203 164.784 237.731 163.504C236.291 162.224 235.571 160.656 235.571 158.8C235.571 157.168 236.051 155.824 237.011 154.768C237.971 153.68 239.203 152.88 240.707 152.368C242.211 151.824 243.779 151.552 245.411 151.552C247.523 151.552 249.395 151.888 251.027 152.56C252.659 153.232 253.955 154.16 254.915 155.344C255.363 155.856 255.571 156.4 255.539 156.976C255.507 157.52 255.235 157.984 254.723 158.368C254.211 158.72 253.603 158.832 252.899 158.704C252.195 158.576 251.603 158.288 251.123 157.84C250.323 157.072 249.459 156.544 248.531 156.256C247.603 155.968 246.531 155.824 245.315 155.824C243.907 155.824 242.707 156.064 241.715 156.544C240.755 157.024 240.275 157.728 240.275 158.656C240.275 159.232 240.419 159.76 240.707 160.24C241.027 160.688 241.635 161.104 242.531 161.488C243.427 161.84 244.739 162.192 246.467 162.544C248.867 163.024 250.755 163.632 252.131 164.368C253.539 165.104 254.547 165.968 255.155 166.96C255.763 167.92 256.067 169.04 256.067 170.32C256.067 171.792 255.667 173.12 254.867 174.304C254.099 175.488 252.947 176.432 251.411 177.136C249.907 177.84 248.019 178.192 245.747 178.192ZM284.434 178.048C283.73 178.048 283.138 177.824 282.658 177.376C282.21 176.896 281.986 176.304 281.986 175.6V163.792C281.986 161.968 281.65 160.48 280.978 159.328C280.306 158.176 279.394 157.328 278.242 156.784C277.122 156.208 275.826 155.92 274.354 155.92C273.01 155.92 271.794 156.192 270.706 156.736C269.618 157.28 268.754 158.016 268.114 158.944C267.474 159.84 267.154 160.88 267.154 162.064H264.13C264.13 160.048 264.61 158.256 265.57 156.688C266.562 155.088 267.906 153.824 269.602 152.896C271.298 151.968 273.202 151.504 275.314 151.504C277.522 151.504 279.49 151.984 281.218 152.944C282.978 153.872 284.354 155.248 285.346 157.072C286.37 158.896 286.882 161.136 286.882 163.792V175.6C286.882 176.304 286.642 176.896 286.161 177.376C285.714 177.824 285.138 178.048 284.434 178.048ZM264.706 178.048C264.002 178.048 263.41 177.824 262.93 177.376C262.482 176.896 262.258 176.304 262.258 175.6V154.192C262.258 153.456 262.482 152.864 262.93 152.416C263.41 151.968 264.002 151.744 264.706 151.744C265.442 151.744 266.034 151.968 266.482 152.416C266.93 152.864 267.154 153.456 267.154 154.192V175.6C267.154 176.304 266.93 176.896 266.482 177.376C266.034 177.824 265.442 178.048 264.706 178.048ZM264.706 168.448C264.002 168.448 263.41 168.224 262.93 167.776C262.482 167.296 262.258 166.704 262.258 166V142.96C262.258 142.224 262.482 141.632 262.93 141.184C263.41 140.736 264.002 140.512 264.706 140.512C265.442 140.512 266.034 140.736 266.482 141.184C266.93 141.632 267.154 142.224 267.154 142.96V166C267.154 166.704 266.93 167.296 266.482 167.776C266.034 168.224 265.442 168.448 264.706 168.448ZM308.223 178.192C305.727 178.192 303.487 177.616 301.503 176.464C299.519 175.28 297.951 173.68 296.799 171.664C295.647 169.648 295.055 167.376 295.023 164.848V142.96C295.023 142.224 295.247 141.632 295.695 141.184C296.175 140.736 296.767 140.512 297.471 140.512C298.207 140.512 298.799 140.736 299.247 141.184C299.695 141.632 299.919 142.224 299.919 142.96V155.92C301.039 154.576 302.383 153.52 303.951 152.752C305.551 151.952 307.295 151.552 309.183 151.552C311.519 151.552 313.615 152.144 315.471 153.328C317.327 154.48 318.783 156.064 319.839 158.08C320.927 160.064 321.471 162.32 321.471 164.848C321.471 167.376 320.879 169.648 319.695 171.664C318.543 173.68 316.975 175.28 314.991 176.464C313.007 177.616 310.751 178.192 308.223 178.192ZM308.223 173.872C309.855 173.872 311.311 173.488 312.591 172.72C313.871 171.92 314.879 170.832 315.615 169.456C316.383 168.08 316.767 166.544 316.767 164.848C316.767 163.12 316.383 161.584 315.615 160.24C314.879 158.896 313.871 157.84 312.591 157.072C311.311 156.272 309.855 155.872 308.223 155.872C306.623 155.872 305.167 156.272 303.855 157.072C302.575 157.84 301.567 158.896 300.831 160.24C300.095 161.584 299.727 163.12 299.727 164.848C299.727 166.544 300.095 168.08 300.831 169.456C301.567 170.832 302.575 171.92 303.855 172.72C305.167 173.488 306.623 173.872 308.223 173.872ZM339.717 178.192C337.381 178.192 335.285 177.616 333.429 176.464C331.573 175.28 330.101 173.696 329.013 171.712C327.957 169.696 327.429 167.424 327.429 164.896C327.429 162.368 328.005 160.096 329.157 158.08C330.341 156.064 331.925 154.48 333.909 153.328C335.925 152.144 338.181 151.552 340.677 151.552C343.173 151.552 345.413 152.144 347.397 153.328C349.381 154.48 350.949 156.064 352.101 158.08C353.285 160.096 353.877 162.368 353.877 164.896H352.005C352.005 167.424 351.461 169.696 350.373 171.712C349.317 173.696 347.861 175.28 346.005 176.464C344.149 177.616 342.053 178.192 339.717 178.192ZM340.677 173.872C342.309 173.872 343.765 173.488 345.045 172.72C346.325 171.92 347.333 170.848 348.069 169.504C348.805 168.128 349.173 166.592 349.173 164.896C349.173 163.168 348.805 161.632 348.069 160.288C347.333 158.912 346.325 157.84 345.045 157.072C343.765 156.272 342.309 155.872 340.677 155.872C339.077 155.872 337.621 156.272 336.309 157.072C335.029 157.84 334.005 158.912 333.237 160.288C332.501 161.632 332.133 163.168 332.133 164.896C332.133 166.592 332.501 168.128 333.237 169.504C334.005 170.848 335.029 171.92 336.309 172.72C337.621 173.488 339.077 173.872 340.677 173.872ZM351.429 178.048C350.725 178.048 350.133 177.824 349.653 177.376C349.205 176.896 348.981 176.304 348.981 175.6V168.256L349.893 163.168L353.877 164.896V175.6C353.877 176.304 353.637 176.896 353.157 177.376C352.709 177.824 352.133 178.048 351.429 178.048ZM373.068 178.192C370.508 178.192 368.22 177.616 366.204 176.464C364.22 175.28 362.652 173.696 361.5 171.712C360.38 169.696 359.82 167.424 359.82 164.896C359.82 162.304 360.38 160 361.5 157.984C362.62 155.968 364.156 154.4 366.108 153.28C368.06 152.128 370.3 151.552 372.828 151.552C374.716 151.552 376.444 151.92 378.012 152.656C379.58 153.36 380.988 154.432 382.236 155.872C382.684 156.384 382.844 156.912 382.716 157.456C382.588 158 382.236 158.48 381.66 158.896C381.212 159.216 380.716 159.328 380.172 159.232C379.628 159.104 379.132 158.816 378.684 158.368C377.116 156.704 375.164 155.872 372.828 155.872C371.196 155.872 369.756 156.256 368.508 157.024C367.26 157.76 366.284 158.8 365.58 160.144C364.876 161.488 364.524 163.072 364.524 164.896C364.524 166.624 364.876 168.16 365.58 169.504C366.316 170.848 367.324 171.92 368.604 172.72C369.884 173.488 371.372 173.872 373.068 173.872C374.188 173.872 375.164 173.744 375.996 173.488C376.86 173.2 377.644 172.768 378.348 172.192C378.86 171.776 379.388 171.552 379.932 171.52C380.476 171.456 380.956 171.6 381.372 171.952C381.916 172.4 382.22 172.912 382.284 173.488C382.348 174.032 382.156 174.528 381.708 174.976C379.404 177.12 376.524 178.192 373.068 178.192ZM394.6 168.4L391.624 165.136L406.36 151.984C406.84 151.536 407.368 151.328 407.944 151.36C408.552 151.392 409.064 151.648 409.48 152.128C409.928 152.608 410.136 153.136 410.104 153.712C410.072 154.288 409.816 154.8 409.336 155.248L394.6 168.4ZM392.344 178C391.64 178 391.064 177.792 390.616 177.376C390.2 176.928 389.992 176.352 389.992 175.648V142.864C389.992 142.16 390.2 141.6 390.616 141.184C391.064 140.736 391.64 140.512 392.344 140.512C393.048 140.512 393.608 140.736 394.024 141.184C394.472 141.6 394.696 142.16 394.696 142.864V175.648C394.696 176.352 394.472 176.928 394.024 177.376C393.608 177.792 393.048 178 392.344 178ZM409.48 177.76C408.968 178.176 408.392 178.352 407.752 178.288C407.144 178.256 406.632 177.984 406.216 177.472L396.472 165.424L399.832 162.256L409.816 174.544C410.232 175.056 410.408 175.616 410.344 176.224C410.312 176.8 410.024 177.312 409.48 177.76Z" fill="#444B54"/>
<path d="M461.92 177C460.32 177 458.92 176.4 457.72 175.2C456.52 174 455.92 172.56 455.92 170.88V97.68L447.16 101.4C445.8 101.96 444.52 102.24 443.32 102.24C441.56 102.24 440.08 101.68 438.88 100.56C437.76 99.44 437.2 98 437.2 96.24C437.2 94.96 437.52 93.8 438.16 92.76C438.8 91.72 439.8 90.96 441.16 90.48L459.88 83.76C460.28 83.6 460.68 83.48 461.08 83.4C461.48 83.32 461.84 83.28 462.16 83.28C464 83.28 465.44 83.88 466.48 85.08C467.6 86.2 468.16 87.68 468.16 89.52V170.88C468.16 172.56 467.56 174 466.36 175.2C465.16 176.4 463.68 177 461.92 177ZM492.634 177C491.534 177 490.609 176.625 489.859 175.875C489.159 175.125 488.809 174.225 488.809 173.175C488.809 172.125 489.109 171.275 489.709 170.625L529.159 119.925C529.609 119.425 530.084 119.05 530.584 118.8C531.134 118.55 531.684 118.425 532.234 118.425C533.334 118.425 534.259 118.8 535.009 119.55C535.759 120.3 536.134 121.2 536.134 122.25C536.134 123.1 535.859 123.875 535.309 124.575L495.484 175.8C494.734 176.6 493.784 177 492.634 177ZM497.134 148.35C494.384 148.35 491.859 147.675 489.559 146.325C487.309 144.925 485.509 143.1 484.159 140.85C482.809 138.6 482.134 136.125 482.134 133.425C482.134 130.725 482.809 128.25 484.159 126C485.509 123.7 487.309 121.875 489.559 120.525C491.859 119.125 494.384 118.425 497.134 118.425C499.884 118.425 502.384 119.125 504.634 120.525C506.884 121.875 508.684 123.7 510.034 126C511.384 128.25 512.059 130.725 512.059 133.425C512.059 136.125 511.384 138.6 510.034 140.85C508.684 143.1 506.884 144.925 504.634 146.325C502.384 147.675 499.884 148.35 497.134 148.35ZM497.134 140.7C498.484 140.7 499.709 140.375 500.809 139.725C501.909 139.075 502.784 138.2 503.434 137.1C504.084 135.95 504.409 134.725 504.409 133.425C504.409 132.075 504.059 130.85 503.359 129.75C502.709 128.65 501.834 127.775 500.734 127.125C499.634 126.425 498.434 126.075 497.134 126.075C495.784 126.075 494.534 126.425 493.384 127.125C492.284 127.775 491.409 128.65 490.759 129.75C490.109 130.85 489.784 132.075 489.784 133.425C489.784 134.725 490.109 135.95 490.759 137.1C491.409 138.2 492.284 139.075 493.384 139.725C494.534 140.375 495.784 140.7 497.134 140.7ZM527.584 177C524.884 177 522.384 176.325 520.084 174.975C517.834 173.625 516.034 171.825 514.684 169.575C513.334 167.275 512.659 164.775 512.659 162.075C512.659 159.325 513.334 156.825 514.684 154.575C516.034 152.325 517.834 150.525 520.084 149.175C522.334 147.825 524.834 147.15 527.584 147.15C530.284 147.15 532.759 147.825 535.009 149.175C537.309 150.475 539.134 152.25 540.484 154.5C541.884 156.75 542.584 159.25 542.584 162C542.584 164.8 541.884 167.325 540.484 169.575C539.134 171.825 537.334 173.625 535.084 174.975C532.834 176.325 530.334 177 527.584 177ZM527.584 169.35C528.934 169.35 530.159 169.025 531.259 168.375C532.409 167.725 533.309 166.85 533.959 165.75C534.609 164.6 534.934 163.375 534.934 162.075C534.934 160.725 534.609 159.5 533.959 158.4C533.309 157.3 532.409 156.425 531.259 155.775C530.159 155.125 528.934 154.8 527.584 154.8C526.284 154.8 525.059 155.125 523.909 155.775C522.809 156.425 521.934 157.3 521.284 158.4C520.634 159.5 520.309 160.725 520.309 162.075C520.309 163.375 520.634 164.6 521.284 165.75C521.934 166.85 522.809 167.725 523.909 168.375C525.059 169.025 526.284 169.35 527.584 169.35Z" fill="#1E96A3"/>
<defs>
<clipPath id="clip0">
<rect width="1440" height="275" fill="white"/>
</clipPath>
<clipPath id="clip1">
<rect width="1600" height="366.667" fill="white" transform="translate(-80 -45.8333)"/>
</clipPath>
</defs>
</svg>
