<svg width="100%" height="100%" viewBox="0 0 1440 420" fill="none" xmlns="http://www.w3.org/2000/svg">
<g clip-path="url(#clip0)">
<rect width="1440" height="420" fill="white"/>
<g clip-path="url(#clip1)">
<rect width="1600" height="800" transform="translate(-80 -350)" fill="white"/>
<rect x="-80" y="-350" width="1600" height="1200" fill="#FFF3F3"/>
<mask id="mask0" mask-type="alpha" maskUnits="userSpaceOnUse" x="-80" y="-350" width="1600" height="1200">
<rect x="-80" y="-350" width="1600" height="1200" fill="#F5F5F5"/>
</mask>
<g mask="url(#mask0)">
<path fill-rule="evenodd" clip-rule="evenodd" d="M75 -532C125.81 -532 167 -490.854 167 -440.098V4.09753C167 54.8539 125.81 96 75 96H-17V-440.098C-17 -490.854 24.1898 -532 75 -532Z" fill="#FFF3F3" stroke="#444B54" stroke-width="5"/>
<path fill-rule="evenodd" clip-rule="evenodd" d="M626 -256C676.81 -256 718 -214.852 718 -164.092V650.821C718 701.58 676.81 742.728 626 742.728C575.19 742.728 534 804 534 804V-164.092C534 -214.852 575.19 -256 626 -256Z" fill="#1E96A3" stroke="#444B54" stroke-width="5"/>
<path fill-rule="evenodd" clip-rule="evenodd" d="M626 -660C676.81 -660 718 -618.838 718 -568.062V247.124C718 297.9 676.81 339.062 626 339.062C575.19 339.062 534 431 534 431V-568.062C534 -618.838 575.19 -660 626 -660Z" fill="#FFF3F3" stroke="#444B54" stroke-width="5"/>
<path fill-rule="evenodd" clip-rule="evenodd" d="M316.858 -400.733V-406H534V638.968C534 689.796 492.922 731 442.25 731H258.75C208.078 731 167 689.796 167 638.968V-400.733H316.858Z" fill="#F3DDD7" stroke="#444B54" stroke-width="5"/>
<path fill-rule="evenodd" clip-rule="evenodd" d="M167 -406.259H534V-64.7412C534 -13.9928 492.922 27.147 442.25 27.147C391.578 27.147 350.5 68.2867 350.5 119.035V229.965C350.5 331.462 268.344 413.741 167 413.741V-406.259Z" fill="#C58E8F" stroke="#444B54" stroke-width="5"/>
<mask id="mask1" mask-type="alpha" maskUnits="userSpaceOnUse" x="164" y="-409" width="373" height="826">
<path fill-rule="evenodd" clip-rule="evenodd" d="M167 -406.259H534V-64.7412C534 -13.9928 492.922 27.147 442.25 27.147C391.578 27.147 350.5 68.2867 350.5 119.035V229.965C350.5 331.462 268.344 413.741 167 413.741V-406.259Z" fill="white"/>
<path fill-rule="evenodd" clip-rule="evenodd" d="M167 -406.259H534V-64.7412C534 -13.9928 492.922 27.147 442.25 27.147C391.578 27.147 350.5 68.2867 350.5 119.035V229.965C350.5 331.462 268.344 413.741 167 413.741V-406.259Z" stroke="white" stroke-width="5"/>
</mask>
<g mask="url(#mask1)">
</g>
<path fill-rule="evenodd" clip-rule="evenodd" d="M1086 95V623.124C1086 673.9 1044.81 715.062 994 715.062C960.127 715.062 929.46 745.708 902 807V16.6118C908.578 60.9674 946.815 95 993 95H1086Z" fill="#C18363" stroke="#444B54" stroke-width="5"/>
<path fill-rule="evenodd" clip-rule="evenodd" d="M993.908 279C1044.67 279 1085.82 320.112 1085.82 370.825V814.646C1085.82 865.36 1044.67 906.472 993.908 906.472C943.149 906.472 902 865.36 902 814.646V370.825C902 320.112 943.149 279 993.908 279Z" fill="#B7544A" stroke="#444B54" stroke-width="5"/>
<mask id="mask2" mask-type="alpha" maskUnits="userSpaceOnUse" x="899" y="276" width="190" height="633">
<path fill-rule="evenodd" clip-rule="evenodd" d="M993.908 279C1044.67 279 1085.82 320.112 1085.82 370.825V814.646C1085.82 865.36 1044.67 906.472 993.908 906.472C943.149 906.472 902 865.36 902 814.646V370.825C902 320.112 943.149 279 993.908 279Z" fill="white"/>
<path fill-rule="evenodd" clip-rule="evenodd" d="M993.908 279C1044.67 279 1085.82 320.112 1085.82 370.825V814.646C1085.82 865.36 1044.67 906.472 993.908 906.472C943.149 906.472 902 865.36 902 814.646V370.825C902 320.112 943.149 279 993.908 279Z" stroke="white" stroke-width="5"/>
</mask>
<g mask="url(#mask2)">
</g>
<path fill-rule="evenodd" clip-rule="evenodd" d="M74 338.741C65.1634 338.741 58 331.528 58 322.629C58 313.731 65.1634 306.517 74 306.517C82.8366 306.517 90 313.731 90 322.629C90 331.528 82.8366 338.741 74 338.741ZM74 417C65.1634 417 58 409.786 58 400.888C58 391.989 65.1634 384.776 74 384.776C82.8366 384.776 90 391.989 90 400.888C90 409.786 82.8366 417 74 417ZM74 182.224C65.1634 182.224 58 175.011 58 166.112C58 157.214 65.1634 150 74 150C82.8366 150 90 157.214 90 166.112C90 175.011 82.8366 182.224 74 182.224ZM74 260.483C65.1634 260.483 58 253.269 58 244.371C58 235.472 65.1634 228.259 74 228.259C82.8366 228.259 90 235.472 90 244.371C90 253.269 82.8366 260.483 74 260.483Z" fill="#1E96A3"/>
<path d="M74 336.241C66.5606 336.241 60.5 330.164 60.5 322.629H55.5C55.5 332.892 63.7663 341.241 74 341.241V336.241ZM60.5 322.629C60.5 315.095 66.5606 309.017 74 309.017V304.017C63.7663 304.017 55.5 312.367 55.5 322.629H60.5ZM74 309.017C81.4394 309.017 87.5 315.095 87.5 322.629H92.5C92.5 312.367 84.2337 304.017 74 304.017V309.017ZM87.5 322.629C87.5 330.164 81.4394 336.241 74 336.241V341.241C84.2337 341.241 92.5 332.892 92.5 322.629H87.5ZM74 414.5C66.5606 414.5 60.5 408.422 60.5 400.888H55.5C55.5 411.151 63.7663 419.5 74 419.5V414.5ZM60.5 400.888C60.5 393.354 66.5606 387.276 74 387.276V382.276C63.7663 382.276 55.5 390.625 55.5 400.888H60.5ZM74 387.276C81.4394 387.276 87.5 393.354 87.5 400.888H92.5C92.5 390.625 84.2337 382.276 74 382.276V387.276ZM87.5 400.888C87.5 408.422 81.4394 414.5 74 414.5V419.5C84.2337 419.5 92.5 411.151 92.5 400.888H87.5ZM74 179.724C66.5606 179.724 60.5 173.646 60.5 166.112H55.5C55.5 176.375 63.7663 184.724 74 184.724V179.724ZM60.5 166.112C60.5 158.578 66.5606 152.5 74 152.5V147.5C63.7663 147.5 55.5 155.849 55.5 166.112H60.5ZM74 152.5C81.4394 152.5 87.5 158.578 87.5 166.112H92.5C92.5 155.849 84.2337 147.5 74 147.5V152.5ZM87.5 166.112C87.5 173.646 81.4394 179.724 74 179.724V184.724C84.2337 184.724 92.5 176.375 92.5 166.112H87.5ZM74 257.983C66.5606 257.983 60.5 251.905 60.5 244.371H55.5C55.5 254.633 63.7663 262.983 74 262.983V257.983ZM60.5 244.371C60.5 236.836 66.5606 230.759 74 230.759V225.759C63.7663 225.759 55.5 234.108 55.5 244.371H60.5ZM74 230.759C81.4394 230.759 87.5 236.836 87.5 244.371H92.5C92.5 234.108 84.2337 225.759 74 225.759V230.759ZM87.5 244.371C87.5 251.905 81.4394 257.983 74 257.983V262.983C84.2337 262.983 92.5 254.633 92.5 244.371H87.5Z" fill="#444B54"/>
<path fill-rule="evenodd" clip-rule="evenodd" d="M1314.5 620C1312.02 620 1310.01 617.997 1310.01 615.527C1310.01 613.056 1312.02 611.054 1314.5 611.054C1316.99 611.054 1319 613.056 1319 615.527C1319 617.997 1316.99 620 1314.5 620ZM1314.5 588.688C1312.02 588.688 1310.01 586.685 1310.01 584.215C1310.01 581.744 1312.02 579.742 1314.5 579.742C1316.99 579.742 1319 581.744 1319 584.215C1319 586.685 1316.99 588.688 1314.5 588.688ZM1314.5 557.376C1312.02 557.376 1310.01 555.373 1310.01 552.903C1310.01 550.432 1312.02 548.43 1314.5 548.43C1316.99 548.43 1319 550.432 1319 552.903C1319 555.373 1316.99 557.376 1314.5 557.376ZM1314.5 526.064C1312.02 526.064 1310.01 524.061 1310.01 521.591C1310.01 519.12 1312.02 517.118 1314.5 517.118C1316.99 517.118 1319 519.12 1319 521.591C1319 524.061 1316.99 526.064 1314.5 526.064ZM1314.5 494.752C1312.02 494.752 1310.01 492.749 1310.01 490.279C1310.01 487.808 1312.02 485.806 1314.5 485.806C1316.99 485.806 1319 487.808 1319 490.279C1319 492.749 1316.99 494.752 1314.5 494.752ZM1314.5 463.44C1312.02 463.44 1310.01 461.437 1310.01 458.967C1310.01 456.496 1312.02 454.493 1314.5 454.493C1316.99 454.493 1319 456.496 1319 458.967C1319 461.437 1316.99 463.44 1314.5 463.44ZM1284.96 620C1282.48 620 1280.46 617.997 1280.46 615.527C1280.46 613.056 1282.48 611.054 1284.96 611.054C1287.44 611.054 1289.46 613.056 1289.46 615.527C1289.46 617.997 1287.44 620 1284.96 620ZM1284.96 588.688C1282.48 588.688 1280.46 586.685 1280.46 584.215C1280.46 581.744 1282.48 579.742 1284.96 579.742C1287.44 579.742 1289.46 581.744 1289.46 584.215C1289.46 586.685 1287.44 588.688 1284.96 588.688ZM1284.96 557.376C1282.48 557.376 1280.46 555.373 1280.46 552.903C1280.46 550.432 1282.48 548.43 1284.96 548.43C1287.44 548.43 1289.46 550.432 1289.46 552.903C1289.46 555.373 1287.44 557.376 1284.96 557.376ZM1284.96 526.064C1282.48 526.064 1280.46 524.061 1280.46 521.591C1280.46 519.12 1282.48 517.118 1284.96 517.118C1287.44 517.118 1289.46 519.12 1289.46 521.591C1289.46 524.061 1287.44 526.064 1284.96 526.064ZM1284.96 494.752C1282.48 494.752 1280.46 492.749 1280.46 490.279C1280.46 487.808 1282.48 485.806 1284.96 485.806C1287.44 485.806 1289.46 487.808 1289.46 490.279C1289.46 492.749 1287.44 494.752 1284.96 494.752ZM1284.96 463.44C1282.48 463.44 1280.46 461.437 1280.46 458.967C1280.46 456.496 1282.48 454.493 1284.96 454.493C1287.44 454.493 1289.46 456.496 1289.46 458.967C1289.46 461.437 1287.44 463.44 1284.96 463.44ZM1255.41 620C1252.93 620 1250.92 617.997 1250.92 615.527C1250.92 613.056 1252.93 611.054 1255.41 611.054C1257.9 611.054 1259.91 613.056 1259.91 615.527C1259.91 617.997 1257.9 620 1255.41 620ZM1255.41 588.688C1252.93 588.688 1250.92 586.685 1250.92 584.215C1250.92 581.744 1252.93 579.742 1255.41 579.742C1257.9 579.742 1259.91 581.744 1259.91 584.215C1259.91 586.685 1257.9 588.688 1255.41 588.688ZM1255.41 557.376C1252.93 557.376 1250.92 555.373 1250.92 552.903C1250.92 550.432 1252.93 548.43 1255.41 548.43C1257.9 548.43 1259.91 550.432 1259.91 552.903C1259.91 555.373 1257.9 557.376 1255.41 557.376ZM1255.41 526.064C1252.93 526.064 1250.92 524.061 1250.92 521.591C1250.92 519.12 1252.93 517.118 1255.41 517.118C1257.9 517.118 1259.91 519.12 1259.91 521.591C1259.91 524.061 1257.9 526.064 1255.41 526.064ZM1255.41 494.752C1252.93 494.752 1250.92 492.749 1250.92 490.279C1250.92 487.808 1252.93 485.806 1255.41 485.806C1257.9 485.806 1259.91 487.808 1259.91 490.279C1259.91 492.749 1257.9 494.752 1255.41 494.752ZM1255.41 463.44C1252.93 463.44 1250.92 461.437 1250.92 458.967C1250.92 456.496 1252.93 454.493 1255.41 454.493C1257.9 454.493 1259.91 456.496 1259.91 458.967C1259.91 461.437 1257.9 463.44 1255.41 463.44ZM1224.59 620C1222.1 620 1220.09 617.997 1220.09 615.527C1220.09 613.056 1222.1 611.054 1224.59 611.054C1227.07 611.054 1229.08 613.056 1229.08 615.527C1229.08 617.997 1227.07 620 1224.59 620ZM1224.59 588.688C1222.1 588.688 1220.09 586.685 1220.09 584.215C1220.09 581.744 1222.1 579.742 1224.59 579.742C1227.07 579.742 1229.08 581.744 1229.08 584.215C1229.08 586.685 1227.07 588.688 1224.59 588.688ZM1224.59 557.376C1222.1 557.376 1220.09 555.373 1220.09 552.903C1220.09 550.432 1222.1 548.43 1224.59 548.43C1227.07 548.43 1229.08 550.432 1229.08 552.903C1229.08 555.373 1227.07 557.376 1224.59 557.376ZM1224.59 526.064C1222.1 526.064 1220.09 524.061 1220.09 521.591C1220.09 519.12 1222.1 517.118 1224.59 517.118C1227.07 517.118 1229.08 519.12 1229.08 521.591C1229.08 524.061 1227.07 526.064 1224.59 526.064ZM1224.59 494.752C1222.1 494.752 1220.09 492.749 1220.09 490.279C1220.09 487.808 1222.1 485.806 1224.59 485.806C1227.07 485.806 1229.08 487.808 1229.08 490.279C1229.08 492.749 1227.07 494.752 1224.59 494.752ZM1224.59 463.44C1222.1 463.44 1220.09 461.437 1220.09 458.967C1220.09 456.496 1222.1 454.493 1224.59 454.493C1227.07 454.493 1229.08 456.496 1229.08 458.967C1229.08 461.437 1227.07 463.44 1224.59 463.44ZM1195.04 620C1192.56 620 1190.54 617.997 1190.54 615.527C1190.54 613.056 1192.56 611.054 1195.04 611.054C1197.52 611.054 1199.54 613.056 1199.54 615.527C1199.54 617.997 1197.52 620 1195.04 620ZM1195.04 588.688C1192.56 588.688 1190.54 586.685 1190.54 584.215C1190.54 581.744 1192.56 579.742 1195.04 579.742C1197.52 579.742 1199.54 581.744 1199.54 584.215C1199.54 586.685 1197.52 588.688 1195.04 588.688ZM1195.04 557.376C1192.56 557.376 1190.54 555.373 1190.54 552.903C1190.54 550.432 1192.56 548.43 1195.04 548.43C1197.52 548.43 1199.54 550.432 1199.54 552.903C1199.54 555.373 1197.52 557.376 1195.04 557.376ZM1195.04 526.064C1192.56 526.064 1190.54 524.061 1190.54 521.591C1190.54 519.12 1192.56 517.118 1195.04 517.118C1197.52 517.118 1199.54 519.12 1199.54 521.591C1199.54 524.061 1197.52 526.064 1195.04 526.064ZM1195.04 494.752C1192.56 494.752 1190.54 492.749 1190.54 490.279C1190.54 487.808 1192.56 485.806 1195.04 485.806C1197.52 485.806 1199.54 487.808 1199.54 490.279C1199.54 492.749 1197.52 494.752 1195.04 494.752ZM1195.04 463.44C1192.56 463.44 1190.54 461.437 1190.54 458.967C1190.54 456.496 1192.56 454.493 1195.04 454.493C1197.52 454.493 1199.54 456.496 1199.54 458.967C1199.54 461.437 1197.52 463.44 1195.04 463.44ZM1165.5 620C1163.01 620 1161 617.997 1161 615.527C1161 613.056 1163.01 611.054 1165.5 611.054C1167.98 611.054 1169.99 613.056 1169.99 615.527C1169.99 617.997 1167.98 620 1165.5 620ZM1165.5 588.688C1163.01 588.688 1161 586.685 1161 584.215C1161 581.744 1163.01 579.742 1165.5 579.742C1167.98 579.742 1169.99 581.744 1169.99 584.215C1169.99 586.685 1167.98 588.688 1165.5 588.688ZM1165.5 557.376C1163.01 557.376 1161 555.373 1161 552.903C1161 550.432 1163.01 548.43 1165.5 548.43C1167.98 548.43 1169.99 550.432 1169.99 552.903C1169.99 555.373 1167.98 557.376 1165.5 557.376ZM1165.5 526.064C1163.01 526.064 1161 524.061 1161 521.591C1161 519.12 1163.01 517.118 1165.5 517.118C1167.98 517.118 1169.99 519.12 1169.99 521.591C1169.99 524.061 1167.98 526.064 1165.5 526.064ZM1165.5 494.752C1163.01 494.752 1161 492.749 1161 490.279C1161 487.808 1163.01 485.806 1165.5 485.806C1167.98 485.806 1169.99 487.808 1169.99 490.279C1169.99 492.749 1167.98 494.752 1165.5 494.752ZM1165.5 463.44C1163.01 463.44 1161 461.437 1161 458.967C1161 456.496 1163.01 454.493 1165.5 454.493C1167.98 454.493 1169.99 456.496 1169.99 458.967C1169.99 461.437 1167.98 463.44 1165.5 463.44ZM1314.5 431.507C1312.02 431.507 1310.01 429.504 1310.01 427.033C1310.01 424.563 1312.02 422.56 1314.5 422.56C1316.99 422.56 1319 424.563 1319 427.033C1319 429.504 1316.99 431.507 1314.5 431.507ZM1314.5 400.194C1312.02 400.194 1310.01 398.192 1310.01 395.721C1310.01 393.251 1312.02 391.248 1314.5 391.248C1316.99 391.248 1319 393.251 1319 395.721C1319 398.192 1316.99 400.194 1314.5 400.194ZM1314.5 368.882C1312.02 368.882 1310.01 366.88 1310.01 364.409C1310.01 361.939 1312.02 359.936 1314.5 359.936C1316.99 359.936 1319 361.939 1319 364.409C1319 366.88 1316.99 368.882 1314.5 368.882ZM1314.5 337.57C1312.02 337.57 1310.01 335.568 1310.01 333.097C1310.01 330.627 1312.02 328.624 1314.5 328.624C1316.99 328.624 1319 330.627 1319 333.097C1319 335.568 1316.99 337.57 1314.5 337.57ZM1314.5 306.258C1312.02 306.258 1310.01 304.256 1310.01 301.785C1310.01 299.315 1312.02 297.312 1314.5 297.312C1316.99 297.312 1319 299.315 1319 301.785C1319 304.256 1316.99 306.258 1314.5 306.258ZM1314.5 274.946C1312.02 274.946 1310.01 272.944 1310.01 270.473C1310.01 268.003 1312.02 266 1314.5 266C1316.99 266 1319 268.003 1319 270.473C1319 272.944 1316.99 274.946 1314.5 274.946ZM1284.96 431.507C1282.48 431.507 1280.46 429.504 1280.46 427.033C1280.46 424.563 1282.48 422.56 1284.96 422.56C1287.44 422.56 1289.46 424.563 1289.46 427.033C1289.46 429.504 1287.44 431.507 1284.96 431.507ZM1284.96 400.194C1282.48 400.194 1280.46 398.192 1280.46 395.721C1280.46 393.251 1282.48 391.248 1284.96 391.248C1287.44 391.248 1289.46 393.251 1289.46 395.721C1289.46 398.192 1287.44 400.194 1284.96 400.194ZM1284.96 368.882C1282.48 368.882 1280.46 366.88 1280.46 364.409C1280.46 361.939 1282.48 359.936 1284.96 359.936C1287.44 359.936 1289.46 361.939 1289.46 364.409C1289.46 366.88 1287.44 368.882 1284.96 368.882ZM1284.96 337.57C1282.48 337.57 1280.46 335.568 1280.46 333.097C1280.46 330.627 1282.48 328.624 1284.96 328.624C1287.44 328.624 1289.46 330.627 1289.46 333.097C1289.46 335.568 1287.44 337.57 1284.96 337.57ZM1284.96 306.258C1282.48 306.258 1280.46 304.256 1280.46 301.785C1280.46 299.315 1282.48 297.312 1284.96 297.312C1287.44 297.312 1289.46 299.315 1289.46 301.785C1289.46 304.256 1287.44 306.258 1284.96 306.258ZM1284.96 274.946C1282.48 274.946 1280.46 272.944 1280.46 270.473C1280.46 268.003 1282.48 266 1284.96 266C1287.44 266 1289.46 268.003 1289.46 270.473C1289.46 272.944 1287.44 274.946 1284.96 274.946ZM1255.41 431.507C1252.93 431.507 1250.92 429.504 1250.92 427.033C1250.92 424.563 1252.93 422.56 1255.41 422.56C1257.9 422.56 1259.91 424.563 1259.91 427.033C1259.91 429.504 1257.9 431.507 1255.41 431.507ZM1255.41 400.194C1252.93 400.194 1250.92 398.192 1250.92 395.721C1250.92 393.251 1252.93 391.248 1255.41 391.248C1257.9 391.248 1259.91 393.251 1259.91 395.721C1259.91 398.192 1257.9 400.194 1255.41 400.194ZM1255.41 368.882C1252.93 368.882 1250.92 366.88 1250.92 364.409C1250.92 361.939 1252.93 359.936 1255.41 359.936C1257.9 359.936 1259.91 361.939 1259.91 364.409C1259.91 366.88 1257.9 368.882 1255.41 368.882ZM1255.41 337.57C1252.93 337.57 1250.92 335.568 1250.92 333.097C1250.92 330.627 1252.93 328.624 1255.41 328.624C1257.9 328.624 1259.91 330.627 1259.91 333.097C1259.91 335.568 1257.9 337.57 1255.41 337.57ZM1255.41 306.258C1252.93 306.258 1250.92 304.256 1250.92 301.785C1250.92 299.315 1252.93 297.312 1255.41 297.312C1257.9 297.312 1259.91 299.315 1259.91 301.785C1259.91 304.256 1257.9 306.258 1255.41 306.258ZM1255.41 274.946C1252.93 274.946 1250.92 272.944 1250.92 270.473C1250.92 268.003 1252.93 266 1255.41 266C1257.9 266 1259.91 268.003 1259.91 270.473C1259.91 272.944 1257.9 274.946 1255.41 274.946ZM1224.59 431.507C1222.1 431.507 1220.09 429.504 1220.09 427.033C1220.09 424.563 1222.1 422.56 1224.59 422.56C1227.07 422.56 1229.08 424.563 1229.08 427.033C1229.08 429.504 1227.07 431.507 1224.59 431.507ZM1224.59 400.194C1222.1 400.194 1220.09 398.192 1220.09 395.721C1220.09 393.251 1222.1 391.248 1224.59 391.248C1227.07 391.248 1229.08 393.251 1229.08 395.721C1229.08 398.192 1227.07 400.194 1224.59 400.194ZM1224.59 368.882C1222.1 368.882 1220.09 366.88 1220.09 364.409C1220.09 361.939 1222.1 359.936 1224.59 359.936C1227.07 359.936 1229.08 361.939 1229.08 364.409C1229.08 366.88 1227.07 368.882 1224.59 368.882ZM1224.59 337.57C1222.1 337.57 1220.09 335.568 1220.09 333.097C1220.09 330.627 1222.1 328.624 1224.59 328.624C1227.07 328.624 1229.08 330.627 1229.08 333.097C1229.08 335.568 1227.07 337.57 1224.59 337.57ZM1224.59 306.258C1222.1 306.258 1220.09 304.256 1220.09 301.785C1220.09 299.315 1222.1 297.312 1224.59 297.312C1227.07 297.312 1229.08 299.315 1229.08 301.785C1229.08 304.256 1227.07 306.258 1224.59 306.258ZM1224.59 274.946C1222.1 274.946 1220.09 272.944 1220.09 270.473C1220.09 268.003 1222.1 266 1224.59 266C1227.07 266 1229.08 268.003 1229.08 270.473C1229.08 272.944 1227.07 274.946 1224.59 274.946ZM1195.04 431.507C1192.56 431.507 1190.54 429.504 1190.54 427.033C1190.54 424.563 1192.56 422.56 1195.04 422.56C1197.52 422.56 1199.54 424.563 1199.54 427.033C1199.54 429.504 1197.52 431.507 1195.04 431.507ZM1195.04 400.194C1192.56 400.194 1190.54 398.192 1190.54 395.721C1190.54 393.251 1192.56 391.248 1195.04 391.248C1197.52 391.248 1199.54 393.251 1199.54 395.721C1199.54 398.192 1197.52 400.194 1195.04 400.194ZM1195.04 368.882C1192.56 368.882 1190.54 366.88 1190.54 364.409C1190.54 361.939 1192.56 359.936 1195.04 359.936C1197.52 359.936 1199.54 361.939 1199.54 364.409C1199.54 366.88 1197.52 368.882 1195.04 368.882ZM1195.04 337.57C1192.56 337.57 1190.54 335.568 1190.54 333.097C1190.54 330.627 1192.56 328.624 1195.04 328.624C1197.52 328.624 1199.54 330.627 1199.54 333.097C1199.54 335.568 1197.52 337.57 1195.04 337.57ZM1195.04 306.258C1192.56 306.258 1190.54 304.256 1190.54 301.785C1190.54 299.315 1192.56 297.312 1195.04 297.312C1197.52 297.312 1199.54 299.315 1199.54 301.785C1199.54 304.256 1197.52 306.258 1195.04 306.258ZM1195.04 274.946C1192.56 274.946 1190.54 272.944 1190.54 270.473C1190.54 268.003 1192.56 266 1195.04 266C1197.52 266 1199.54 268.003 1199.54 270.473C1199.54 272.944 1197.52 274.946 1195.04 274.946ZM1165.5 431.507C1163.01 431.507 1161 429.504 1161 427.033C1161 424.563 1163.01 422.56 1165.5 422.56C1167.98 422.56 1169.99 424.563 1169.99 427.033C1169.99 429.504 1167.98 431.507 1165.5 431.507ZM1165.5 400.194C1163.01 400.194 1161 398.192 1161 395.721C1161 393.251 1163.01 391.248 1165.5 391.248C1167.98 391.248 1169.99 393.251 1169.99 395.721C1169.99 398.192 1167.98 400.194 1165.5 400.194ZM1165.5 368.882C1163.01 368.882 1161 366.88 1161 364.409C1161 361.939 1163.01 359.936 1165.5 359.936C1167.98 359.936 1169.99 361.939 1169.99 364.409C1169.99 366.88 1167.98 368.882 1165.5 368.882ZM1165.5 337.57C1163.01 337.57 1161 335.568 1161 333.097C1161 330.627 1163.01 328.624 1165.5 328.624C1167.98 328.624 1169.99 330.627 1169.99 333.097C1169.99 335.568 1167.98 337.57 1165.5 337.57ZM1165.5 306.258C1163.01 306.258 1161 304.256 1161 301.785C1161 299.315 1163.01 297.312 1165.5 297.312C1167.98 297.312 1169.99 299.315 1169.99 301.785C1169.99 304.256 1167.98 306.258 1165.5 306.258ZM1165.5 274.946C1163.01 274.946 1161 272.944 1161 270.473C1161 268.003 1163.01 266 1165.5 266C1167.98 266 1169.99 268.003 1169.99 270.473C1169.99 272.944 1167.98 274.946 1165.5 274.946Z" fill="#B7544A"/>
<path fill-rule="evenodd" clip-rule="evenodd" d="M626.719 485.301C750.276 485.301 850.438 385.17 850.438 261.651C850.438 138.132 750.276 38 626.719 38C503.163 38 403 138.132 403 261.651C403 385.17 503.163 485.301 626.719 485.301Z" fill="#FFF3F3" stroke="#444B54" stroke-width="5"/>
<path fill-rule="evenodd" clip-rule="evenodd" d="M691.077 280.033C745.239 280.033 789.145 236.139 789.145 181.994C789.145 127.849 745.239 83.9556 691.077 83.9556C636.915 83.9556 593.008 127.849 593.008 181.994C593.008 236.139 636.915 280.033 691.077 280.033Z" fill="#1E96A3" stroke="#444B54" stroke-width="5"/>
<path fill-rule="evenodd" clip-rule="evenodd" d="M1011.5 49C1050.44 49 1082 17.4361 1082 -21.5C1082 -60.4361 1050.44 -92 1011.5 -92C972.564 -92 941 -60.4361 941 -21.5C941 17.4361 972.564 49 1011.5 49Z" fill="#F3DDD7" stroke="#444B54" stroke-width="5"/>
<path fill-rule="evenodd" clip-rule="evenodd" d="M246.5 51C265.554 51 281 35.5538 281 16.5C281 -2.55382 265.554 -18 246.5 -18C227.446 -18 212 -2.55382 212 16.5C212 35.5538 227.446 51 246.5 51Z" fill="#FFF3F3" stroke="#444B54" stroke-width="5"/>
<path fill-rule="evenodd" clip-rule="evenodd" d="M1350.74 -129C1254.23 -129 1176 -50.7906 1176 45.6855C1176 142.162 1254.23 220.371 1350.74 220.371C1447.24 220.371 1525.48 142.162 1525.48 45.6855C1525.48 -50.7906 1447.24 -129 1350.74 -129Z" fill="#1E96A3" stroke="#444B54" stroke-width="5"/>
<mask id="mask3" mask-type="alpha" maskUnits="userSpaceOnUse" x="1173" y="-132" width="355" height="355">
<path fill-rule="evenodd" clip-rule="evenodd" d="M1350.74 -129C1254.23 -129 1176 -50.7906 1176 45.6855C1176 142.162 1254.23 220.371 1350.74 220.371C1447.24 220.371 1525.48 142.162 1525.48 45.6855C1525.48 -50.7906 1447.24 -129 1350.74 -129Z" fill="white"/>
<path fill-rule="evenodd" clip-rule="evenodd" d="M1350.74 -129C1254.23 -129 1176 -50.7906 1176 45.6855C1176 142.162 1254.23 220.371 1350.74 220.371C1447.24 220.371 1525.48 142.162 1525.48 45.6855C1525.48 -50.7906 1447.24 -129 1350.74 -129Z" stroke="white" stroke-width="5"/>
</mask>
<g mask="url(#mask3)">
<path fill-rule="evenodd" clip-rule="evenodd" d="M982.867 232.63L982.867 -803.227C982.867 -858.455 1027.64 -903.227 1082.87 -903.227L1166.8 -903.227L1250.74 -903.227C1305.97 -903.227 1350.74 -858.456 1350.74 -803.227L1350.74 232.63L982.867 232.63Z" fill="#FFF3F3" stroke="#444B54" stroke-width="5"/>
<rect x="1350.74" y="47.2178" width="174.739" height="297.272" transform="rotate(-180 1350.74 47.2178)" fill="#F3DDD7" stroke="#444B54" stroke-width="5"/>
</g>
</g>
</g>
<rect x="150" y="125" width="415" height="150" fill="white"/>
<path d="M250.042 157C249.658 157 249.298 156.892 248.962 156.676C248.65 156.436 248.434 156.148 248.314 155.812L242.986 139.828C242.794 139.084 242.794 138.484 242.986 138.028C243.202 137.548 243.658 137.308 244.354 137.308C244.81 137.308 245.182 137.44 245.47 137.704C245.782 137.944 246.034 138.364 246.226 138.964L250.762 153.148H249.502L253.786 138.676C253.906 138.268 254.11 137.944 254.398 137.704C254.686 137.44 255.082 137.308 255.586 137.308C256.066 137.308 256.45 137.44 256.738 137.704C257.05 137.944 257.254 138.268 257.35 138.676L260.842 152.284H260.302L264.55 138.964C264.886 137.86 265.51 137.308 266.422 137.308C267.094 137.308 267.55 137.548 267.79 138.028C268.03 138.484 268.018 139.084 267.754 139.828L262.426 155.812C262.33 156.148 262.126 156.436 261.814 156.676C261.502 156.892 261.142 157 260.734 157C260.35 157 259.99 156.892 259.654 156.676C259.318 156.436 259.102 156.148 259.006 155.812L255.298 142.096H255.658L251.77 155.812C251.674 156.148 251.458 156.436 251.122 156.676C250.81 156.892 250.45 157 250.042 157ZM280.246 157.144C278.254 157.144 276.478 156.724 274.918 155.884C273.382 155.02 272.17 153.844 271.282 152.356C270.418 150.844 269.986 149.116 269.986 147.172C269.986 145.204 270.394 143.476 271.21 141.988C272.05 140.476 273.202 139.3 274.666 138.46C276.13 137.596 277.81 137.164 279.706 137.164C281.578 137.164 283.186 137.584 284.53 138.424C285.874 139.24 286.894 140.38 287.59 141.844C288.31 143.284 288.67 144.952 288.67 146.848C288.67 147.304 288.514 147.688 288.202 148C287.89 148.288 287.494 148.432 287.014 148.432H272.506V145.552H286.906L285.43 146.56C285.406 145.36 285.166 144.292 284.71 143.356C284.254 142.396 283.606 141.64 282.766 141.088C281.926 140.536 280.906 140.26 279.706 140.26C278.338 140.26 277.162 140.56 276.178 141.16C275.218 141.76 274.486 142.588 273.982 143.644C273.478 144.676 273.226 145.852 273.226 147.172C273.226 148.492 273.526 149.668 274.126 150.7C274.726 151.732 275.554 152.548 276.61 153.148C277.666 153.748 278.878 154.048 280.246 154.048C280.99 154.048 281.746 153.916 282.514 153.652C283.306 153.364 283.942 153.04 284.422 152.68C284.782 152.416 285.166 152.284 285.574 152.284C286.006 152.26 286.378 152.38 286.69 152.644C287.098 153.004 287.314 153.4 287.338 153.832C287.362 154.264 287.17 154.636 286.762 154.948C285.946 155.596 284.926 156.124 283.702 156.532C282.502 156.94 281.35 157.144 280.246 157.144ZM311.064 157.144C309.384 157.144 307.824 156.892 306.384 156.388C304.968 155.86 303.864 155.2 303.072 154.408C302.712 154.024 302.556 153.592 302.604 153.112C302.676 152.608 302.916 152.2 303.324 151.888C303.804 151.504 304.272 151.348 304.728 151.42C305.208 151.468 305.616 151.672 305.952 152.032C306.36 152.488 307.008 152.92 307.896 153.328C308.808 153.712 309.816 153.904 310.92 153.904C312.312 153.904 313.368 153.676 314.088 153.22C314.832 152.764 315.216 152.176 315.24 151.456C315.264 150.736 314.916 150.112 314.196 149.584C313.5 149.056 312.216 148.624 310.344 148.288C307.92 147.808 306.156 147.088 305.052 146.128C303.972 145.168 303.432 143.992 303.432 142.6C303.432 141.376 303.792 140.368 304.512 139.576C305.232 138.76 306.156 138.16 307.284 137.776C308.412 137.368 309.588 137.164 310.812 137.164C312.396 137.164 313.8 137.416 315.024 137.92C316.248 138.424 317.22 139.12 317.94 140.008C318.276 140.392 318.432 140.8 318.408 141.232C318.384 141.64 318.18 141.988 317.796 142.276C317.412 142.54 316.956 142.624 316.428 142.528C315.9 142.432 315.456 142.216 315.096 141.88C314.496 141.304 313.848 140.908 313.152 140.692C312.456 140.476 311.652 140.368 310.74 140.368C309.684 140.368 308.784 140.548 308.04 140.908C307.32 141.268 306.96 141.796 306.96 142.492C306.96 142.924 307.068 143.32 307.284 143.68C307.524 144.016 307.98 144.328 308.652 144.616C309.324 144.88 310.308 145.144 311.604 145.408C313.404 145.768 314.82 146.224 315.852 146.776C316.908 147.328 317.664 147.976 318.12 148.72C318.576 149.44 318.804 150.28 318.804 151.24C318.804 152.344 318.504 153.34 317.904 154.228C317.328 155.116 316.464 155.824 315.312 156.352C314.184 156.88 312.768 157.144 311.064 157.144ZM332.699 157.144C330.707 157.144 328.931 156.724 327.371 155.884C325.835 155.02 324.623 153.844 323.735 152.356C322.871 150.844 322.439 149.116 322.439 147.172C322.439 145.204 322.847 143.476 323.663 141.988C324.503 140.476 325.655 139.3 327.119 138.46C328.583 137.596 330.263 137.164 332.159 137.164C334.031 137.164 335.639 137.584 336.983 138.424C338.327 139.24 339.347 140.38 340.043 141.844C340.763 143.284 341.123 144.952 341.123 146.848C341.123 147.304 340.967 147.688 340.655 148C340.343 148.288 339.947 148.432 339.467 148.432H324.959V145.552H339.359L337.883 146.56C337.859 145.36 337.619 144.292 337.163 143.356C336.707 142.396 336.059 141.64 335.219 141.088C334.379 140.536 333.359 140.26 332.159 140.26C330.791 140.26 329.615 140.56 328.631 141.16C327.671 141.76 326.939 142.588 326.435 143.644C325.931 144.676 325.679 145.852 325.679 147.172C325.679 148.492 325.979 149.668 326.579 150.7C327.179 151.732 328.007 152.548 329.063 153.148C330.119 153.748 331.331 154.048 332.699 154.048C333.443 154.048 334.199 153.916 334.967 153.652C335.759 153.364 336.395 153.04 336.875 152.68C337.235 152.416 337.619 152.284 338.027 152.284C338.459 152.26 338.831 152.38 339.143 152.644C339.551 153.004 339.767 153.4 339.791 153.832C339.815 154.264 339.623 154.636 339.215 154.948C338.399 155.596 337.379 156.124 336.155 156.532C334.955 156.94 333.803 157.144 332.699 157.144ZM347.57 144.688C347.57 143.248 347.918 141.964 348.614 140.836C349.334 139.684 350.294 138.772 351.494 138.1C352.694 137.428 354.014 137.092 355.454 137.092C356.894 137.092 357.962 137.332 358.658 137.812C359.378 138.268 359.654 138.82 359.486 139.468C359.414 139.804 359.27 140.068 359.054 140.26C358.862 140.428 358.634 140.536 358.37 140.584C358.106 140.632 357.818 140.62 357.506 140.548C355.97 140.236 354.59 140.212 353.366 140.476C352.142 140.74 351.17 141.232 350.45 141.952C349.754 142.672 349.406 143.584 349.406 144.688H347.57ZM347.606 157C347.03 157 346.586 156.856 346.274 156.568C345.962 156.256 345.806 155.8 345.806 155.2V139.108C345.806 138.532 345.962 138.088 346.274 137.776C346.586 137.464 347.03 137.308 347.606 137.308C348.206 137.308 348.65 137.464 348.938 137.776C349.25 138.064 349.406 138.508 349.406 139.108V155.2C349.406 155.776 349.25 156.22 348.938 156.532C348.65 156.844 348.206 157 347.606 157ZM369.974 156.964C369.23 156.964 368.654 156.568 368.246 155.776L360.614 139.684C360.422 139.276 360.398 138.88 360.542 138.496C360.71 138.088 361.022 137.776 361.478 137.56C361.886 137.344 362.294 137.308 362.702 137.452C363.134 137.596 363.458 137.872 363.674 138.28L370.802 153.652H369.074L376.13 138.28C376.346 137.872 376.67 137.596 377.102 137.452C377.558 137.308 378.014 137.344 378.47 137.56C378.902 137.752 379.19 138.052 379.334 138.46C379.478 138.868 379.454 139.276 379.262 139.684L371.63 155.776C371.27 156.568 370.718 156.964 369.974 156.964ZM391.586 157.144C389.594 157.144 387.818 156.724 386.258 155.884C384.722 155.02 383.51 153.844 382.622 152.356C381.758 150.844 381.326 149.116 381.326 147.172C381.326 145.204 381.734 143.476 382.55 141.988C383.39 140.476 384.542 139.3 386.006 138.46C387.47 137.596 389.15 137.164 391.046 137.164C392.918 137.164 394.526 137.584 395.87 138.424C397.214 139.24 398.234 140.38 398.93 141.844C399.65 143.284 400.01 144.952 400.01 146.848C400.01 147.304 399.854 147.688 399.542 148C399.23 148.288 398.834 148.432 398.354 148.432H383.846V145.552H398.246L396.77 146.56C396.746 145.36 396.506 144.292 396.05 143.356C395.594 142.396 394.946 141.64 394.106 141.088C393.266 140.536 392.246 140.26 391.046 140.26C389.678 140.26 388.502 140.56 387.518 141.16C386.558 141.76 385.826 142.588 385.322 143.644C384.818 144.676 384.566 145.852 384.566 147.172C384.566 148.492 384.866 149.668 385.466 150.7C386.066 151.732 386.894 152.548 387.95 153.148C389.006 153.748 390.218 154.048 391.586 154.048C392.33 154.048 393.086 153.916 393.854 153.652C394.646 153.364 395.282 153.04 395.762 152.68C396.122 152.416 396.506 152.284 396.914 152.284C397.346 152.26 397.718 152.38 398.03 152.644C398.438 153.004 398.654 153.4 398.678 153.832C398.702 154.264 398.51 154.636 398.102 154.948C397.286 155.596 396.266 156.124 395.042 156.532C393.842 156.94 392.69 157.144 391.586 157.144ZM287.88 211.192C285.288 211.192 283 210.632 281.016 209.512C279.032 208.36 277.464 206.792 276.312 204.808C275.192 202.792 274.632 200.488 274.632 197.896C274.632 195.272 275.192 192.968 276.312 190.984C277.464 188.968 279.032 187.4 281.016 186.28C283 185.128 285.288 184.552 287.88 184.552C290.44 184.552 292.712 185.128 294.696 186.28C296.68 187.4 298.232 188.968 299.352 190.984C300.504 192.968 301.08 195.272 301.08 197.896C301.08 200.488 300.52 202.792 299.4 204.808C298.28 206.792 296.728 208.36 294.744 209.512C292.76 210.632 290.472 211.192 287.88 211.192ZM287.88 206.872C289.544 206.872 291.016 206.488 292.296 205.72C293.576 204.952 294.568 203.896 295.272 202.552C296.008 201.208 296.376 199.656 296.376 197.896C296.376 196.136 296.008 194.584 295.272 193.24C294.568 191.864 293.576 190.792 292.296 190.024C291.016 189.256 289.544 188.872 287.88 188.872C286.216 188.872 284.744 189.256 283.464 190.024C282.184 190.792 281.176 191.864 280.44 193.24C279.704 194.584 279.336 196.136 279.336 197.896C279.336 199.656 279.704 201.208 280.44 202.552C281.176 203.896 282.184 204.952 283.464 205.72C284.744 206.488 286.216 206.872 287.88 206.872ZM330.543 211.048C329.839 211.048 329.247 210.824 328.767 210.376C328.319 209.896 328.095 209.304 328.095 208.6V196.792C328.095 194.968 327.759 193.48 327.087 192.328C326.415 191.176 325.503 190.328 324.351 189.784C323.231 189.208 321.935 188.92 320.463 188.92C319.119 188.92 317.903 189.192 316.815 189.736C315.727 190.28 314.863 191.016 314.223 191.944C313.583 192.84 313.263 193.88 313.263 195.064H310.239C310.239 193.048 310.719 191.256 311.679 189.688C312.671 188.088 314.015 186.824 315.711 185.896C317.407 184.968 319.311 184.504 321.423 184.504C323.631 184.504 325.599 184.984 327.327 185.944C329.087 186.872 330.463 188.248 331.455 190.072C332.479 191.896 332.991 194.136 332.991 196.792V208.6C332.991 209.304 332.751 209.896 332.271 210.376C331.823 210.824 331.247 211.048 330.543 211.048ZM310.815 211.048C310.111 211.048 309.519 210.824 309.039 210.376C308.591 209.896 308.367 209.304 308.367 208.6V187.192C308.367 186.456 308.591 185.864 309.039 185.416C309.519 184.968 310.111 184.744 310.815 184.744C311.551 184.744 312.143 184.968 312.591 185.416C313.039 185.864 313.263 186.456 313.263 187.192V208.6C313.263 209.304 313.039 209.896 312.591 210.376C312.143 210.824 311.551 211.048 310.815 211.048ZM366.092 211.192C363.756 211.192 361.66 210.616 359.804 209.464C357.948 208.28 356.476 206.696 355.388 204.712C354.332 202.696 353.804 200.424 353.804 197.896C353.804 195.368 354.38 193.096 355.532 191.08C356.716 189.064 358.3 187.48 360.284 186.328C362.3 185.144 364.556 184.552 367.052 184.552C369.548 184.552 371.788 185.144 373.772 186.328C375.756 187.48 377.324 189.064 378.476 191.08C379.66 193.096 380.252 195.368 380.252 197.896H378.38C378.38 200.424 377.836 202.696 376.748 204.712C375.692 206.696 374.236 208.28 372.38 209.464C370.524 210.616 368.428 211.192 366.092 211.192ZM367.052 206.872C368.684 206.872 370.14 206.488 371.42 205.72C372.7 204.92 373.708 203.848 374.444 202.504C375.18 201.128 375.548 199.592 375.548 197.896C375.548 196.168 375.18 194.632 374.444 193.288C373.708 191.912 372.7 190.84 371.42 190.072C370.14 189.272 368.684 188.872 367.052 188.872C365.452 188.872 363.996 189.272 362.684 190.072C361.404 190.84 360.38 191.912 359.612 193.288C358.876 194.632 358.508 196.168 358.508 197.896C358.508 199.592 358.876 201.128 359.612 202.504C360.38 203.848 361.404 204.92 362.684 205.72C363.996 206.488 365.452 206.872 367.052 206.872ZM377.804 211.048C377.1 211.048 376.508 210.824 376.028 210.376C375.58 209.896 375.356 209.304 375.356 208.6V201.256L376.268 196.168L380.252 197.896V208.6C380.252 209.304 380.012 209.896 379.532 210.376C379.084 210.824 378.508 211.048 377.804 211.048ZM393.779 211C392.371 211 391.123 210.616 390.035 209.848C388.947 209.08 388.099 208.04 387.491 206.728C386.883 205.384 386.579 203.848 386.579 202.12V175.912C386.579 175.208 386.803 174.632 387.251 174.184C387.699 173.736 388.275 173.512 388.979 173.512C389.683 173.512 390.259 173.736 390.707 174.184C391.155 174.632 391.379 175.208 391.379 175.912V202.12C391.379 203.304 391.603 204.28 392.051 205.048C392.499 205.816 393.075 206.2 393.779 206.2H394.979C395.619 206.2 396.131 206.424 396.515 206.872C396.931 207.32 397.139 207.896 397.139 208.6C397.139 209.304 396.835 209.88 396.227 210.328C395.619 210.776 394.835 211 393.875 211H393.779ZM408.169 211C406.761 211 405.513 210.616 404.425 209.848C403.337 209.08 402.489 208.04 401.881 206.728C401.273 205.384 400.969 203.848 400.969 202.12V175.912C400.969 175.208 401.193 174.632 401.641 174.184C402.089 173.736 402.665 173.512 403.369 173.512C404.073 173.512 404.649 173.736 405.097 174.184C405.545 174.632 405.769 175.208 405.769 175.912V202.12C405.769 203.304 405.993 204.28 406.441 205.048C406.889 205.816 407.465 206.2 408.169 206.2H409.369C410.009 206.2 410.521 206.424 410.905 206.872C411.321 207.32 411.529 207.896 411.529 208.6C411.529 209.304 411.225 209.88 410.617 210.328C410.009 210.776 409.225 211 408.265 211H408.169ZM198.537 265.192C195.977 265.192 193.689 264.616 191.673 263.464C189.689 262.28 188.121 260.696 186.969 258.712C185.849 256.696 185.289 254.424 185.289 251.896C185.289 249.304 185.849 247 186.969 244.984C188.089 242.968 189.625 241.4 191.577 240.28C193.529 239.128 195.769 238.552 198.297 238.552C200.185 238.552 201.913 238.92 203.481 239.656C205.049 240.36 206.457 241.432 207.705 242.872C208.153 243.384 208.313 243.912 208.185 244.456C208.057 245 207.705 245.48 207.129 245.896C206.681 246.216 206.185 246.328 205.641 246.232C205.097 246.104 204.601 245.816 204.153 245.368C202.585 243.704 200.633 242.872 198.297 242.872C196.665 242.872 195.225 243.256 193.977 244.024C192.729 244.76 191.753 245.8 191.049 247.144C190.345 248.488 189.993 250.072 189.993 251.896C189.993 253.624 190.345 255.16 191.049 256.504C191.785 257.848 192.793 258.92 194.073 259.72C195.353 260.488 196.841 260.872 198.537 260.872C199.657 260.872 200.633 260.744 201.465 260.488C202.329 260.2 203.113 259.768 203.817 259.192C204.329 258.776 204.857 258.552 205.401 258.52C205.945 258.456 206.425 258.6 206.841 258.952C207.385 259.4 207.689 259.912 207.753 260.488C207.817 261.032 207.625 261.528 207.177 261.976C204.873 264.12 201.993 265.192 198.537 265.192ZM237.637 265.048C236.933 265.048 236.341 264.824 235.861 264.376C235.413 263.896 235.189 263.304 235.189 262.6V250.792C235.189 248.968 234.853 247.48 234.181 246.328C233.509 245.176 232.597 244.328 231.445 243.784C230.325 243.208 229.029 242.92 227.557 242.92C226.213 242.92 224.997 243.192 223.909 243.736C222.821 244.28 221.957 245.016 221.317 245.944C220.677 246.84 220.357 247.88 220.357 249.064H217.333C217.333 247.048 217.813 245.256 218.773 243.688C219.765 242.088 221.109 240.824 222.805 239.896C224.501 238.968 226.405 238.504 228.517 238.504C230.725 238.504 232.693 238.984 234.421 239.944C236.181 240.872 237.557 242.248 238.549 244.072C239.573 245.896 240.085 248.136 240.085 250.792V262.6C240.085 263.304 239.845 263.896 239.365 264.376C238.917 264.824 238.341 265.048 237.637 265.048ZM217.909 265.048C217.205 265.048 216.613 264.824 216.133 264.376C215.685 263.896 215.461 263.304 215.461 262.6V241.192C215.461 240.456 215.685 239.864 216.133 239.416C216.613 238.968 217.205 238.744 217.909 238.744C218.645 238.744 219.237 238.968 219.685 239.416C220.133 239.864 220.357 240.456 220.357 241.192V262.6C220.357 263.304 220.133 263.896 219.685 264.376C219.237 264.824 218.645 265.048 217.909 265.048ZM217.909 255.448C217.205 255.448 216.613 255.224 216.133 254.776C215.685 254.296 215.461 253.704 215.461 253V229.96C215.461 229.224 215.685 228.632 216.133 228.184C216.613 227.736 217.205 227.512 217.909 227.512C218.645 227.512 219.237 227.736 219.685 228.184C220.133 228.632 220.357 229.224 220.357 229.96V253C220.357 253.704 220.133 254.296 219.685 254.776C219.237 255.224 218.645 255.448 217.909 255.448ZM259.17 265.192C256.834 265.192 254.738 264.616 252.882 263.464C251.026 262.28 249.554 260.696 248.466 258.712C247.41 256.696 246.882 254.424 246.882 251.896C246.882 249.368 247.458 247.096 248.61 245.08C249.794 243.064 251.378 241.48 253.362 240.328C255.378 239.144 257.634 238.552 260.13 238.552C262.626 238.552 264.866 239.144 266.85 240.328C268.834 241.48 270.402 243.064 271.554 245.08C272.738 247.096 273.33 249.368 273.33 251.896H271.458C271.458 254.424 270.914 256.696 269.826 258.712C268.77 260.696 267.314 262.28 265.458 263.464C263.602 264.616 261.506 265.192 259.17 265.192ZM260.13 260.872C261.762 260.872 263.218 260.488 264.498 259.72C265.778 258.92 266.786 257.848 267.522 256.504C268.258 255.128 268.626 253.592 268.626 251.896C268.626 250.168 268.258 248.632 267.522 247.288C266.786 245.912 265.778 244.84 264.498 244.072C263.218 243.272 261.762 242.872 260.13 242.872C258.53 242.872 257.074 243.272 255.762 244.072C254.482 244.84 253.458 245.912 252.69 247.288C251.954 248.632 251.586 250.168 251.586 251.896C251.586 253.592 251.954 255.128 252.69 256.504C253.458 257.848 254.482 258.92 255.762 259.72C257.074 260.488 258.53 260.872 260.13 260.872ZM270.882 265.048C270.178 265.048 269.586 264.824 269.106 264.376C268.658 263.896 268.434 263.304 268.434 262.6V255.256L269.346 250.168L273.33 251.896V262.6C273.33 263.304 273.09 263.896 272.61 264.376C272.162 264.824 271.586 265.048 270.882 265.048ZM302.793 265.048C302.089 265.048 301.497 264.824 301.017 264.376C300.569 263.896 300.345 263.304 300.345 262.6V250.792C300.345 248.968 300.009 247.48 299.337 246.328C298.665 245.176 297.753 244.328 296.601 243.784C295.481 243.208 294.185 242.92 292.713 242.92C291.369 242.92 290.153 243.192 289.065 243.736C287.977 244.28 287.113 245.016 286.473 245.944C285.833 246.84 285.513 247.88 285.513 249.064H282.489C282.489 247.048 282.969 245.256 283.929 243.688C284.921 242.088 286.265 240.824 287.961 239.896C289.657 238.968 291.561 238.504 293.673 238.504C295.881 238.504 297.849 238.984 299.577 239.944C301.337 240.872 302.713 242.248 303.705 244.072C304.729 245.896 305.241 248.136 305.241 250.792V262.6C305.241 263.304 305.001 263.896 304.521 264.376C304.073 264.824 303.497 265.048 302.793 265.048ZM283.065 265.048C282.361 265.048 281.769 264.824 281.289 264.376C280.841 263.896 280.617 263.304 280.617 262.6V241.192C280.617 240.456 280.841 239.864 281.289 239.416C281.769 238.968 282.361 238.744 283.065 238.744C283.801 238.744 284.393 238.968 284.841 239.416C285.289 239.864 285.513 240.456 285.513 241.192V262.6C285.513 263.304 285.289 263.896 284.841 264.376C284.393 264.824 283.801 265.048 283.065 265.048ZM335.512 265.048C334.808 265.048 334.216 264.824 333.736 264.376C333.288 263.896 333.064 263.304 333.064 262.6V250.792C333.064 248.968 332.728 247.48 332.056 246.328C331.384 245.176 330.472 244.328 329.32 243.784C328.2 243.208 326.904 242.92 325.432 242.92C324.088 242.92 322.872 243.192 321.784 243.736C320.696 244.28 319.832 245.016 319.192 245.944C318.552 246.84 318.232 247.88 318.232 249.064H315.208C315.208 247.048 315.688 245.256 316.648 243.688C317.64 242.088 318.984 240.824 320.68 239.896C322.376 238.968 324.28 238.504 326.392 238.504C328.6 238.504 330.568 238.984 332.296 239.944C334.056 240.872 335.432 242.248 336.424 244.072C337.448 245.896 337.96 248.136 337.96 250.792V262.6C337.96 263.304 337.72 263.896 337.24 264.376C336.792 264.824 336.216 265.048 335.512 265.048ZM315.784 265.048C315.08 265.048 314.488 264.824 314.008 264.376C313.56 263.896 313.336 263.304 313.336 262.6V241.192C313.336 240.456 313.56 239.864 314.008 239.416C314.488 238.968 315.08 238.744 315.784 238.744C316.52 238.744 317.112 238.968 317.56 239.416C318.008 239.864 318.232 240.456 318.232 241.192V262.6C318.232 263.304 318.008 263.896 317.56 264.376C317.112 264.824 316.52 265.048 315.784 265.048ZM358.39 265.192C355.734 265.192 353.366 264.632 351.286 263.512C349.238 262.36 347.622 260.792 346.438 258.808C345.286 256.792 344.71 254.488 344.71 251.896C344.71 249.272 345.254 246.968 346.342 244.984C347.462 242.968 348.998 241.4 350.95 240.28C352.902 239.128 355.142 238.552 357.67 238.552C360.166 238.552 362.31 239.112 364.102 240.232C365.894 241.32 367.254 242.84 368.182 244.792C369.142 246.712 369.622 248.936 369.622 251.464C369.622 252.072 369.414 252.584 368.998 253C368.582 253.384 368.054 253.576 367.414 253.576H348.07V249.736H367.27L365.302 251.08C365.27 249.48 364.95 248.056 364.342 246.808C363.734 245.528 362.87 244.52 361.75 243.784C360.63 243.048 359.27 242.68 357.67 242.68C355.846 242.68 354.278 243.08 352.966 243.88C351.686 244.68 350.71 245.784 350.038 247.192C349.366 248.568 349.03 250.136 349.03 251.896C349.03 253.656 349.43 255.224 350.23 256.6C351.03 257.976 352.134 259.064 353.542 259.864C354.95 260.664 356.566 261.064 358.39 261.064C359.382 261.064 360.39 260.888 361.414 260.536C362.47 260.152 363.318 259.72 363.958 259.24C364.438 258.888 364.95 258.712 365.494 258.712C366.07 258.68 366.566 258.84 366.982 259.192C367.526 259.672 367.814 260.2 367.846 260.776C367.878 261.352 367.622 261.848 367.078 262.264C365.99 263.128 364.63 263.832 362.998 264.376C361.398 264.92 359.862 265.192 358.39 265.192ZM382.107 265C380.699 265 379.451 264.616 378.363 263.848C377.275 263.08 376.427 262.04 375.819 260.728C375.211 259.384 374.907 257.848 374.907 256.12V229.912C374.907 229.208 375.131 228.632 375.579 228.184C376.027 227.736 376.603 227.512 377.307 227.512C378.011 227.512 378.587 227.736 379.035 228.184C379.483 228.632 379.707 229.208 379.707 229.912V256.12C379.707 257.304 379.931 258.28 380.379 259.048C380.827 259.816 381.403 260.2 382.107 260.2H383.307C383.947 260.2 384.459 260.424 384.843 260.872C385.259 261.32 385.467 261.896 385.467 262.6C385.467 263.304 385.163 263.88 384.555 264.328C383.947 264.776 383.163 265 382.203 265H382.107ZM399.81 265.192C397.57 265.192 395.49 264.856 393.57 264.184C391.682 263.48 390.21 262.6 389.154 261.544C388.674 261.032 388.466 260.456 388.53 259.816C388.626 259.144 388.946 258.6 389.49 258.184C390.13 257.672 390.754 257.464 391.362 257.56C392.002 257.624 392.546 257.896 392.993 258.376C393.538 258.984 394.402 259.56 395.586 260.104C396.802 260.616 398.146 260.872 399.618 260.872C401.474 260.872 402.882 260.568 403.842 259.96C404.834 259.352 405.346 258.568 405.378 257.608C405.41 256.648 404.946 255.816 403.986 255.112C403.058 254.408 401.346 253.832 398.85 253.384C395.618 252.744 393.266 251.784 391.794 250.504C390.354 249.224 389.634 247.656 389.634 245.8C389.634 244.168 390.114 242.824 391.074 241.768C392.034 240.68 393.266 239.88 394.77 239.368C396.274 238.824 397.842 238.552 399.474 238.552C401.586 238.552 403.458 238.888 405.09 239.56C406.722 240.232 408.018 241.16 408.978 242.344C409.426 242.856 409.634 243.4 409.602 243.976C409.57 244.52 409.298 244.984 408.786 245.368C408.274 245.72 407.666 245.832 406.962 245.704C406.258 245.576 405.666 245.288 405.186 244.84C404.386 244.072 403.522 243.544 402.594 243.256C401.666 242.968 400.594 242.824 399.378 242.824C397.97 242.824 396.77 243.064 395.778 243.544C394.818 244.024 394.338 244.728 394.338 245.656C394.338 246.232 394.482 246.76 394.77 247.24C395.09 247.688 395.698 248.104 396.594 248.488C397.49 248.84 398.802 249.192 400.53 249.544C402.93 250.024 404.818 250.632 406.194 251.368C407.602 252.104 408.61 252.968 409.218 253.96C409.826 254.92 410.13 256.04 410.13 257.32C410.13 258.792 409.73 260.12 408.93 261.304C408.162 262.488 407.01 263.432 405.474 264.136C403.97 264.84 402.082 265.192 399.81 265.192Z" fill="#444B54"/>
<path d="M457.678 198C456.651 198 455.788 197.65 455.088 196.95C454.434 196.25 454.108 195.41 454.108 194.43C454.108 193.403 454.434 192.563 455.088 191.91L474.968 168.67C476.368 167.037 477.441 165.497 478.188 164.05C478.981 162.603 479.378 161.227 479.378 159.92C479.378 157.867 479.028 156.093 478.328 154.6C477.628 153.107 476.624 151.963 475.318 151.17C474.011 150.33 472.448 149.91 470.628 149.91C468.854 149.91 467.244 150.377 465.798 151.31C464.398 152.197 463.278 153.41 462.438 154.95C461.644 156.443 461.248 158.1 461.248 159.92C461.248 160.853 460.898 161.67 460.198 162.37C459.544 163.07 458.704 163.42 457.678 163.42C456.698 163.42 455.858 163.07 455.158 162.37C454.458 161.67 454.108 160.853 454.108 159.92C454.108 156.747 454.831 153.923 456.278 151.45C457.724 148.93 459.684 146.947 462.158 145.5C464.678 144.053 467.501 143.33 470.628 143.33C473.801 143.33 476.554 144.007 478.888 145.36C481.221 146.713 483.018 148.627 484.278 151.1C485.584 153.573 486.238 156.513 486.238 159.92C486.238 161.413 485.911 162.93 485.258 164.47C484.651 166.01 483.858 167.48 482.878 168.88C481.944 170.28 480.988 171.54 480.008 172.66L463.978 190.86H483.578C484.604 190.86 485.468 191.233 486.168 191.98C486.868 192.68 487.218 193.497 487.218 194.43C487.218 195.41 486.868 196.25 486.168 196.95C485.468 197.65 484.604 198 483.578 198H457.678ZM522.35 198C521.417 198 520.623 197.65 519.97 196.95C519.317 196.25 518.99 195.41 518.99 194.43V185.61H495.68C494.607 185.61 493.767 185.283 493.16 184.63C492.553 183.977 492.203 183.23 492.11 182.39C492.063 181.503 492.297 180.71 492.81 180.01L519.62 144.87C519.993 144.403 520.413 144.03 520.88 143.75C521.393 143.47 521.953 143.33 522.56 143.33C523.54 143.33 524.333 143.68 524.94 144.38C525.547 145.08 525.85 145.943 525.85 146.97V179.17H530.05C531.03 179.17 531.87 179.403 532.57 179.87C533.27 180.337 533.62 181.177 533.62 182.39C533.62 183.277 533.27 184.047 532.57 184.7C531.87 185.307 531.03 185.61 530.05 185.61H525.85V194.43C525.85 195.41 525.523 196.25 524.87 196.95C524.217 197.65 523.377 198 522.35 198ZM499.88 181.13L497.99 179.17H518.99V150.33L521.16 153.13L499.88 181.13ZM489.268 252C488.948 252 488.644 251.952 488.356 251.856C488.068 251.76 487.796 251.552 487.54 251.232L479.14 241.152L477.412 239.424L469.06 229.536C468.644 229.024 468.42 228.48 468.388 227.904C468.356 227.296 468.516 226.784 468.868 226.368C469.22 225.952 469.748 225.744 470.452 225.744C471.22 225.744 471.828 226.016 472.276 226.56L480.484 236.352L481.732 237.504L490.756 248.304C491.236 248.88 491.46 249.456 491.428 250.032C491.428 250.576 491.22 251.04 490.804 251.424C490.42 251.808 489.908 252 489.268 252ZM470.932 252C470.292 252 469.78 251.808 469.396 251.424C469.044 251.008 468.868 250.512 468.868 249.936C468.868 249.36 469.092 248.784 469.54 248.208L477.7 237.984L480.292 241.632L472.66 251.232C472.18 251.744 471.604 252 470.932 252ZM482.788 239.664L479.476 236.832L487.204 226.56C487.46 226.24 487.732 226.032 488.02 225.936C488.308 225.808 488.628 225.744 488.98 225.744C489.684 225.744 490.212 225.968 490.564 226.416C490.916 226.832 491.076 227.344 491.044 227.952C491.044 228.56 490.82 229.152 490.372 229.728L482.788 239.664ZM500.098 252C499.458 252 498.898 251.76 498.418 251.28C497.938 250.8 497.698 250.224 497.698 249.552C497.698 249.296 497.73 249.056 497.794 248.832C497.89 248.576 498.002 248.304 498.13 248.016L511.906 219.408H497.314C496.61 219.408 496.018 219.184 495.538 218.736C495.09 218.256 494.866 217.664 494.866 216.96C494.866 216.256 495.09 215.68 495.538 215.232C496.018 214.752 496.61 214.512 497.314 214.512H515.602C516.274 214.512 516.85 214.752 517.33 215.232C517.81 215.712 518.05 216.288 518.05 216.96C518.05 217.184 518.018 217.408 517.954 217.632C517.89 217.824 517.81 218.032 517.714 218.256L502.354 250.656C501.842 251.552 501.09 252 500.098 252Z" fill="#1E96A3"/>
</g>
<defs>
<clipPath id="clip0">
<rect width="1440" height="420" fill="white"/>
</clipPath>
<clipPath id="clip1">
<rect width="1600" height="800" fill="white" transform="translate(-80 -350)"/>
</clipPath>
</defs>
</svg>
