<svg width="100%" height="100%" viewBox="0 0 666 390" fill="none" xmlns="http://www.w3.org/2000/svg">
<path d="M655.148 237.745L654.643 246.842C654.58 247.976 653.951 249.002 652.968 249.572L424.719 382.099C420.56 384.514 415.568 387.773 410.762 387.96C410.098 387.986 409.374 388 408.583 388C407.44 388 406.433 387.971 405.547 387.919C401.139 387.662 396.723 384.68 392.903 382.465L13.0436 162.186C12.0622 161.616 11.4325 160.592 11.3677 159.459L10.8674 150.704C10.8369 150.17 11.4102 149.815 11.875 150.079L408.583 376L654.142 237.12C654.607 236.857 655.178 237.212 655.148 237.745Z" fill="url(#paint0_linear)"/>
<path d="M427.137 373.686C416.809 379.648 400.064 379.648 389.736 373.686L18.7006 159.487C8.37256 153.525 8.37254 143.858 18.7006 137.896L238.863 10.796C249.191 4.83361 265.936 4.8336 276.264 10.796L647.299 224.995C657.627 230.957 657.627 240.624 647.299 246.586L427.137 373.686Z" fill="white"/>
<path d="M427.137 373.686C416.809 379.648 400.064 379.648 389.736 373.686L18.7006 159.487C8.37256 153.525 8.37254 143.858 18.7006 137.896L238.863 10.796C249.191 4.83361 265.936 4.8336 276.264 10.796L647.299 224.995C657.627 230.957 657.627 240.624 647.299 246.586L427.137 373.686Z" fill="url(#paint1_linear)"/>
<rect x="-2.01102e-08" y="-0.337371" width="73.7032" height="65.439" rx="21.1208" transform="matrix(-0.866044 -0.499967 0.866044 -0.499967 453.962 311.035)" fill="url(#paint2_linear)" stroke="white" stroke-width="0.674786"/>
<path d="M432.915 299.008L447.05 290.848M489.456 266.366L475.321 274.527M411.682 286.75L425.817 278.59M468.223 254.109L454.088 262.269M439.952 270.429L425.817 278.59M439.952 270.429L418.242 257.896M439.952 270.429L454.088 262.269M425.817 278.59L404.107 266.056M454.088 262.269L432.378 249.736M475.321 274.527L496.077 286.509M475.321 274.527L461.185 282.687M461.185 282.687L481.941 294.669M461.185 282.687L447.05 290.848M447.05 290.848L467.806 302.83" stroke="white" stroke-width="2.02436"/>
<path d="M87.1781 129.537C88.209 128.979 89.3544 128.611 90.6144 128.432C91.9071 128.252 93.1752 128.257 94.4188 128.446C95.6624 128.635 96.7669 129.008 97.7323 129.565C98.5668 130.047 99.0741 130.481 99.2541 130.869C99.4504 131.265 99.2786 131.554 98.7386 131.733C98.4441 131.846 98.1659 131.884 97.9041 131.846C97.675 131.809 97.4541 131.728 97.2414 131.606C97.0451 131.492 96.8242 131.355 96.5787 131.195C95.7606 130.571 94.8524 130.113 93.8543 129.82C92.8725 129.518 91.8907 129.395 90.9089 129.452C89.9271 129.508 89.0599 129.754 88.3072 130.189L87.1781 129.537ZM78.9557 134.397C78.6285 134.208 78.4648 134.01 78.4648 133.802C78.4648 133.594 78.6285 133.396 78.9557 133.207L90.3198 126.646C90.6471 126.457 90.9907 126.363 91.3507 126.363C91.7107 126.363 92.0543 126.457 92.3816 126.646C92.7089 126.835 92.8725 127.033 92.8725 127.241C92.8725 127.449 92.7089 127.647 92.3816 127.836L81.0175 134.397C80.6902 134.586 80.3466 134.68 79.9866 134.68C79.6266 134.68 79.283 134.586 78.9557 134.397ZM90.7812 141.224C90.4703 141.044 90.3149 140.841 90.3149 140.614C90.3149 140.388 90.4703 140.185 90.7812 140.005L102.096 133.473C102.424 133.284 102.775 133.194 103.152 133.204C103.544 133.204 103.896 133.294 104.207 133.473C104.518 133.652 104.665 133.851 104.649 134.068C104.665 134.285 104.51 134.488 104.183 134.677L92.8675 141.21C92.5566 141.389 92.2048 141.479 91.8121 141.479C91.4357 141.488 91.0921 141.403 90.7812 141.224ZM106.612 132.056C106.22 131.829 106.023 131.555 106.023 131.234C106.023 130.913 106.228 130.634 106.637 130.398C107.046 130.162 107.521 130.049 108.061 130.058C108.633 130.068 109.116 130.186 109.509 130.412C109.885 130.63 110.073 130.899 110.073 131.22C110.106 131.541 109.918 131.82 109.509 132.056C109.1 132.292 108.609 132.406 108.036 132.396C107.48 132.396 107.005 132.283 106.612 132.056ZM101.212 147.387C100.181 146.792 99.3465 146.121 98.7083 145.375C98.1029 144.629 97.8247 143.911 97.8738 143.221C97.8902 142.985 98.0538 142.796 98.3647 142.654C98.6756 142.513 99.0438 142.451 99.4692 142.47C99.9274 142.508 100.263 142.617 100.476 142.796C100.721 142.976 100.844 143.179 100.844 143.405C100.778 143.84 100.934 144.317 101.31 144.837C101.703 145.347 102.284 145.824 103.053 146.268C104.182 146.919 105.196 147.288 106.096 147.373C107.013 147.448 107.757 147.33 108.33 147.019C108.903 146.707 109.107 146.287 108.943 145.758C108.796 145.238 108.191 144.548 107.127 143.689C105.753 142.574 105.008 141.606 104.894 140.784C104.795 139.972 105.204 139.301 106.121 138.772C106.955 138.29 107.88 138.021 108.894 137.964C109.909 137.908 110.923 138.012 111.938 138.276C112.969 138.55 113.918 138.937 114.785 139.438C115.881 140.071 116.642 140.727 117.068 141.408C117.509 142.078 117.665 142.735 117.534 143.377C117.501 143.623 117.338 143.812 117.043 143.944C116.765 144.067 116.43 144.109 116.037 144.071C115.677 144.015 115.374 143.887 115.129 143.689C114.9 143.5 114.793 143.287 114.81 143.051C114.842 142.56 114.695 142.107 114.368 141.691C114.04 141.275 113.541 140.874 112.871 140.487C112.036 140.005 111.185 139.702 110.318 139.58C109.467 139.466 108.78 139.561 108.256 139.863C107.896 140.071 107.675 140.302 107.593 140.557C107.528 140.822 107.634 141.157 107.913 141.563C108.207 141.96 108.714 142.461 109.434 143.065C110.449 143.897 111.12 144.624 111.447 145.247C111.791 145.88 111.856 146.438 111.643 146.919C111.447 147.392 111.038 147.807 110.416 148.166C109.663 148.601 108.772 148.861 107.741 148.946C106.726 149.04 105.646 148.955 104.501 148.691C103.372 148.436 102.275 148.001 101.212 147.387ZM121.29 158.837C120.979 158.657 120.824 158.454 120.824 158.227C120.824 158.001 120.971 157.802 121.266 157.632L127.525 154.019C128.523 153.443 129.145 152.867 129.39 152.29C129.652 151.705 129.619 151.138 129.292 150.59C128.981 150.052 128.416 149.546 127.598 149.074C126.846 148.639 126.011 148.328 125.095 148.139C124.178 147.95 123.278 147.902 122.395 147.997C121.528 148.082 120.758 148.318 120.088 148.705L118.689 147.898C119.736 147.312 120.914 146.934 122.223 146.764C123.565 146.594 124.907 146.622 126.248 146.849C127.59 147.076 128.793 147.496 129.856 148.11C131.018 148.781 131.804 149.518 132.213 150.321C132.654 151.124 132.671 151.946 132.262 152.786C131.853 153.627 130.969 154.439 129.611 155.223L123.352 158.837C123.057 159.007 122.714 159.092 122.321 159.092C121.928 159.092 121.585 159.007 121.29 158.837ZM110.883 152.829C110.572 152.649 110.409 152.451 110.392 152.234C110.392 152.007 110.548 151.804 110.859 151.624L122.198 145.078C122.526 144.889 122.877 144.799 123.254 144.809C123.647 144.809 123.998 144.899 124.309 145.078C124.62 145.257 124.767 145.456 124.751 145.673C124.767 145.89 124.612 146.093 124.285 146.282L112.945 152.829C112.634 153.008 112.282 153.098 111.89 153.098C111.53 153.098 111.194 153.008 110.883 152.829ZM116.16 149.782C115.85 149.603 115.694 149.4 115.694 149.173C115.694 148.946 115.85 148.743 116.16 148.564L127.942 141.762C128.269 141.573 128.621 141.484 128.997 141.493C129.39 141.493 129.742 141.583 130.053 141.762C130.364 141.942 130.511 142.14 130.494 142.357C130.511 142.575 130.355 142.778 130.028 142.967L118.247 149.768C117.936 149.948 117.584 150.037 117.191 150.037C116.815 150.047 116.471 149.962 116.16 149.782ZM132.181 165.266C130.937 164.548 130.119 163.735 129.727 162.828C129.35 161.912 129.391 160.991 129.849 160.065C130.307 159.14 131.183 158.304 132.475 157.557C133.785 156.802 135.249 156.296 136.869 156.041C138.505 155.796 140.133 155.8 141.753 156.055C143.39 156.301 144.854 156.797 146.147 157.543C147.423 158.28 148.266 159.116 148.675 160.051C149.117 160.986 149.117 161.922 148.675 162.857C148.249 163.801 147.39 164.656 146.098 165.421L144.87 165.166C143.66 165.865 142.285 166.338 140.747 166.583C139.242 166.829 137.728 166.843 136.206 166.626C134.717 166.409 133.375 165.955 132.181 165.266ZM134.365 164.345C135.265 164.864 136.288 165.209 137.434 165.379C138.579 165.549 139.733 165.535 140.894 165.336C142.056 165.138 143.103 164.77 144.036 164.231C144.985 163.683 145.623 163.079 145.95 162.417C146.294 161.747 146.319 161.081 146.024 160.42C145.746 159.749 145.157 159.154 144.257 158.634C143.357 158.115 142.326 157.775 141.164 157.614C140.019 157.444 138.857 157.453 137.679 157.642C136.517 157.822 135.462 158.185 134.513 158.733C133.58 159.272 132.95 159.881 132.623 160.561C132.296 161.241 132.279 161.912 132.574 162.573C132.868 163.235 133.465 163.825 134.365 164.345ZM138.342 168.68C138.031 168.501 137.867 168.303 137.851 168.085C137.851 167.859 138.006 167.655 138.317 167.476L142.367 165.138L144.993 164.16L146.098 165.421L140.428 168.695C140.117 168.874 139.757 168.959 139.348 168.95C138.972 168.94 138.636 168.85 138.342 168.68ZM149.725 175.394C148.449 174.657 147.598 173.826 147.172 172.9C146.763 171.965 146.763 171.029 147.172 170.094C147.614 169.159 148.465 168.318 149.725 167.572L161.187 160.955C161.515 160.766 161.866 160.676 162.243 160.686C162.635 160.686 162.987 160.775 163.298 160.955C163.609 161.134 163.756 161.333 163.74 161.55C163.756 161.767 163.601 161.97 163.274 162.159L156.254 166.212C157.546 166.108 158.847 166.179 160.156 166.424C161.482 166.661 162.668 167.081 163.715 167.685C164.959 168.403 165.769 169.22 166.145 170.137C166.538 171.044 166.497 171.955 166.023 172.872C165.564 173.797 164.689 174.633 163.396 175.38C162.087 176.135 160.615 176.636 158.978 176.881C157.358 177.137 155.73 177.141 154.094 176.896C152.49 176.65 151.034 176.149 149.725 175.394ZM151.615 174.303C152.531 174.832 153.562 175.181 154.707 175.351C155.869 175.512 157.023 175.498 158.168 175.309C159.346 175.12 160.41 174.751 161.359 174.203C162.292 173.665 162.922 173.056 163.249 172.376C163.593 171.705 163.617 171.039 163.323 170.378C163.028 169.716 162.423 169.121 161.506 168.592C160.623 168.082 159.6 167.737 158.438 167.558C157.293 167.388 156.139 167.402 154.977 167.6C153.816 167.799 152.768 168.167 151.836 168.706C150.887 169.254 150.24 169.863 149.897 170.534C149.57 171.195 149.545 171.861 149.823 172.531C150.134 173.202 150.731 173.793 151.615 174.303ZM171.865 188.034C171.555 187.854 171.399 187.651 171.399 187.424C171.399 187.198 171.546 186.999 171.841 186.829L178.1 183.216C179.098 182.64 179.72 182.064 179.965 181.487C180.227 180.902 180.194 180.335 179.867 179.787C179.556 179.249 178.992 178.743 178.173 178.271C177.421 177.836 176.586 177.525 175.67 177.336C174.754 177.147 173.854 177.1 172.97 177.194C172.103 177.279 171.334 177.515 170.663 177.902L169.264 177.095C170.311 176.509 171.489 176.131 172.798 175.961C174.14 175.791 175.482 175.82 176.823 176.046C178.165 176.273 179.368 176.693 180.432 177.307C181.593 177.978 182.379 178.715 182.788 179.518C183.23 180.321 183.246 181.143 182.837 181.983C182.428 182.824 181.544 183.636 180.186 184.42L173.927 188.034C173.633 188.204 173.289 188.289 172.896 188.289C172.504 188.289 172.16 188.204 171.865 188.034ZM161.459 182.026C161.148 181.846 160.984 181.648 160.968 181.431C160.968 181.204 161.123 181.001 161.434 180.821L172.774 174.275C173.101 174.086 173.453 173.996 173.829 174.006C174.222 174.006 174.574 174.096 174.884 174.275C175.195 174.455 175.343 174.653 175.326 174.87C175.343 175.087 175.187 175.291 174.86 175.479L163.52 182.026C163.209 182.205 162.858 182.295 162.465 182.295C162.105 182.295 161.769 182.205 161.459 182.026ZM166.736 178.979C166.425 178.8 166.269 178.597 166.269 178.37C166.269 178.143 166.425 177.94 166.736 177.761L178.517 170.959C178.844 170.77 179.196 170.681 179.572 170.69C179.965 170.69 180.317 170.78 180.628 170.959C180.939 171.139 181.086 171.337 181.07 171.555C181.086 171.772 180.931 171.975 180.603 172.164L168.822 178.965C168.511 179.145 168.159 179.234 167.767 179.234C167.39 179.244 167.047 179.159 166.736 178.979ZM174.999 196.474C174.688 196.295 174.533 196.092 174.533 195.865C174.533 195.638 174.688 195.435 174.999 195.256C175.31 195.076 175.662 194.986 176.055 194.986C176.447 194.986 176.799 195.076 177.11 195.256C177.83 195.671 178.616 195.945 179.466 196.077C180.317 196.21 181.176 196.205 182.044 196.063C182.911 195.941 183.704 195.671 184.424 195.256L196.77 188.128C197.098 187.939 197.449 187.85 197.826 187.859C198.218 187.859 198.57 187.949 198.881 188.128C199.192 188.308 199.348 188.511 199.348 188.738C199.364 188.955 199.208 189.158 198.881 189.347L186.535 196.474C185.406 197.126 184.154 197.556 182.78 197.764C181.422 197.981 180.064 197.981 178.706 197.764C177.347 197.546 176.112 197.117 174.999 196.474ZM201.287 186.711C200.894 186.485 200.697 186.211 200.697 185.89C200.697 185.568 200.902 185.29 201.311 185.054C201.72 184.817 202.195 184.704 202.735 184.713C203.307 184.723 203.79 184.841 204.183 185.068C204.559 185.285 204.747 185.554 204.747 185.875C204.78 186.197 204.592 186.475 204.183 186.711C203.774 186.948 203.283 187.061 202.71 187.051C202.154 187.051 201.679 186.938 201.287 186.711ZM195.987 202.101C194.744 201.383 193.925 200.571 193.533 199.664C193.156 198.747 193.197 197.826 193.655 196.901C194.114 195.975 194.989 195.139 196.282 194.393C197.591 193.637 199.055 193.132 200.675 192.876C202.312 192.631 203.94 192.636 205.56 192.891C207.196 193.136 208.66 193.632 209.953 194.378C211.229 195.115 212.072 195.951 212.481 196.886C212.923 197.822 212.923 198.757 212.481 199.692C212.056 200.637 211.197 201.492 209.904 202.257L208.677 202.002C207.466 202.701 206.091 203.173 204.553 203.419C203.048 203.664 201.534 203.678 200.013 203.461C198.523 203.244 197.182 202.79 195.987 202.101ZM198.172 201.18C199.072 201.699 200.094 202.044 201.24 202.214C202.385 202.384 203.539 202.37 204.701 202.172C205.862 201.973 206.91 201.605 207.842 201.067C208.791 200.519 209.429 199.914 209.757 199.253C210.1 198.582 210.125 197.916 209.83 197.255C209.552 196.584 208.963 195.989 208.063 195.47C207.163 194.95 206.132 194.61 204.971 194.449C203.825 194.279 202.663 194.289 201.485 194.478C200.323 194.657 199.268 195.021 198.319 195.569C197.386 196.107 196.756 196.716 196.429 197.397C196.102 198.077 196.085 198.747 196.38 199.409C196.674 200.07 197.272 200.66 198.172 201.18ZM202.148 205.516C201.837 205.336 201.673 205.138 201.657 204.921C201.657 204.694 201.812 204.491 202.123 204.311L206.173 201.973L208.799 200.996L209.904 202.257L204.234 205.53C203.923 205.709 203.563 205.794 203.154 205.785C202.778 205.776 202.442 205.686 202.148 205.516ZM208.279 209.055C207.968 208.876 207.812 208.672 207.812 208.446C207.812 208.219 207.968 208.016 208.279 207.836L219.594 201.304C219.921 201.115 220.273 201.026 220.649 201.035C221.042 201.035 221.394 201.125 221.705 201.304C222.015 201.484 222.163 201.682 222.146 201.899C222.163 202.117 222.007 202.32 221.68 202.509L210.365 209.041C210.054 209.22 209.702 209.31 209.31 209.31C208.933 209.32 208.59 209.235 208.279 209.055ZM224.11 199.887C223.717 199.661 223.521 199.387 223.521 199.066C223.521 198.744 223.725 198.466 224.134 198.229C224.544 197.993 225.018 197.88 225.558 197.889C226.131 197.899 226.613 198.017 227.006 198.244C227.383 198.461 227.571 198.73 227.571 199.051C227.603 199.373 227.415 199.651 227.006 199.887C226.597 200.123 226.106 200.237 225.533 200.227C224.977 200.227 224.503 200.114 224.11 199.887ZM225.533 219.016C225.222 218.836 225.066 218.633 225.066 218.407C225.066 218.18 225.214 217.981 225.508 217.811L231.767 214.198C232.765 213.622 233.387 213.046 233.632 212.469C233.894 211.884 233.862 211.317 233.534 210.769C233.223 210.231 232.659 209.725 231.841 209.253C231.088 208.818 230.253 208.507 229.337 208.318C228.421 208.129 227.521 208.082 226.637 208.176C225.77 208.261 225.001 208.497 224.33 208.885L222.931 208.077C223.978 207.491 225.156 207.113 226.465 206.943C227.807 206.773 229.149 206.802 230.491 207.028C231.832 207.255 233.035 207.675 234.099 208.289C235.261 208.96 236.046 209.697 236.455 210.5C236.897 211.303 236.913 212.125 236.504 212.965C236.095 213.806 235.211 214.619 233.853 215.403L227.594 219.016C227.3 219.186 226.956 219.271 226.564 219.271C226.171 219.271 225.827 219.186 225.533 219.016ZM215.126 213.008C214.815 212.828 214.651 212.63 214.635 212.413C214.635 212.186 214.79 211.983 215.101 211.804L226.441 205.257C226.768 205.068 227.12 204.978 227.496 204.988C227.889 204.988 228.241 205.078 228.552 205.257C228.863 205.437 229.01 205.635 228.994 205.852C229.01 206.07 228.854 206.273 228.527 206.462L217.188 213.008C216.877 213.187 216.525 213.277 216.132 213.277C215.772 213.277 215.437 213.187 215.126 213.008Z" fill="#C58E8F"/>
<g filter="url(#filter0_d)">
<path fill-rule="evenodd" clip-rule="evenodd" d="M255.319 28.8435C256.559 28.1273 258.571 28.1273 259.811 28.8435L266.759 32.8546C268.407 33.8057 268.407 35.3476 266.759 36.2986L262.855 38.5524C261.615 39.2685 261.615 40.4296 262.855 41.1457L267.494 43.8237C268.735 44.5399 268.735 45.701 267.494 46.4171L260.546 50.4283C258.899 51.3793 256.228 51.3793 254.58 50.4283L250.676 48.1745C249.436 47.4584 247.424 47.4584 246.184 48.1745L242.28 50.4283C240.632 51.3793 237.962 51.3793 236.314 50.4283L229.366 46.4171C228.126 45.701 228.126 44.5399 229.366 43.8238L239.296 38.0912C239.297 38.0908 239.297 38.0908 239.298 38.0912C239.299 38.0915 239.299 38.0915 239.3 38.0912L255.319 28.8435Z" fill="white"/>
</g>
<g filter="url(#filter1_ii)">
<path d="M255.354 30.5999C256.594 29.8838 258.605 29.8838 259.846 30.5999L264.487 33.2789C265.727 33.9951 265.727 35.1562 264.487 35.8723L255.371 41.1346C254.131 41.8508 252.119 41.8508 250.879 41.1346L246.238 38.4556C244.998 37.7394 244.998 36.5784 246.238 35.8622L255.354 30.5999Z" fill="#1E96A3"/>
</g>
<g filter="url(#filter2_ii)">
<path d="M241.746 38.4556C242.987 37.7395 244.998 37.7395 246.238 38.4556L250.879 41.1347C252.119 41.8508 252.119 43.0119 250.879 43.728L241.544 49.1174C240.303 49.8335 238.292 49.8335 237.051 49.1174L232.411 46.4383C231.17 45.7222 231.17 44.5611 232.411 43.845L241.746 38.4556Z" fill="#C58E8F"/>
</g>
<g filter="url(#filter3_ii)">
<path d="M247.632 44.6597C246.392 43.9436 246.392 42.7825 247.632 42.0664L252.273 39.3873C253.513 38.6712 255.524 38.6712 256.765 39.3873L264.45 43.8238C265.69 44.54 265.69 45.7011 264.45 46.4172L259.809 49.0962C258.569 49.8124 256.558 49.8124 255.317 49.0962L247.632 44.6597Z" fill="#B7544A"/>
</g>
<rect width="10.5455" height="10.5455" rx="2.59354" transform="matrix(0.866044 0.499967 -0.866044 0.499967 248.43 34.5969)" fill="white"/>
<defs>
<filter id="filter0_d" x="226.713" y="26.5843" width="45.1552" height="28.0015" filterUnits="userSpaceOnUse" color-interpolation-filters="sRGB">
<feFlood flood-opacity="0" result="BackgroundImageFix"/>
<feColorMatrix in="SourceAlpha" type="matrix" values="0 0 0 0 0 0 0 0 0 0 0 0 0 0 0 0 0 0 127 0" result="hardAlpha"/>
<feOffset dx="0.861055" dy="0.861055"/>
<feGaussianBlur stdDeviation="1.29158"/>
<feColorMatrix type="matrix" values="0 0 0 0 0.266667 0 0 0 0 0.294118 0 0 0 0 0.329412 0 0 0 0.4 0"/>
<feBlend mode="normal" in2="BackgroundImageFix" result="effect1_dropShadow"/>
<feBlend mode="normal" in="SourceGraphic" in2="effect1_dropShadow" result="shape"/>
</filter>
<filter id="filter1_ii" x="244.963" y="29.7183" width="20.7978" height="12.2978" filterUnits="userSpaceOnUse" color-interpolation-filters="sRGB">
<feFlood flood-opacity="0" result="BackgroundImageFix"/>
<feBlend mode="normal" in="SourceGraphic" in2="BackgroundImageFix" result="shape"/>
<feColorMatrix in="SourceAlpha" type="matrix" values="0 0 0 0 0 0 0 0 0 0 0 0 0 0 0 0 0 0 127 0" result="hardAlpha"/>
<feOffset dx="0.430527" dy="0.430527"/>
<feGaussianBlur stdDeviation="0.172211"/>
<feComposite in2="hardAlpha" operator="arithmetic" k2="-1" k3="1"/>
<feColorMatrix type="matrix" values="0 0 0 0 0.266667 0 0 0 0 0.294118 0 0 0 0 0.329412 0 0 0 0.25 0"/>
<feBlend mode="normal" in2="shape" result="effect1_innerShadow"/>
<feColorMatrix in="SourceAlpha" type="matrix" values="0 0 0 0 0 0 0 0 0 0 0 0 0 0 0 0 0 0 127 0" result="hardAlpha"/>
<feOffset dx="-0.430527" dy="-0.430527"/>
<feGaussianBlur stdDeviation="0.172211"/>
<feComposite in2="hardAlpha" operator="arithmetic" k2="-1" k3="1"/>
<feColorMatrix type="matrix" values="0 0 0 0 0.266667 0 0 0 0 0.294118 0 0 0 0 0.329412 0 0 0 0.25 0"/>
<feBlend mode="normal" in2="effect1_innerShadow" result="effect2_innerShadow"/>
</filter>
<filter id="filter2_ii" x="231.136" y="37.574" width="21.0179" height="12.4248" filterUnits="userSpaceOnUse" color-interpolation-filters="sRGB">
<feFlood flood-opacity="0" result="BackgroundImageFix"/>
<feBlend mode="normal" in="SourceGraphic" in2="BackgroundImageFix" result="shape"/>
<feColorMatrix in="SourceAlpha" type="matrix" values="0 0 0 0 0 0 0 0 0 0 0 0 0 0 0 0 0 0 127 0" result="hardAlpha"/>
<feOffset dx="0.430527" dy="0.430527"/>
<feGaussianBlur stdDeviation="0.172211"/>
<feComposite in2="hardAlpha" operator="arithmetic" k2="-1" k3="1"/>
<feColorMatrix type="matrix" values="0 0 0 0 0.266667 0 0 0 0 0.294118 0 0 0 0 0.329412 0 0 0 0.25 0"/>
<feBlend mode="normal" in2="shape" result="effect1_innerShadow"/>
<feColorMatrix in="SourceAlpha" type="matrix" values="0 0 0 0 0 0 0 0 0 0 0 0 0 0 0 0 0 0 127 0" result="hardAlpha"/>
<feOffset dx="-0.430527" dy="-0.430527"/>
<feGaussianBlur stdDeviation="0.172211"/>
<feComposite in2="hardAlpha" operator="arithmetic" k2="-1" k3="1"/>
<feColorMatrix type="matrix" values="0 0 0 0 0.266667 0 0 0 0 0.294118 0 0 0 0 0.329412 0 0 0 0.25 0"/>
<feBlend mode="normal" in2="effect1_innerShadow" result="effect2_innerShadow"/>
</filter>
<filter id="filter3_ii" x="246.357" y="38.5057" width="19.3674" height="11.472" filterUnits="userSpaceOnUse" color-interpolation-filters="sRGB">
<feFlood flood-opacity="0" result="BackgroundImageFix"/>
<feBlend mode="normal" in="SourceGraphic" in2="BackgroundImageFix" result="shape"/>
<feColorMatrix in="SourceAlpha" type="matrix" values="0 0 0 0 0 0 0 0 0 0 0 0 0 0 0 0 0 0 127 0" result="hardAlpha"/>
<feOffset dx="0.430527" dy="0.430527"/>
<feGaussianBlur stdDeviation="0.172211"/>
<feComposite in2="hardAlpha" operator="arithmetic" k2="-1" k3="1"/>
<feColorMatrix type="matrix" values="0 0 0 0 0.266667 0 0 0 0 0.294118 0 0 0 0 0.329412 0 0 0 0.25 0"/>
<feBlend mode="normal" in2="shape" result="effect1_innerShadow"/>
<feColorMatrix in="SourceAlpha" type="matrix" values="0 0 0 0 0 0 0 0 0 0 0 0 0 0 0 0 0 0 127 0" result="hardAlpha"/>
<feOffset dx="-0.430527" dy="-0.430527"/>
<feGaussianBlur stdDeviation="0.172211"/>
<feComposite in2="hardAlpha" operator="arithmetic" k2="-1" k3="1"/>
<feColorMatrix type="matrix" values="0 0 0 0 0.266667 0 0 0 0 0.294118 0 0 0 0 0.329412 0 0 0 0.25 0"/>
<feBlend mode="normal" in2="effect1_innerShadow" result="effect2_innerShadow"/>
</filter>
<linearGradient id="paint0_linear" x1="655.217" y1="149.128" x2="10.7966" y2="149.128" gradientUnits="userSpaceOnUse">
<stop stop-color="#C58E8F"/>
<stop offset="1" stop-color="#C58E8F" stop-opacity="0.55"/>
</linearGradient>
<linearGradient id="paint1_linear" x1="257.659" y1="-0.0547116" x2="309.597" y2="397.398" gradientUnits="userSpaceOnUse">
<stop stop-color="#FFF3F3"/>
<stop offset="0.223958" stop-color="#FFF3F3"/>
<stop offset="0.514548" stop-color="#FFF3F3" stop-opacity="0.5"/>
<stop offset="0.78125" stop-color="#FFF3F3"/>
<stop offset="1" stop-color="#FFF3F3"/>
</linearGradient>
<linearGradient id="paint2_linear" x1="74.378" y1="66.1138" x2="-1.06079e-06" y2="1.19339e-06" gradientUnits="userSpaceOnUse">
<stop stop-color="#E9E9E9"/>
<stop offset="1" stop-color="#F6F6F6"/>
</linearGradient>
</defs>
</svg>
