<svg width="100%" height="100%" viewBox="0 0 134 164" fill="none" xmlns="http://www.w3.org/2000/svg">
<g filter="url(#filter0_d)">
<rect width="120" height="150" rx="15" fill="white"/>
</g>
<g filter="url(#filter1_ii)">
<rect x="5" y="5" width="110" height="110" rx="15" fill="#FFF3F3"/>
</g>
<path d="M45.0191 137.056C44.2538 137.056 43.5725 136.893 42.9751 136.566C42.3778 136.23 41.9111 135.773 41.5751 135.194C41.2391 134.606 41.0711 133.934 41.0711 133.178C41.0711 132.413 41.2298 131.741 41.5471 131.162C41.8645 130.574 42.3031 130.117 42.8631 129.79C43.4325 129.454 44.0811 129.286 44.8091 129.286C45.5278 129.286 46.1485 129.449 46.6711 129.776C47.2031 130.093 47.6091 130.537 47.8891 131.106C48.1691 131.666 48.3091 132.315 48.3091 133.052C48.3091 133.22 48.2531 133.36 48.1411 133.472C48.0291 133.575 47.8845 133.626 47.7071 133.626H41.9671V132.576H47.7211L47.1331 132.982C47.1331 132.487 47.0398 132.049 46.8531 131.666C46.6665 131.274 46.4005 130.966 46.0551 130.742C45.7098 130.518 45.2945 130.406 44.8091 130.406C44.2771 130.406 43.8151 130.527 43.4231 130.77C43.0405 131.003 42.7465 131.33 42.5411 131.75C42.3451 132.17 42.2471 132.646 42.2471 133.178C42.2471 133.71 42.3638 134.186 42.5971 134.606C42.8398 135.017 43.1665 135.343 43.5771 135.586C43.9971 135.819 44.4778 135.936 45.0191 135.936C45.3271 135.936 45.6351 135.88 45.9431 135.768C46.2605 135.656 46.5171 135.525 46.7131 135.376C46.8438 135.283 46.9838 135.236 47.1331 135.236C47.2825 135.227 47.4131 135.269 47.5251 135.362C47.6745 135.493 47.7538 135.637 47.7631 135.796C47.7725 135.945 47.7025 136.076 47.5531 136.188C47.2451 136.44 46.8531 136.65 46.3771 136.818C45.9011 136.977 45.4485 137.056 45.0191 137.056ZM60.2811 137.014C60.0944 137.014 59.9358 136.953 59.8051 136.832C59.6838 136.701 59.6231 136.543 59.6231 136.356V132.338C59.6231 131.731 59.4691 131.269 59.1611 130.952C58.8531 130.625 58.4518 130.462 57.9571 130.462C57.4438 130.462 57.0191 130.639 56.6831 130.994C56.3564 131.349 56.1931 131.806 56.1931 132.366H55.1011C55.1011 131.759 55.2318 131.223 55.4931 130.756C55.7544 130.289 56.1184 129.925 56.5851 129.664C57.0518 129.403 57.5838 129.272 58.1811 129.272C58.7224 129.272 59.1984 129.393 59.6091 129.636C60.0291 129.879 60.3558 130.229 60.5891 130.686C60.8224 131.143 60.9391 131.694 60.9391 132.338V136.356C60.9391 136.543 60.8784 136.701 60.7571 136.832C60.6358 136.953 60.4771 137.014 60.2811 137.014ZM50.7891 137.014C50.5931 137.014 50.4344 136.953 50.3131 136.832C50.1918 136.701 50.1311 136.543 50.1311 136.356V130.014C50.1311 129.818 50.1918 129.659 50.3131 129.538C50.4344 129.417 50.5931 129.356 50.7891 129.356C50.9851 129.356 51.1438 129.417 51.2651 129.538C51.3864 129.659 51.4471 129.818 51.4471 130.014V136.356C51.4471 136.543 51.3864 136.701 51.2651 136.832C51.1438 136.953 50.9851 137.014 50.7891 137.014ZM55.5491 137.014C55.3531 137.014 55.1944 136.953 55.0731 136.832C54.9518 136.701 54.8911 136.543 54.8911 136.356V132.338C54.8911 131.731 54.7371 131.269 54.4291 130.952C54.1211 130.625 53.7198 130.462 53.2251 130.462C52.7118 130.462 52.2871 130.639 51.9511 130.994C51.6151 131.339 51.4471 131.787 51.4471 132.338H50.5931C50.6024 131.741 50.7284 131.213 50.9711 130.756C51.2138 130.289 51.5498 129.925 51.9791 129.664C52.4084 129.403 52.8984 129.272 53.4491 129.272C53.9904 129.272 54.4664 129.393 54.8771 129.636C55.2971 129.879 55.6191 130.229 55.8431 130.686C56.0764 131.143 56.1931 131.694 56.1931 132.338V136.356C56.1931 136.543 56.1324 136.701 56.0111 136.832C55.8991 136.953 55.7451 137.014 55.5491 137.014ZM66.5588 137.056C65.8681 137.056 65.2474 136.888 64.6968 136.552C64.1461 136.216 63.7121 135.754 63.3948 135.166C63.0774 134.578 62.9188 133.915 62.9188 133.178C62.9188 132.431 63.0868 131.769 63.4228 131.19C63.7681 130.602 64.2301 130.14 64.8088 129.804C65.3968 129.459 66.0548 129.286 66.7828 129.286C67.5201 129.286 68.1781 129.459 68.7568 129.804C69.3354 130.14 69.7928 130.602 70.1288 131.19C70.4741 131.778 70.6468 132.441 70.6468 133.178L70.1428 133.29C70.1428 133.999 69.9841 134.639 69.6668 135.208C69.3588 135.777 68.9341 136.23 68.3928 136.566C67.8608 136.893 67.2494 137.056 66.5588 137.056ZM66.7828 135.894C67.2868 135.894 67.7301 135.777 68.1128 135.544C68.5048 135.301 68.8128 134.975 69.0368 134.564C69.2701 134.153 69.3868 133.691 69.3868 133.178C69.3868 132.655 69.2701 132.189 69.0368 131.778C68.8128 131.367 68.5048 131.045 68.1128 130.812C67.7301 130.569 67.2868 130.448 66.7828 130.448C66.2974 130.448 65.8541 130.569 65.4528 130.812C65.0608 131.045 64.7481 131.367 64.5148 131.778C64.2908 132.189 64.1788 132.655 64.1788 133.178C64.1788 133.691 64.2908 134.153 64.5148 134.564C64.7481 134.975 65.0608 135.301 65.4528 135.544C65.8541 135.777 66.2974 135.894 66.7828 135.894ZM69.9888 137.014C69.8021 137.014 69.6434 136.953 69.5128 136.832C69.3914 136.701 69.3308 136.543 69.3308 136.356V134.13L69.5968 132.772L70.6468 133.178V136.356C70.6468 136.543 70.5861 136.701 70.4648 136.832C70.3434 136.953 70.1848 137.014 69.9888 137.014ZM73.5977 137C73.4017 137 73.2431 136.939 73.1217 136.818C73.0004 136.697 72.9397 136.538 72.9397 136.342V130C72.9397 129.804 73.0004 129.645 73.1217 129.524C73.2431 129.403 73.4017 129.342 73.5977 129.342C73.7937 129.342 73.9524 129.403 74.0737 129.524C74.1951 129.645 74.2557 129.804 74.2557 130V136.342C74.2557 136.538 74.1951 136.697 74.0737 136.818C73.9524 136.939 73.7937 137 73.5977 137ZM73.5977 128.026C73.3644 128.026 73.1591 127.942 72.9817 127.774C72.8137 127.597 72.7297 127.391 72.7297 127.158C72.7297 126.906 72.8137 126.701 72.9817 126.542C73.1591 126.374 73.3644 126.29 73.5977 126.29C73.8311 126.29 74.0317 126.374 74.1997 126.542C74.3771 126.701 74.4657 126.906 74.4657 127.158C74.4657 127.391 74.3817 127.597 74.2137 127.774C74.0457 127.942 73.8404 128.026 73.5977 128.026ZM78.7056 137C78.3043 137 77.9496 136.893 77.6416 136.678C77.3336 136.454 77.091 136.155 76.9136 135.782C76.7456 135.399 76.6616 134.961 76.6616 134.466V126.71C76.6616 126.514 76.7176 126.36 76.8296 126.248C76.951 126.127 77.1096 126.066 77.3056 126.066C77.5016 126.066 77.6556 126.127 77.7676 126.248C77.889 126.36 77.9496 126.514 77.9496 126.71V134.466C77.9496 134.83 78.0196 135.129 78.1596 135.362C78.2996 135.595 78.4816 135.712 78.7056 135.712H79.0556C79.233 135.712 79.373 135.773 79.4756 135.894C79.5783 136.006 79.6296 136.16 79.6296 136.356C79.6296 136.552 79.5503 136.711 79.3916 136.832C79.233 136.944 79.0323 137 78.7896 137H78.7056Z" fill="#444B54"/>
<path d="M38.6875 50.1891C38.6875 47.0643 41.2206 44.5312 44.3453 44.5312H63.0758C66.3608 44.5312 68.9241 47.351 69.4579 50.5923C69.8407 52.9166 70.6265 55.3397 72.2031 56.7188C73.4565 57.815 75.3333 58.3597 77.2084 58.6097C80.6116 59.0635 83.6875 61.6558 83.6875 65.0892V75.9047C83.6875 79.0294 81.1544 81.5625 78.0297 81.5625H44.3453C41.2206 81.5625 38.6875 79.0294 38.6875 75.9047V50.1891Z" fill="white"/>
<path d="M39.1562 55.221V75.5841C39.1562 78.7081 41.6887 81.2405 44.8127 81.2405H77.9027C81.0267 81.2405 83.5592 78.7081 83.5592 75.5841V58.8976M45.944 57.7664C45.944 57.7664 51.8832 63.9884 60.3678 64.5541C68.8525 65.1197 75.3573 58.8976 75.3573 58.8976M39.1562 50.6957V50.1301C39.1562 47.0061 41.6887 44.4736 44.8127 44.4736H68.5697" stroke="#444B54" stroke-width="2.82821" stroke-linecap="round" stroke-linejoin="round"/>
<path d="M80.3973 55.9396C79.1416 55.9396 77.9877 55.7303 76.9356 55.3117C75.8835 54.8931 74.9728 54.2992 74.2035 53.5299C73.4342 52.7606 72.8403 51.85 72.4217 50.7979C72.0032 49.7458 71.7939 48.5919 71.7939 47.3361C71.7939 46.0804 72.0032 44.9265 72.4217 43.8744C72.8403 42.8223 73.4342 41.9116 74.2035 41.1424C74.9728 40.3731 75.8835 39.7792 76.9356 39.3606C77.9877 38.942 79.1416 38.7327 80.3973 38.7327C81.653 38.7327 82.8069 38.942 83.859 39.3606C84.9111 39.7792 85.8218 40.3731 86.5911 41.1424C87.3604 41.9116 87.9543 42.8223 88.3729 43.8744C88.7914 44.9265 89.0007 46.0804 89.0007 47.3361C89.0007 48.3882 88.8537 49.3215 88.5595 50.1361C88.2654 50.9393 87.8581 51.5728 87.3377 52.0366C86.8287 52.5005 86.2347 52.7324 85.556 52.7324C84.9338 52.7324 84.419 52.5627 84.0118 52.2233C83.6158 51.8952 83.4178 51.437 83.4178 50.8488V50.0852C83.2029 50.4698 82.9201 50.8148 82.5694 51.1203C82.23 51.4257 81.8567 51.6633 81.4494 51.833C81.0421 52.0027 80.6349 52.0875 80.2276 52.0875C79.3339 52.0875 78.542 51.8839 77.8519 51.4766C77.1731 51.0694 76.6358 50.5094 76.2398 49.7967C75.8552 49.084 75.6629 48.2638 75.6629 47.3361C75.6629 46.4085 75.8665 45.5883 76.2738 44.8756C76.681 44.1629 77.241 43.6029 77.9537 43.1956C78.6664 42.7884 79.481 42.5847 80.3973 42.5847C81.325 42.5847 82.1451 42.7884 82.8578 43.1956C83.5706 43.6029 84.1305 44.1629 84.5378 44.8756C84.9451 45.5883 85.1487 46.4085 85.1487 47.3361V50.0512C85.1487 50.334 85.1939 50.5546 85.2845 50.713C85.375 50.8714 85.522 50.9506 85.7257 50.9506C85.9972 50.9506 86.246 50.7979 86.4723 50.4924C86.7099 50.187 86.8965 49.7627 87.0323 49.2197C87.168 48.6654 87.2359 48.0375 87.2359 47.3361C87.2359 46.3293 87.0662 45.413 86.7268 44.5871C86.3988 43.75 85.9293 43.0259 85.3184 42.4151C84.7075 41.8042 83.9835 41.3347 83.1463 41.0066C82.3205 40.6672 81.4041 40.4975 80.3973 40.4975C79.4018 40.4975 78.4854 40.6672 77.6483 41.0066C76.8111 41.3347 76.0871 41.8042 75.4762 42.4151C74.8653 43.0259 74.3902 43.75 74.0508 44.5871C73.7227 45.413 73.5587 46.3293 73.5587 47.3361C73.5587 48.3317 73.7227 49.248 74.0508 50.0852C74.3902 50.9223 74.8653 51.6463 75.4762 52.2572C76.0871 52.8681 76.8111 53.3376 77.6483 53.6657C78.4854 54.0051 79.4018 54.1748 80.3973 54.1748C80.8498 54.1748 81.3363 54.1182 81.8567 54.0051C82.3884 53.9032 82.8409 53.7675 83.2142 53.5978C83.5988 53.4055 83.9099 53.3829 84.1475 53.5299C84.3964 53.677 84.5208 53.9598 84.5208 54.3784C84.5208 54.6838 84.3455 54.9497 83.9948 55.1759C83.6441 55.4135 83.1576 55.6002 82.5354 55.7359C81.9132 55.8717 81.2005 55.9396 80.3973 55.9396ZM80.3973 50.3058C80.9856 50.3058 81.5003 50.1813 81.9415 49.9324C82.3827 49.6722 82.7277 49.3215 82.9766 48.8803C83.2368 48.4278 83.3669 47.9131 83.3669 47.3361C83.3669 46.7479 83.2368 46.2331 82.9766 45.7919C82.7277 45.3507 82.3827 45.0057 81.9415 44.7568C81.5003 44.4966 80.9856 44.3665 80.3973 44.3665C79.809 44.3665 79.2943 44.4966 78.8531 44.7568C78.4119 45.0057 78.0612 45.3507 77.801 45.7919C77.5521 46.2331 77.4277 46.7479 77.4277 47.3361C77.4277 47.9131 77.5521 48.4278 77.801 48.8803C78.0612 49.3215 78.4119 49.6722 78.8531 49.9324C79.2943 50.1813 79.809 50.3058 80.3973 50.3058Z" fill="#C58E8F"/>
<defs>
<filter id="filter0_d" x="0" y="0" width="134" height="164" filterUnits="userSpaceOnUse" color-interpolation-filters="sRGB">
<feFlood flood-opacity="0" result="BackgroundImageFix"/>
<feColorMatrix in="SourceAlpha" type="matrix" values="0 0 0 0 0 0 0 0 0 0 0 0 0 0 0 0 0 0 127 0" result="hardAlpha"/>
<feOffset dx="10" dy="10"/>
<feGaussianBlur stdDeviation="2"/>
<feComposite in2="hardAlpha" operator="out"/>
<feColorMatrix type="matrix" values="0 0 0 0 0.266667 0 0 0 0 0.294118 0 0 0 0 0.329412 0 0 0 1 0"/>
<feBlend mode="normal" in2="BackgroundImageFix" result="effect1_dropShadow"/>
<feBlend mode="normal" in="SourceGraphic" in2="effect1_dropShadow" result="shape"/>
</filter>
<filter id="filter1_ii" x="4" y="4" width="112" height="112" filterUnits="userSpaceOnUse" color-interpolation-filters="sRGB">
<feFlood flood-opacity="0" result="BackgroundImageFix"/>
<feBlend mode="normal" in="SourceGraphic" in2="BackgroundImageFix" result="shape"/>
<feColorMatrix in="SourceAlpha" type="matrix" values="0 0 0 0 0 0 0 0 0 0 0 0 0 0 0 0 0 0 127 0" result="hardAlpha"/>
<feOffset dx="1" dy="1"/>
<feGaussianBlur stdDeviation="1"/>
<feComposite in2="hardAlpha" operator="arithmetic" k2="-1" k3="1"/>
<feColorMatrix type="matrix" values="0 0 0 0 0.266667 0 0 0 0 0.294118 0 0 0 0 0.329412 0 0 0 0.4 0"/>
<feBlend mode="normal" in2="shape" result="effect1_innerShadow"/>
<feColorMatrix in="SourceAlpha" type="matrix" values="0 0 0 0 0 0 0 0 0 0 0 0 0 0 0 0 0 0 127 0" result="hardAlpha"/>
<feOffset dx="-1" dy="-1"/>
<feGaussianBlur stdDeviation="0.5"/>
<feComposite in2="hardAlpha" operator="arithmetic" k2="-1" k3="1"/>
<feColorMatrix type="matrix" values="0 0 0 0 1 0 0 0 0 1 0 0 0 0 1 0 0 0 0.7 0"/>
<feBlend mode="normal" in2="effect1_innerShadow" result="effect2_innerShadow"/>
</filter>
</defs>
</svg>
