<svg width="100%" height="100%" viewBox="0 0 134 164" fill="none" xmlns="http://www.w3.org/2000/svg">
<g filter="url(#filter0_d)">
<rect width="120" height="150" rx="15" fill="white"/>
</g>
<g filter="url(#filter1_ii)">
<rect x="5" y="5" width="110" height="110" rx="15" fill="#FFF3F3"/>
</g>
<path d="M28.0577 137C27.8897 137 27.7404 136.939 27.6097 136.818C27.4884 136.697 27.4277 136.538 27.4277 136.342V129.37C27.4277 128.707 27.5537 128.129 27.8057 127.634C28.0577 127.139 28.4124 126.757 28.8697 126.486C29.3364 126.206 29.887 126.066 30.5217 126.066C30.7084 126.066 30.8624 126.122 30.9837 126.234C31.1144 126.346 31.1797 126.486 31.1797 126.654C31.1797 126.822 31.1144 126.967 30.9837 127.088C30.8624 127.2 30.7084 127.256 30.5217 127.256C30.1484 127.256 29.8264 127.34 29.5557 127.508C29.2944 127.676 29.0937 127.909 28.9537 128.208C28.8137 128.507 28.7437 128.857 28.7437 129.258V136.342C28.7437 136.538 28.683 136.697 28.5617 136.818C28.4404 136.939 28.2724 137 28.0577 137ZM26.7277 130.742C26.5504 130.742 26.4057 130.691 26.2937 130.588C26.1817 130.476 26.1257 130.345 26.1257 130.196C26.1257 130.019 26.1817 129.879 26.2937 129.776C26.4057 129.673 26.5504 129.622 26.7277 129.622H30.2557C30.433 129.622 30.5777 129.673 30.6897 129.776C30.8017 129.879 30.8577 130.019 30.8577 130.196C30.8577 130.345 30.8017 130.476 30.6897 130.588C30.5777 130.691 30.433 130.742 30.2557 130.742H26.7277ZM35.3049 137.056C34.6142 137.056 33.9935 136.888 33.4429 136.552C32.8922 136.216 32.4582 135.754 32.1409 135.166C31.8235 134.578 31.6649 133.915 31.6649 133.178C31.6649 132.431 31.8329 131.769 32.1689 131.19C32.5142 130.602 32.9762 130.14 33.5549 129.804C34.1429 129.459 34.8009 129.286 35.5289 129.286C36.2662 129.286 36.9242 129.459 37.5029 129.804C38.0815 130.14 38.5389 130.602 38.8749 131.19C39.2202 131.778 39.3929 132.441 39.3929 133.178L38.8889 133.29C38.8889 133.999 38.7302 134.639 38.4129 135.208C38.1049 135.777 37.6802 136.23 37.1389 136.566C36.6069 136.893 35.9955 137.056 35.3049 137.056ZM35.5289 135.894C36.0329 135.894 36.4762 135.777 36.8589 135.544C37.2509 135.301 37.5589 134.975 37.7829 134.564C38.0162 134.153 38.1329 133.691 38.1329 133.178C38.1329 132.655 38.0162 132.189 37.7829 131.778C37.5589 131.367 37.2509 131.045 36.8589 130.812C36.4762 130.569 36.0329 130.448 35.5289 130.448C35.0435 130.448 34.6002 130.569 34.1989 130.812C33.8069 131.045 33.4942 131.367 33.2609 131.778C33.0369 132.189 32.9249 132.655 32.9249 133.178C32.9249 133.691 33.0369 134.153 33.2609 134.564C33.4942 134.975 33.8069 135.301 34.1989 135.544C34.6002 135.777 35.0435 135.894 35.5289 135.894ZM38.7349 137.014C38.5482 137.014 38.3895 136.953 38.2589 136.832C38.1375 136.701 38.0769 136.543 38.0769 136.356V134.13L38.3429 132.772L39.3929 133.178V136.356C39.3929 136.543 39.3322 136.701 39.2109 136.832C39.0895 136.953 38.9309 137.014 38.7349 137.014ZM44.9758 137.056C44.2291 137.056 43.5665 136.888 42.9878 136.552C42.4091 136.207 41.9518 135.745 41.6158 135.166C41.2891 134.578 41.1258 133.915 41.1258 133.178C41.1258 132.422 41.2845 131.75 41.6018 131.162C41.9285 130.574 42.3718 130.117 42.9318 129.79C43.5011 129.454 44.1498 129.286 44.8778 129.286C45.4378 129.286 45.9465 129.393 46.4038 129.608C46.8705 129.823 47.2858 130.145 47.6498 130.574C47.7711 130.705 47.8131 130.845 47.7758 130.994C47.7478 131.143 47.6545 131.274 47.4958 131.386C47.3745 131.47 47.2391 131.498 47.0898 131.47C46.9498 131.442 46.8191 131.367 46.6978 131.246C46.2125 130.714 45.6058 130.448 44.8778 130.448C44.3831 130.448 43.9491 130.565 43.5758 130.798C43.2025 131.022 42.9085 131.339 42.6938 131.75C42.4885 132.161 42.3858 132.637 42.3858 133.178C42.3858 133.701 42.4931 134.167 42.7078 134.578C42.9318 134.979 43.2351 135.301 43.6178 135.544C44.0098 135.777 44.4625 135.894 44.9758 135.894C45.3118 135.894 45.6105 135.852 45.8718 135.768C46.1425 135.684 46.3851 135.549 46.5998 135.362C46.7398 135.25 46.8798 135.189 47.0198 135.18C47.1691 135.171 47.2998 135.213 47.4118 135.306C47.5611 135.427 47.6405 135.567 47.6498 135.726C47.6685 135.875 47.6171 136.006 47.4958 136.118C46.8238 136.743 45.9838 137.056 44.9758 137.056ZM53.4547 137.056C52.6893 137.056 52.008 136.893 51.4107 136.566C50.8133 136.23 50.3467 135.773 50.0107 135.194C49.6747 134.606 49.5067 133.934 49.5067 133.178C49.5067 132.413 49.6653 131.741 49.9827 131.162C50.3 130.574 50.7387 130.117 51.2987 129.79C51.868 129.454 52.5167 129.286 53.2447 129.286C53.9633 129.286 54.584 129.449 55.1067 129.776C55.6387 130.093 56.0447 130.537 56.3247 131.106C56.6047 131.666 56.7447 132.315 56.7447 133.052C56.7447 133.22 56.6887 133.36 56.5767 133.472C56.4647 133.575 56.32 133.626 56.1427 133.626H50.4027V132.576H56.1567L55.5687 132.982C55.5687 132.487 55.4753 132.049 55.2887 131.666C55.102 131.274 54.836 130.966 54.4907 130.742C54.1453 130.518 53.73 130.406 53.2447 130.406C52.7127 130.406 52.2507 130.527 51.8587 130.77C51.476 131.003 51.182 131.33 50.9767 131.75C50.7807 132.17 50.6827 132.646 50.6827 133.178C50.6827 133.71 50.7993 134.186 51.0327 134.606C51.2753 135.017 51.602 135.343 52.0127 135.586C52.4327 135.819 52.9133 135.936 53.4547 135.936C53.7627 135.936 54.0707 135.88 54.3787 135.768C54.696 135.656 54.9527 135.525 55.1487 135.376C55.2793 135.283 55.4193 135.236 55.5687 135.236C55.718 135.227 55.8487 135.269 55.9607 135.362C56.11 135.493 56.1893 135.637 56.1987 135.796C56.208 135.945 56.138 136.076 55.9887 136.188C55.6807 136.44 55.2887 136.65 54.8127 136.818C54.3367 136.977 53.884 137.056 53.4547 137.056ZM62.4306 137.056C61.7026 137.056 61.0446 136.888 60.4566 136.552C59.878 136.216 59.4206 135.754 59.0846 135.166C58.7486 134.578 58.576 133.915 58.5666 133.178V126.724C58.5666 126.528 58.6273 126.369 58.7486 126.248C58.87 126.127 59.0286 126.066 59.2246 126.066C59.4206 126.066 59.5793 126.127 59.7006 126.248C59.822 126.369 59.8826 126.528 59.8826 126.724V130.616C60.2 130.205 60.5966 129.883 61.0726 129.65C61.5486 129.407 62.076 129.286 62.6546 129.286C63.3453 129.286 63.966 129.459 64.5166 129.804C65.0673 130.14 65.5013 130.602 65.8186 131.19C66.1453 131.769 66.3086 132.427 66.3086 133.164C66.3086 133.901 66.136 134.564 65.7906 135.152C65.4546 135.74 64.9926 136.207 64.4046 136.552C63.826 136.888 63.168 137.056 62.4306 137.056ZM62.4306 135.894C62.9253 135.894 63.3686 135.777 63.7606 135.544C64.1526 135.301 64.4606 134.975 64.6846 134.564C64.918 134.144 65.0346 133.677 65.0346 133.164C65.0346 132.641 64.918 132.179 64.6846 131.778C64.4606 131.367 64.1526 131.045 63.7606 130.812C63.3686 130.569 62.9253 130.448 62.4306 130.448C61.936 130.448 61.4926 130.569 61.1006 130.812C60.7086 131.045 60.4006 131.367 60.1766 131.778C59.9526 132.179 59.8406 132.641 59.8406 133.164C59.8406 133.677 59.9526 134.144 60.1766 134.564C60.4006 134.975 60.7086 135.301 61.1006 135.544C61.4926 135.777 61.936 135.894 62.4306 135.894ZM71.8961 137.056C71.1494 137.056 70.4821 136.893 69.8941 136.566C69.3154 136.23 68.8581 135.773 68.5221 135.194C68.1954 134.606 68.0321 133.934 68.0321 133.178C68.0321 132.413 68.1954 131.741 68.5221 131.162C68.8581 130.574 69.3154 130.117 69.8941 129.79C70.4821 129.454 71.1494 129.286 71.8961 129.286C72.6427 129.286 73.3054 129.454 73.8841 129.79C74.4627 130.117 74.9201 130.574 75.2561 131.162C75.5921 131.741 75.7601 132.413 75.7601 133.178C75.7601 133.934 75.5921 134.606 75.2561 135.194C74.9294 135.773 74.4767 136.23 73.8981 136.566C73.3194 136.893 72.6521 137.056 71.8961 137.056ZM71.8961 135.894C72.4001 135.894 72.8481 135.777 73.2401 135.544C73.6321 135.311 73.9401 134.993 74.1641 134.592C74.3881 134.181 74.5001 133.71 74.5001 133.178C74.5001 132.646 74.3881 132.175 74.1641 131.764C73.9401 131.353 73.6321 131.031 73.2401 130.798C72.8481 130.565 72.4001 130.448 71.8961 130.448C71.3921 130.448 70.9441 130.565 70.5521 130.798C70.1601 131.031 69.8521 131.353 69.6281 131.764C69.4041 132.175 69.2921 132.646 69.2921 133.178C69.2921 133.71 69.4041 134.181 69.6281 134.592C69.8521 134.993 70.1601 135.311 70.5521 135.544C70.9441 135.777 71.3921 135.894 71.8961 135.894ZM81.357 137.056C80.6103 137.056 79.943 136.893 79.355 136.566C78.7763 136.23 78.319 135.773 77.983 135.194C77.6563 134.606 77.493 133.934 77.493 133.178C77.493 132.413 77.6563 131.741 77.983 131.162C78.319 130.574 78.7763 130.117 79.355 129.79C79.943 129.454 80.6103 129.286 81.357 129.286C82.1037 129.286 82.7663 129.454 83.345 129.79C83.9237 130.117 84.381 130.574 84.717 131.162C85.053 131.741 85.221 132.413 85.221 133.178C85.221 133.934 85.053 134.606 84.717 135.194C84.3903 135.773 83.9377 136.23 83.359 136.566C82.7803 136.893 82.113 137.056 81.357 137.056ZM81.357 135.894C81.861 135.894 82.309 135.777 82.701 135.544C83.093 135.311 83.401 134.993 83.625 134.592C83.849 134.181 83.961 133.71 83.961 133.178C83.961 132.646 83.849 132.175 83.625 131.764C83.401 131.353 83.093 131.031 82.701 130.798C82.309 130.565 81.861 130.448 81.357 130.448C80.853 130.448 80.405 130.565 80.013 130.798C79.621 131.031 79.313 131.353 79.089 131.764C78.865 132.175 78.753 132.646 78.753 133.178C78.753 133.71 78.865 134.181 79.089 134.592C79.313 134.993 79.621 135.311 80.013 135.544C80.405 135.777 80.853 135.894 81.357 135.894ZM88.5359 134.284L87.7379 133.402L92.2039 129.412C92.3346 129.291 92.4746 129.235 92.6239 129.244C92.7826 129.244 92.9179 129.309 93.0299 129.44C93.1513 129.571 93.2073 129.715 93.1979 129.874C93.1979 130.023 93.1326 130.159 93.0019 130.28L88.5359 134.284ZM87.9759 137C87.7893 137 87.6353 136.944 87.5139 136.832C87.4019 136.711 87.3459 136.557 87.3459 136.37V126.696C87.3459 126.509 87.4019 126.36 87.5139 126.248C87.6353 126.127 87.7893 126.066 87.9759 126.066C88.1719 126.066 88.3259 126.127 88.4379 126.248C88.5593 126.36 88.6199 126.509 88.6199 126.696V136.37C88.6199 136.557 88.5593 136.711 88.4379 136.832C88.3259 136.944 88.1719 137 87.9759 137ZM93.0439 136.93C92.9039 137.042 92.7499 137.089 92.5819 137.07C92.4139 137.061 92.2739 136.986 92.1619 136.846L89.2359 133.234L90.1319 132.394L93.1279 136.076C93.2399 136.207 93.2866 136.351 93.2679 136.51C93.2586 136.669 93.1839 136.809 93.0439 136.93Z" fill="#444B54"/>
<rect x="30" y="30" width="60" height="60" rx="9.375" fill="#3B5998"/>
<path d="M65.625 41.25H71.25V48.75H67.5C65.4289 48.75 63.75 50.4289 63.75 52.5V56.25H71.25L69.2934 63.75H63.4239V78.75H55.5978V63.75H48.75V56.3243H56.25V50.625C56.25 45.4473 60.4474 41.25 65.625 41.25Z" stroke="white" stroke-width="2.8125" stroke-linecap="round" stroke-linejoin="round"/>
<defs>
<filter id="filter0_d" x="0" y="0" width="134" height="164" filterUnits="userSpaceOnUse" color-interpolation-filters="sRGB">
<feFlood flood-opacity="0" result="BackgroundImageFix"/>
<feColorMatrix in="SourceAlpha" type="matrix" values="0 0 0 0 0 0 0 0 0 0 0 0 0 0 0 0 0 0 127 0" result="hardAlpha"/>
<feOffset dx="10" dy="10"/>
<feGaussianBlur stdDeviation="2"/>
<feComposite in2="hardAlpha" operator="out"/>
<feColorMatrix type="matrix" values="0 0 0 0 0.266667 0 0 0 0 0.294118 0 0 0 0 0.329412 0 0 0 1 0"/>
<feBlend mode="normal" in2="BackgroundImageFix" result="effect1_dropShadow"/>
<feBlend mode="normal" in="SourceGraphic" in2="effect1_dropShadow" result="shape"/>
</filter>
<filter id="filter1_ii" x="4" y="4" width="112" height="112" filterUnits="userSpaceOnUse" color-interpolation-filters="sRGB">
<feFlood flood-opacity="0" result="BackgroundImageFix"/>
<feBlend mode="normal" in="SourceGraphic" in2="BackgroundImageFix" result="shape"/>
<feColorMatrix in="SourceAlpha" type="matrix" values="0 0 0 0 0 0 0 0 0 0 0 0 0 0 0 0 0 0 127 0" result="hardAlpha"/>
<feOffset dx="1" dy="1"/>
<feGaussianBlur stdDeviation="1"/>
<feComposite in2="hardAlpha" operator="arithmetic" k2="-1" k3="1"/>
<feColorMatrix type="matrix" values="0 0 0 0 0.266667 0 0 0 0 0.294118 0 0 0 0 0.329412 0 0 0 0.4 0"/>
<feBlend mode="normal" in2="shape" result="effect1_innerShadow"/>
<feColorMatrix in="SourceAlpha" type="matrix" values="0 0 0 0 0 0 0 0 0 0 0 0 0 0 0 0 0 0 127 0" result="hardAlpha"/>
<feOffset dx="-1" dy="-1"/>
<feGaussianBlur stdDeviation="0.5"/>
<feComposite in2="hardAlpha" operator="arithmetic" k2="-1" k3="1"/>
<feColorMatrix type="matrix" values="0 0 0 0 1 0 0 0 0 1 0 0 0 0 1 0 0 0 0.7 0"/>
<feBlend mode="normal" in2="effect1_innerShadow" result="effect2_innerShadow"/>
</filter>
</defs>
</svg>
