<svg width="100%" height="100%" viewBox="0 0 134 164" fill="none" xmlns="http://www.w3.org/2000/svg">
<g filter="url(#filter0_d)">
<rect width="120" height="150" rx="15" fill="white"/>
</g>
<g filter="url(#filter1_ii)">
<rect x="5" y="5" width="110" height="110" rx="15" fill="#FFF3F3"/>
</g>
<path d="M34.5113 137C34.11 137 33.7553 136.893 33.4473 136.678C33.1393 136.454 32.8966 136.155 32.7193 135.782C32.5513 135.399 32.4673 134.961 32.4673 134.466V126.71C32.4673 126.514 32.5233 126.36 32.6353 126.248C32.7566 126.127 32.9153 126.066 33.1113 126.066C33.3073 126.066 33.4613 126.127 33.5733 126.248C33.6946 126.36 33.7553 126.514 33.7553 126.71V134.466C33.7553 134.83 33.8253 135.129 33.9653 135.362C34.1053 135.595 34.2873 135.712 34.5113 135.712H34.8613C35.0386 135.712 35.1786 135.773 35.2813 135.894C35.384 136.006 35.4353 136.16 35.4353 136.356C35.4353 136.552 35.356 136.711 35.1973 136.832C35.0386 136.944 34.838 137 34.5953 137H34.5113ZM37.6885 137C37.4925 137 37.3339 136.939 37.2125 136.818C37.0912 136.697 37.0305 136.538 37.0305 136.342V130C37.0305 129.804 37.0912 129.645 37.2125 129.524C37.3339 129.403 37.4925 129.342 37.6885 129.342C37.8845 129.342 38.0432 129.403 38.1645 129.524C38.2859 129.645 38.3465 129.804 38.3465 130V136.342C38.3465 136.538 38.2859 136.697 38.1645 136.818C38.0432 136.939 37.8845 137 37.6885 137ZM37.6885 128.026C37.4552 128.026 37.2499 127.942 37.0725 127.774C36.9045 127.597 36.8205 127.391 36.8205 127.158C36.8205 126.906 36.9045 126.701 37.0725 126.542C37.2499 126.374 37.4552 126.29 37.6885 126.29C37.9219 126.29 38.1225 126.374 38.2905 126.542C38.4679 126.701 38.5565 126.906 38.5565 127.158C38.5565 127.391 38.4725 127.597 38.3045 127.774C38.1365 127.942 37.9312 128.026 37.6885 128.026ZM47.5285 137.014C47.3418 137.014 47.1831 136.953 47.0525 136.832C46.9311 136.701 46.8705 136.543 46.8705 136.356V132.842C46.8705 132.301 46.7678 131.857 46.5625 131.512C46.3665 131.157 46.0911 130.896 45.7365 130.728C45.3911 130.551 44.9991 130.462 44.5605 130.462C44.1405 130.462 43.7625 130.546 43.4265 130.714C43.0998 130.882 42.8385 131.106 42.6425 131.386C42.4465 131.666 42.3485 131.983 42.3485 132.338H41.4945C41.5038 131.75 41.6531 131.227 41.9425 130.77C42.2318 130.303 42.6238 129.939 43.1185 129.678C43.6131 129.407 44.1685 129.272 44.7845 129.272C45.4285 129.272 46.0071 129.412 46.5205 129.692C47.0338 129.963 47.4398 130.364 47.7385 130.896C48.0371 131.428 48.1865 132.077 48.1865 132.842V136.356C48.1865 136.543 48.1211 136.701 47.9905 136.832C47.8691 136.953 47.7151 137.014 47.5285 137.014ZM41.6905 137.014C41.4945 137.014 41.3358 136.953 41.2145 136.832C41.0931 136.701 41.0325 136.543 41.0325 136.356V130C41.0325 129.804 41.0931 129.645 41.2145 129.524C41.3358 129.403 41.4945 129.342 41.6905 129.342C41.8865 129.342 42.0451 129.403 42.1665 129.524C42.2878 129.645 42.3485 129.804 42.3485 130V136.356C42.3485 136.543 42.2878 136.701 42.1665 136.832C42.0451 136.953 41.8865 137.014 41.6905 137.014ZM51.7381 134.284L50.9401 133.402L55.4061 129.412C55.5368 129.291 55.6768 129.235 55.8261 129.244C55.9848 129.244 56.1201 129.309 56.2321 129.44C56.3534 129.571 56.4094 129.715 56.4001 129.874C56.4001 130.023 56.3348 130.159 56.2041 130.28L51.7381 134.284ZM51.1781 137C50.9914 137 50.8374 136.944 50.7161 136.832C50.6041 136.711 50.5481 136.557 50.5481 136.37V126.696C50.5481 126.509 50.6041 126.36 50.7161 126.248C50.8374 126.127 50.9914 126.066 51.1781 126.066C51.3741 126.066 51.5281 126.127 51.6401 126.248C51.7614 126.36 51.8221 126.509 51.8221 126.696V136.37C51.8221 136.557 51.7614 136.711 51.6401 136.832C51.5281 136.944 51.3741 137 51.1781 137ZM56.2461 136.93C56.1061 137.042 55.9521 137.089 55.7841 137.07C55.6161 137.061 55.4761 136.986 55.3641 136.846L52.4381 133.234L53.3341 132.394L56.3301 136.076C56.4421 136.207 56.4888 136.351 56.4701 136.51C56.4608 136.669 56.3861 136.809 56.2461 136.93ZM61.3912 137.056C60.6259 137.056 59.9445 136.893 59.3472 136.566C58.7499 136.23 58.2832 135.773 57.9472 135.194C57.6112 134.606 57.4432 133.934 57.4432 133.178C57.4432 132.413 57.6019 131.741 57.9192 131.162C58.2365 130.574 58.6752 130.117 59.2352 129.79C59.8045 129.454 60.4532 129.286 61.1812 129.286C61.8999 129.286 62.5205 129.449 63.0432 129.776C63.5752 130.093 63.9812 130.537 64.2612 131.106C64.5412 131.666 64.6812 132.315 64.6812 133.052C64.6812 133.22 64.6252 133.36 64.5132 133.472C64.4012 133.575 64.2565 133.626 64.0792 133.626H58.3392V132.576H64.0932L63.5052 132.982C63.5052 132.487 63.4119 132.049 63.2252 131.666C63.0385 131.274 62.7725 130.966 62.4272 130.742C62.0819 130.518 61.6665 130.406 61.1812 130.406C60.6492 130.406 60.1872 130.527 59.7952 130.77C59.4125 131.003 59.1185 131.33 58.9132 131.75C58.7172 132.17 58.6192 132.646 58.6192 133.178C58.6192 133.71 58.7359 134.186 58.9692 134.606C59.2119 135.017 59.5385 135.343 59.9492 135.586C60.3692 135.819 60.8499 135.936 61.3912 135.936C61.6992 135.936 62.0072 135.88 62.3152 135.768C62.6325 135.656 62.8892 135.525 63.0852 135.376C63.2159 135.283 63.3559 135.236 63.5052 135.236C63.6545 135.227 63.7852 135.269 63.8972 135.362C64.0465 135.493 64.1259 135.637 64.1352 135.796C64.1445 135.945 64.0745 136.076 63.9252 136.188C63.6172 136.44 63.2252 136.65 62.7492 136.818C62.2732 136.977 61.8205 137.056 61.3912 137.056ZM69.7017 137.056C68.9737 137.056 68.3157 136.888 67.7277 136.552C67.1491 136.207 66.6871 135.74 66.3417 135.152C66.0057 134.564 65.8377 133.901 65.8377 133.164C65.8377 132.427 65.9964 131.769 66.3137 131.19C66.6311 130.602 67.0651 130.14 67.6157 129.804C68.1664 129.459 68.7871 129.286 69.4777 129.286C70.0564 129.286 70.5837 129.407 71.0597 129.65C71.5451 129.883 71.9417 130.205 72.2497 130.616V126.724C72.2497 126.528 72.3104 126.369 72.4317 126.248C72.5624 126.127 72.7211 126.066 72.9077 126.066C73.1037 126.066 73.2624 126.127 73.3837 126.248C73.5051 126.369 73.5657 126.528 73.5657 126.724V133.178C73.5657 133.915 73.3931 134.578 73.0477 135.166C72.7117 135.754 72.2497 136.216 71.6617 136.552C71.0831 136.888 70.4297 137.056 69.7017 137.056ZM69.7017 135.894C70.2057 135.894 70.6491 135.777 71.0317 135.544C71.4237 135.301 71.7317 134.975 71.9557 134.564C72.1891 134.144 72.3057 133.677 72.3057 133.164C72.3057 132.641 72.1891 132.179 71.9557 131.778C71.7317 131.367 71.4237 131.045 71.0317 130.812C70.6491 130.569 70.2057 130.448 69.7017 130.448C69.2164 130.448 68.7731 130.569 68.3717 130.812C67.9797 131.045 67.6671 131.367 67.4337 131.778C67.2097 132.179 67.0977 132.641 67.0977 133.164C67.0977 133.677 67.2097 134.144 67.4337 134.564C67.6671 134.975 67.9797 135.301 68.3717 135.544C68.7731 135.777 69.2164 135.894 69.7017 135.894ZM76.9131 137C76.7171 137 76.5585 136.939 76.4371 136.818C76.3158 136.697 76.2551 136.538 76.2551 136.342V130C76.2551 129.804 76.3158 129.645 76.4371 129.524C76.5585 129.403 76.7171 129.342 76.9131 129.342C77.1091 129.342 77.2678 129.403 77.3891 129.524C77.5105 129.645 77.5711 129.804 77.5711 130V136.342C77.5711 136.538 77.5105 136.697 77.3891 136.818C77.2678 136.939 77.1091 137 76.9131 137ZM76.9131 128.026C76.6798 128.026 76.4745 127.942 76.2971 127.774C76.1291 127.597 76.0451 127.391 76.0451 127.158C76.0451 126.906 76.1291 126.701 76.2971 126.542C76.4745 126.374 76.6798 126.29 76.9131 126.29C77.1465 126.29 77.3471 126.374 77.5151 126.542C77.6925 126.701 77.7811 126.906 77.7811 127.158C77.7811 127.391 77.6971 127.597 77.5291 127.774C77.3611 127.942 77.1558 128.026 76.9131 128.026ZM86.7531 137.014C86.5664 137.014 86.4077 136.953 86.2771 136.832C86.1557 136.701 86.0951 136.543 86.0951 136.356V132.842C86.0951 132.301 85.9924 131.857 85.7871 131.512C85.5911 131.157 85.3157 130.896 84.9611 130.728C84.6157 130.551 84.2237 130.462 83.7851 130.462C83.3651 130.462 82.9871 130.546 82.6511 130.714C82.3244 130.882 82.0631 131.106 81.8671 131.386C81.6711 131.666 81.5731 131.983 81.5731 132.338H80.7191C80.7284 131.75 80.8777 131.227 81.1671 130.77C81.4564 130.303 81.8484 129.939 82.3431 129.678C82.8377 129.407 83.3931 129.272 84.0091 129.272C84.6531 129.272 85.2317 129.412 85.7451 129.692C86.2584 129.963 86.6644 130.364 86.9631 130.896C87.2617 131.428 87.4111 132.077 87.4111 132.842V136.356C87.4111 136.543 87.3457 136.701 87.2151 136.832C87.0937 136.953 86.9397 137.014 86.7531 137.014ZM80.9151 137.014C80.7191 137.014 80.5604 136.953 80.4391 136.832C80.3177 136.701 80.2571 136.543 80.2571 136.356V130C80.2571 129.804 80.3177 129.645 80.4391 129.524C80.5604 129.403 80.7191 129.342 80.9151 129.342C81.1111 129.342 81.2697 129.403 81.3911 129.524C81.5124 129.645 81.5731 129.804 81.5731 130V136.356C81.5731 136.543 81.5124 136.701 81.3911 136.832C81.2697 136.953 81.1111 137.014 80.9151 137.014Z" fill="#444B54"/>
<rect x="30" y="30" width="60" height="60" rx="9.375" fill="#0072B1"/>
<path d="M44.7 48.4497C46.771 48.4497 48.45 46.7708 48.45 44.6997C48.45 42.6286 46.771 40.9497 44.7 40.9497C42.6289 40.9497 40.95 42.6286 40.95 44.6997C40.95 46.7708 42.6289 48.4497 44.7 48.4497Z" stroke="white" stroke-width="2.8125" stroke-linecap="round" stroke-linejoin="round"/>
<path d="M48.45 54.0747H40.95V78.4497H48.45V54.0747Z" stroke="white" stroke-width="2.8125" stroke-linecap="round" stroke-linejoin="round"/>
<path d="M55.95 78.4497H63.45V65.3247C63.45 63.2536 65.1288 61.5747 67.2 61.5747C69.2711 61.5747 70.95 63.2536 70.95 65.3247V78.4497H78.45V65.3247C78.45 59.1115 73.4131 54.0747 67.2 54.0747C60.9868 54.0747 55.95 59.1115 55.95 65.3247V78.4497Z" stroke="white" stroke-width="2.8125" stroke-linecap="round" stroke-linejoin="round"/>
<defs>
<filter id="filter0_d" x="0" y="0" width="134" height="164" filterUnits="userSpaceOnUse" color-interpolation-filters="sRGB">
<feFlood flood-opacity="0" result="BackgroundImageFix"/>
<feColorMatrix in="SourceAlpha" type="matrix" values="0 0 0 0 0 0 0 0 0 0 0 0 0 0 0 0 0 0 127 0" result="hardAlpha"/>
<feOffset dx="10" dy="10"/>
<feGaussianBlur stdDeviation="2"/>
<feComposite in2="hardAlpha" operator="out"/>
<feColorMatrix type="matrix" values="0 0 0 0 0.266667 0 0 0 0 0.294118 0 0 0 0 0.329412 0 0 0 1 0"/>
<feBlend mode="normal" in2="BackgroundImageFix" result="effect1_dropShadow"/>
<feBlend mode="normal" in="SourceGraphic" in2="effect1_dropShadow" result="shape"/>
</filter>
<filter id="filter1_ii" x="4" y="4" width="112" height="112" filterUnits="userSpaceOnUse" color-interpolation-filters="sRGB">
<feFlood flood-opacity="0" result="BackgroundImageFix"/>
<feBlend mode="normal" in="SourceGraphic" in2="BackgroundImageFix" result="shape"/>
<feColorMatrix in="SourceAlpha" type="matrix" values="0 0 0 0 0 0 0 0 0 0 0 0 0 0 0 0 0 0 127 0" result="hardAlpha"/>
<feOffset dx="1" dy="1"/>
<feGaussianBlur stdDeviation="1"/>
<feComposite in2="hardAlpha" operator="arithmetic" k2="-1" k3="1"/>
<feColorMatrix type="matrix" values="0 0 0 0 0.266667 0 0 0 0 0.294118 0 0 0 0 0.329412 0 0 0 0.4 0"/>
<feBlend mode="normal" in2="shape" result="effect1_innerShadow"/>
<feColorMatrix in="SourceAlpha" type="matrix" values="0 0 0 0 0 0 0 0 0 0 0 0 0 0 0 0 0 0 127 0" result="hardAlpha"/>
<feOffset dx="-1" dy="-1"/>
<feGaussianBlur stdDeviation="0.5"/>
<feComposite in2="hardAlpha" operator="arithmetic" k2="-1" k3="1"/>
<feColorMatrix type="matrix" values="0 0 0 0 1 0 0 0 0 1 0 0 0 0 1 0 0 0 0.7 0"/>
<feBlend mode="normal" in2="effect1_innerShadow" result="effect2_innerShadow"/>
</filter>
</defs>
</svg>
