<svg width="144" height="144" viewBox="0 0 144 144" fill="none" xmlns="http://www.w3.org/2000/svg">
<path d="M14.7428 43.9143H89.3999C90.7714 43.9143 91.4571 44.5714 91.4571 45.8857V50.7714C91.4571 52.1428 90.7714 52.8286 89.3999 52.8286H84.7714C84.0857 52.8286 83.7428 53.2286 83.7428 54.0286V95.3428C83.7428 96.6571 83.0571 97.3143 81.6857 97.3143H75.7714C74.3999 97.3143 73.7142 96.6571 73.7142 95.3428V86.6H73.3714C71.5999 89.6286 68.2857 91.1428 63.4285 91.1428H60.5999C55.6857 91.1428 51.7142 89.8857 48.6857 87.3714C45.6571 84.8571 43.7142 81.6571 42.8571 77.7714H31.0285C30.3428 77.7714 29.9999 78.1714 29.9999 78.9714V83.7714C29.9999 85.0857 29.3142 85.7428 27.9428 85.7428H22.0285C20.6571 85.7428 19.9714 85.0857 19.9714 83.7714V54.0286C19.9714 53.2857 19.6857 52.8857 19.1142 52.8286H14.7428C13.3714 52.8286 12.6857 52.1428 12.6857 50.7714V45.8C12.6857 44.5428 13.3714 43.9143 14.7428 43.9143ZM44.4857 63.4571H50.4857C52.3714 63.4571 53.6857 63.1143 54.4285 62.4286C55.1714 61.7428 55.5428 60.5714 55.5428 58.9143V57.6286C55.5428 54.4286 53.8571 52.8286 50.4857 52.8286H31.0285C30.3428 52.8286 29.9999 53.2286 29.9999 54.0286V67.8286C29.9999 68.6286 30.3428 69.0286 31.0285 69.0286H42.4285V65.5143C42.4285 64.1428 43.1142 63.4571 44.4857 63.4571ZM73.7142 72.4571V54.0286C73.7142 53.2286 73.3714 52.8286 72.6857 52.8286H62.0571V53.2571C64.0571 54.1714 65.0571 56.0857 65.0571 59V61.1428C65.0571 68.4571 60.9714 72.1143 52.7999 72.1143H52.2857V73.5714C52.2857 79.4 55.4571 82.3143 61.7999 82.3143H63.6857C70.3714 82.3143 73.7142 79.0286 73.7142 72.4571ZM64.8321 106.743C64.8321 98.4571 69.0321 94.3143 77.4321 94.3143H80.0035C82.8035 94.3143 85.1464 94.6571 87.0321 95.3428C88.9178 95.9714 90.5178 97.1143 91.8321 98.7714C93.2035 100.486 94.3464 102.257 95.2607 104.086C96.1749 105.971 96.9749 107.771 97.6607 109.486C98.4035 111.257 98.7749 112.171 98.7749 112.229C98.8321 112.286 98.8607 112.371 98.8607 112.486C98.9178 112.6 99.0035 112.771 99.1178 113C99.2321 113.286 99.2892 113.743 99.2892 114.371C99.2892 115 98.8607 115.457 98.0035 115.743C95.0321 116.886 93.4035 117.457 93.1178 117.457C92.2035 117.457 91.4607 116.857 90.8892 115.657C90.3178 114.514 89.5749 112.886 88.6607 110.771C87.7464 108.657 87.1464 107.314 86.8607 106.743C86.5178 106.171 86.0035 105.429 85.3178 104.514C84.5749 103.657 83.8035 103.114 83.0035 102.886C82.1464 102.714 81.0606 102.629 79.7464 102.629H77.5178C76.1464 102.629 75.2321 102.971 74.7749 103.657C74.3178 104.343 74.0892 105.371 74.0892 106.743C74.0892 108.114 74.3178 109.057 74.7749 109.571C75.1749 110.143 76.0035 110.429 77.2606 110.429H79.9178C81.3464 110.429 82.0606 111.143 82.0606 112.571V116.257C82.0606 117.743 81.3464 118.486 79.9178 118.486H77.2606C68.9749 118.486 64.8321 114.571 64.8321 106.743ZM106.832 59.7714H111.804C112.489 59.7714 112.832 59.3714 112.832 58.5714V54.0286C112.832 53.2286 112.518 52.8286 111.889 52.8286H88.4035C87.0321 52.8286 86.3464 52.1428 86.3464 50.7714V45.8857C86.3464 44.5714 87.0321 43.9143 88.4035 43.9143H129.289C130.661 43.9143 131.346 44.5714 131.346 45.8857V50.7714C131.346 52.1428 130.661 52.8286 129.289 52.8286H123.804C123.118 52.8286 122.775 53.2286 122.775 54.0286V63.8857C122.775 67.0286 121.089 68.6 117.718 68.6H108.032C105.861 68.6 104.289 69.0286 103.318 69.8857C102.346 70.7428 101.861 72.1714 101.861 74.1714V80.1714C101.861 82.1714 102.346 83.6 103.318 84.4571C104.289 85.3143 105.861 85.7428 108.032 85.7428H111.204C113.432 85.7428 115.032 85.3714 116.004 84.6286C116.975 83.8857 117.461 82.4857 117.461 80.4286V80.0857C117.461 78.4286 118.089 77.6 119.346 77.6H124.661C126.089 77.6 126.804 78.4286 126.804 80.0857V80.4286C126.804 89.9143 121.946 94.6571 112.232 94.6571H106.832C101.975 94.6571 98.3178 93.3428 95.8607 90.7143C93.4035 88.0857 92.1749 84.4857 92.1749 79.9143V74.1714C92.1749 69.6571 93.4035 66.1428 95.8607 63.6286C98.3178 61.0571 101.975 59.7714 106.832 59.7714Z" fill="#444B54"/>
<g filter="url(#filter0_d)">
<path fill-rule="evenodd" clip-rule="evenodd" d="M16.9715 53.0588C16.9715 51.6614 18.1042 50.5287 19.5016 50.5287H30.4115C32.2671 50.5287 33.7715 52.033 33.7715 53.8887V60.5985C33.7715 61.9959 34.9042 63.1287 36.3016 63.1287H43.8413C45.2386 63.1287 46.3714 64.2614 46.3714 65.6588V76.5687C46.3714 78.4243 44.8671 79.9287 43.0114 79.9287H36.3016C34.9042 79.9287 33.7714 81.0614 33.7714 82.4588V89.1687C33.7714 91.0243 32.2671 92.5287 30.4114 92.5287H19.5016C18.1042 92.5287 16.9714 91.3959 16.9714 89.9985V75.7287C16.9714 75.7287 16.9714 75.7287 16.9715 75.7287C16.9715 75.7287 16.9715 75.7287 16.9715 75.7286V53.0588Z" fill="white"/>
</g>
<g filter="url(#filter1_ii)">
<path d="M19.0967 55.1335C19.0967 53.7361 20.2295 52.6034 21.6268 52.6034H29.1666C30.5639 52.6034 31.6967 53.7361 31.6967 55.1335V68.8467C31.6967 70.2441 30.5639 71.3769 29.1666 71.3769H21.6268C20.2295 71.3769 19.0967 70.2441 19.0967 68.8467V55.1335Z" fill="#1E96A3"/>
</g>
<g filter="url(#filter2_ii)">
<path d="M19.0967 73.907C19.0967 72.5096 20.2295 71.3769 21.6268 71.3769H29.1666C30.5639 71.3769 31.6967 72.5096 31.6967 73.907V87.9238C31.6967 89.3212 30.5639 90.454 29.1666 90.454H21.6268C20.2295 90.454 19.0967 89.3212 19.0967 87.9238V73.907Z" fill="#C58E8F"/>
</g>
<g filter="url(#filter3_ii)">
<path d="M30.0016 77.8287C28.6042 77.8287 27.4714 76.6959 27.4714 75.2986V67.7588C27.4714 66.3614 28.6042 65.2287 30.0016 65.2287H41.7413C43.1387 65.2287 44.2714 66.3614 44.2714 67.7588V75.2986C44.2714 76.6959 43.1387 77.8287 41.7413 77.8287H30.0016Z" fill="#B7544A"/>
</g>
<rect x="19.0967" y="65.2539" width="12.6" height="12.6" rx="2.53012" fill="white"/>
<defs>
<filter id="filter0_d" x="15.2914" y="48.8487" width="34.4399" height="47.04" filterUnits="userSpaceOnUse" color-interpolation-filters="sRGB">
<feFlood flood-opacity="0" result="BackgroundImageFix"/>
<feColorMatrix in="SourceAlpha" type="matrix" values="0 0 0 0 0 0 0 0 0 0 0 0 0 0 0 0 0 0 127 0" result="hardAlpha"/>
<feOffset dx="0.84" dy="0.84"/>
<feGaussianBlur stdDeviation="1.26"/>
<feColorMatrix type="matrix" values="0 0 0 0 0.266667 0 0 0 0 0.294118 0 0 0 0 0.329412 0 0 0 0.4 0"/>
<feBlend mode="normal" in2="BackgroundImageFix" result="effect1_dropShadow"/>
<feBlend mode="normal" in="SourceGraphic" in2="effect1_dropShadow" result="shape"/>
</filter>
<filter id="filter1_ii" x="18.7607" y="52.2674" width="13.272" height="19.4455" filterUnits="userSpaceOnUse" color-interpolation-filters="sRGB">
<feFlood flood-opacity="0" result="BackgroundImageFix"/>
<feBlend mode="normal" in="SourceGraphic" in2="BackgroundImageFix" result="shape"/>
<feColorMatrix in="SourceAlpha" type="matrix" values="0 0 0 0 0 0 0 0 0 0 0 0 0 0 0 0 0 0 127 0" result="hardAlpha"/>
<feOffset dx="0.42" dy="0.42"/>
<feGaussianBlur stdDeviation="0.168"/>
<feComposite in2="hardAlpha" operator="arithmetic" k2="-1" k3="1"/>
<feColorMatrix type="matrix" values="0 0 0 0 0.266667 0 0 0 0 0.294118 0 0 0 0 0.329412 0 0 0 0.25 0"/>
<feBlend mode="normal" in2="shape" result="effect1_innerShadow"/>
<feColorMatrix in="SourceAlpha" type="matrix" values="0 0 0 0 0 0 0 0 0 0 0 0 0 0 0 0 0 0 127 0" result="hardAlpha"/>
<feOffset dx="-0.42" dy="-0.42"/>
<feGaussianBlur stdDeviation="0.168"/>
<feComposite in2="hardAlpha" operator="arithmetic" k2="-1" k3="1"/>
<feColorMatrix type="matrix" values="0 0 0 0 0.266667 0 0 0 0 0.294118 0 0 0 0 0.329412 0 0 0 0.25 0"/>
<feBlend mode="normal" in2="effect1_innerShadow" result="effect2_innerShadow"/>
</filter>
<filter id="filter2_ii" x="18.7607" y="71.0409" width="13.272" height="19.7491" filterUnits="userSpaceOnUse" color-interpolation-filters="sRGB">
<feFlood flood-opacity="0" result="BackgroundImageFix"/>
<feBlend mode="normal" in="SourceGraphic" in2="BackgroundImageFix" result="shape"/>
<feColorMatrix in="SourceAlpha" type="matrix" values="0 0 0 0 0 0 0 0 0 0 0 0 0 0 0 0 0 0 127 0" result="hardAlpha"/>
<feOffset dx="0.42" dy="0.42"/>
<feGaussianBlur stdDeviation="0.168"/>
<feComposite in2="hardAlpha" operator="arithmetic" k2="-1" k3="1"/>
<feColorMatrix type="matrix" values="0 0 0 0 0.266667 0 0 0 0 0.294118 0 0 0 0 0.329412 0 0 0 0.25 0"/>
<feBlend mode="normal" in2="shape" result="effect1_innerShadow"/>
<feColorMatrix in="SourceAlpha" type="matrix" values="0 0 0 0 0 0 0 0 0 0 0 0 0 0 0 0 0 0 127 0" result="hardAlpha"/>
<feOffset dx="-0.42" dy="-0.42"/>
<feGaussianBlur stdDeviation="0.168"/>
<feComposite in2="hardAlpha" operator="arithmetic" k2="-1" k3="1"/>
<feColorMatrix type="matrix" values="0 0 0 0 0.266667 0 0 0 0 0.294118 0 0 0 0 0.329412 0 0 0 0.25 0"/>
<feBlend mode="normal" in2="effect1_innerShadow" result="effect2_innerShadow"/>
</filter>
<filter id="filter3_ii" x="27.1354" y="64.8927" width="17.472" height="13.272" filterUnits="userSpaceOnUse" color-interpolation-filters="sRGB">
<feFlood flood-opacity="0" result="BackgroundImageFix"/>
<feBlend mode="normal" in="SourceGraphic" in2="BackgroundImageFix" result="shape"/>
<feColorMatrix in="SourceAlpha" type="matrix" values="0 0 0 0 0 0 0 0 0 0 0 0 0 0 0 0 0 0 127 0" result="hardAlpha"/>
<feOffset dx="0.42" dy="0.42"/>
<feGaussianBlur stdDeviation="0.168"/>
<feComposite in2="hardAlpha" operator="arithmetic" k2="-1" k3="1"/>
<feColorMatrix type="matrix" values="0 0 0 0 0.266667 0 0 0 0 0.294118 0 0 0 0 0.329412 0 0 0 0.25 0"/>
<feBlend mode="normal" in2="shape" result="effect1_innerShadow"/>
<feColorMatrix in="SourceAlpha" type="matrix" values="0 0 0 0 0 0 0 0 0 0 0 0 0 0 0 0 0 0 127 0" result="hardAlpha"/>
<feOffset dx="-0.42" dy="-0.42"/>
<feGaussianBlur stdDeviation="0.168"/>
<feComposite in2="hardAlpha" operator="arithmetic" k2="-1" k3="1"/>
<feColorMatrix type="matrix" values="0 0 0 0 0.266667 0 0 0 0 0.294118 0 0 0 0 0.329412 0 0 0 0.25 0"/>
<feBlend mode="normal" in2="effect1_innerShadow" result="effect2_innerShadow"/>
</filter>
</defs>
</svg>
