<svg width="100%" height="100%" viewBox="0 0 134 164" fill="none" xmlns="http://www.w3.org/2000/svg">
<g filter="url(#filter0_d)">
<rect width="120" height="150" rx="15" fill="white"/>
</g>
<g filter="url(#filter1_ii)">
<rect x="5" y="5" width="110" height="110" rx="15" fill="#FFF3F3"/>
</g>
<path d="M38.4024 140.276C38.2064 140.276 38.0477 140.215 37.9264 140.094C37.805 139.973 37.7444 139.814 37.7444 139.618V133.164C37.7537 132.427 37.9264 131.764 38.2624 131.176C38.6077 130.588 39.0697 130.126 39.6484 129.79C40.227 129.454 40.8757 129.286 41.5944 129.286C42.341 129.286 43.0037 129.459 43.5824 129.804C44.1704 130.14 44.6324 130.602 44.9684 131.19C45.3137 131.769 45.4864 132.431 45.4864 133.178C45.4864 133.915 45.323 134.578 44.9964 135.166C44.679 135.754 44.245 136.216 43.6944 136.552C43.1437 136.888 42.523 137.056 41.8324 137.056C41.2537 137.056 40.7264 136.939 40.2504 136.706C39.7744 136.463 39.3777 136.137 39.0604 135.726V139.618C39.0604 139.814 38.9997 139.973 38.8784 140.094C38.757 140.215 38.5984 140.276 38.4024 140.276ZM41.6084 135.894C42.103 135.894 42.5464 135.777 42.9384 135.544C43.3304 135.301 43.6384 134.975 43.8624 134.564C44.0957 134.153 44.2124 133.691 44.2124 133.178C44.2124 132.655 44.0957 132.189 43.8624 131.778C43.6384 131.367 43.3304 131.045 42.9384 130.812C42.5464 130.569 42.103 130.448 41.6084 130.448C41.1137 130.448 40.6704 130.569 40.2784 130.812C39.8864 131.045 39.5784 131.367 39.3544 131.778C39.1304 132.189 39.0184 132.655 39.0184 133.178C39.0184 133.691 39.1304 134.158 39.3544 134.578C39.5784 134.989 39.8864 135.311 40.2784 135.544C40.6704 135.777 41.1137 135.894 41.6084 135.894ZM54.0978 137.014C53.9111 137.014 53.7525 136.953 53.6218 136.832C53.5005 136.701 53.4398 136.543 53.4398 136.356V132.842C53.4398 132.301 53.3371 131.857 53.1318 131.512C52.9358 131.157 52.6605 130.896 52.3058 130.728C51.9605 130.551 51.5685 130.462 51.1298 130.462C50.7098 130.462 50.3318 130.546 49.9958 130.714C49.6691 130.882 49.4078 131.106 49.2118 131.386C49.0158 131.666 48.9178 131.983 48.9178 132.338H48.0638C48.0731 131.75 48.2225 131.227 48.5118 130.77C48.8011 130.303 49.1931 129.939 49.6878 129.678C50.1825 129.407 50.7378 129.272 51.3538 129.272C51.9978 129.272 52.5765 129.412 53.0898 129.692C53.6031 129.963 54.0091 130.364 54.3078 130.896C54.6065 131.428 54.7558 132.077 54.7558 132.842V136.356C54.7558 136.543 54.6905 136.701 54.5598 136.832C54.4385 136.953 54.2845 137.014 54.0978 137.014ZM48.2598 137.014C48.0638 137.014 47.9051 136.953 47.7838 136.832C47.6625 136.701 47.6018 136.543 47.6018 136.356V130C47.6018 129.804 47.6625 129.645 47.7838 129.524C47.9051 129.403 48.0638 129.342 48.2598 129.342C48.4558 129.342 48.6145 129.403 48.7358 129.524C48.8571 129.645 48.9178 129.804 48.9178 130V136.356C48.9178 136.543 48.8571 136.701 48.7358 136.832C48.6145 136.953 48.4558 137.014 48.2598 137.014ZM48.2598 134.102C48.0638 134.102 47.9051 134.041 47.7838 133.92C47.6625 133.789 47.6018 133.631 47.6018 133.444V126.724C47.6018 126.528 47.6625 126.369 47.7838 126.248C47.9051 126.127 48.0638 126.066 48.2598 126.066C48.4558 126.066 48.6145 126.127 48.7358 126.248C48.8571 126.369 48.9178 126.528 48.9178 126.724V133.444C48.9178 133.631 48.8571 133.789 48.7358 133.92C48.6145 134.041 48.4558 134.102 48.2598 134.102ZM60.6031 137.056C59.8564 137.056 59.1891 136.893 58.6011 136.566C58.0224 136.23 57.5651 135.773 57.2291 135.194C56.9024 134.606 56.7391 133.934 56.7391 133.178C56.7391 132.413 56.9024 131.741 57.2291 131.162C57.5651 130.574 58.0224 130.117 58.6011 129.79C59.1891 129.454 59.8564 129.286 60.6031 129.286C61.3498 129.286 62.0124 129.454 62.5911 129.79C63.1698 130.117 63.6271 130.574 63.9631 131.162C64.2991 131.741 64.4671 132.413 64.4671 133.178C64.4671 133.934 64.2991 134.606 63.9631 135.194C63.6364 135.773 63.1838 136.23 62.6051 136.566C62.0264 136.893 61.3591 137.056 60.6031 137.056ZM60.6031 135.894C61.1071 135.894 61.5551 135.777 61.9471 135.544C62.3391 135.311 62.6471 134.993 62.8711 134.592C63.0951 134.181 63.2071 133.71 63.2071 133.178C63.2071 132.646 63.0951 132.175 62.8711 131.764C62.6471 131.353 62.3391 131.031 61.9471 130.798C61.5551 130.565 61.1071 130.448 60.6031 130.448C60.0991 130.448 59.6511 130.565 59.2591 130.798C58.8671 131.031 58.5591 131.353 58.3351 131.764C58.1111 132.175 57.9991 132.646 57.9991 133.178C57.9991 133.71 58.1111 134.181 58.3351 134.592C58.5591 134.993 58.8671 135.311 59.2591 135.544C59.6511 135.777 60.0991 135.894 60.6031 135.894ZM73.088 137.014C72.9014 137.014 72.7427 136.953 72.612 136.832C72.4907 136.701 72.43 136.543 72.43 136.356V132.842C72.43 132.301 72.3274 131.857 72.122 131.512C71.926 131.157 71.6507 130.896 71.296 130.728C70.9507 130.551 70.5587 130.462 70.12 130.462C69.7 130.462 69.322 130.546 68.986 130.714C68.6594 130.882 68.398 131.106 68.202 131.386C68.006 131.666 67.908 131.983 67.908 132.338H67.054C67.0634 131.75 67.2127 131.227 67.502 130.77C67.7914 130.303 68.1834 129.939 68.678 129.678C69.1727 129.407 69.728 129.272 70.344 129.272C70.988 129.272 71.5667 129.412 72.08 129.692C72.5934 129.963 72.9994 130.364 73.298 130.896C73.5967 131.428 73.746 132.077 73.746 132.842V136.356C73.746 136.543 73.6807 136.701 73.55 136.832C73.4287 136.953 73.2747 137.014 73.088 137.014ZM67.25 137.014C67.054 137.014 66.8954 136.953 66.774 136.832C66.6527 136.701 66.592 136.543 66.592 136.356V130C66.592 129.804 66.6527 129.645 66.774 129.524C66.8954 129.403 67.054 129.342 67.25 129.342C67.446 129.342 67.6047 129.403 67.726 129.524C67.8474 129.645 67.908 129.804 67.908 130V136.356C67.908 136.543 67.8474 136.701 67.726 136.832C67.6047 136.953 67.446 137.014 67.25 137.014ZM79.6637 137.056C78.8983 137.056 78.217 136.893 77.6197 136.566C77.0223 136.23 76.5557 135.773 76.2197 135.194C75.8837 134.606 75.7157 133.934 75.7157 133.178C75.7157 132.413 75.8743 131.741 76.1917 131.162C76.509 130.574 76.9477 130.117 77.5077 129.79C78.077 129.454 78.7257 129.286 79.4537 129.286C80.1723 129.286 80.793 129.449 81.3157 129.776C81.8477 130.093 82.2537 130.537 82.5337 131.106C82.8137 131.666 82.9537 132.315 82.9537 133.052C82.9537 133.22 82.8977 133.36 82.7857 133.472C82.6737 133.575 82.529 133.626 82.3517 133.626H76.6117V132.576H82.3657L81.7777 132.982C81.7777 132.487 81.6843 132.049 81.4977 131.666C81.311 131.274 81.045 130.966 80.6997 130.742C80.3543 130.518 79.939 130.406 79.4537 130.406C78.9217 130.406 78.4597 130.527 78.0677 130.77C77.685 131.003 77.391 131.33 77.1857 131.75C76.9897 132.17 76.8917 132.646 76.8917 133.178C76.8917 133.71 77.0083 134.186 77.2417 134.606C77.4843 135.017 77.811 135.343 78.2217 135.586C78.6417 135.819 79.1223 135.936 79.6637 135.936C79.9717 135.936 80.2797 135.88 80.5877 135.768C80.905 135.656 81.1617 135.525 81.3577 135.376C81.4883 135.283 81.6283 135.236 81.7777 135.236C81.927 135.227 82.0577 135.269 82.1697 135.362C82.319 135.493 82.3983 135.637 82.4077 135.796C82.417 135.945 82.347 136.076 82.1977 136.188C81.8897 136.44 81.4977 136.65 81.0217 136.818C80.5457 136.977 80.093 137.056 79.6637 137.056Z" fill="#444B54"/>
<path d="M35.7031 54.0373L41.5033 45.685C42.3819 44.4199 44.3116 44.6254 44.904 46.0472L47.6501 52.638C48.0983 53.7135 47.7759 54.9558 46.8614 55.6778L44.1174 57.8441C43.0541 58.6836 42.8138 60.1989 43.5653 61.326L50.6847 72.0053C51.4223 73.1115 52.8757 73.4829 54.0535 72.8659L57.0855 71.2777C58.1053 70.7436 59.355 70.9438 60.1568 71.7699L67.4014 79.2341C68.5161 80.3826 68.338 82.256 67.0268 83.1738L61.0665 87.346C60.2752 87.8999 59.2503 87.9726 58.407 87.5016C54.3773 85.2508 42.578 78.1948 38.0111 70.3771C33.6497 62.9114 34.8049 56.6902 35.2663 54.9453C35.353 54.6175 35.5098 54.3158 35.7031 54.0373Z" fill="#C58E8F"/>
<path d="M35.0624 43.6554L41.2648 40.748C42.307 40.2595 43.5433 40.7755 43.9289 41.86L47.7835 52.7011C48.1568 53.7508 47.8195 54.9216 46.9451 55.6119L44.1173 57.8445C43.054 58.6839 42.8137 60.1992 43.5652 61.3263L50.6846 72.0056C51.4222 73.1118 52.8756 73.4832 54.0534 72.8662L57.0855 71.278C58.1052 70.7439 59.3549 70.9441 60.1567 71.7702L67.4013 79.2344C68.516 80.3829 68.3379 82.2563 67.0267 83.1741L61.0664 87.3463C60.2752 87.9002 59.2502 87.9729 58.4069 87.5019C54.3772 85.2511 42.5779 78.1951 38.011 70.3774C34.0667 63.6257 33.1149 52.1941 32.8854 47.1855C32.816 45.6714 33.69 44.2987 35.0624 43.6554Z" stroke="#444B54" stroke-width="2.59923" stroke-linecap="round" stroke-linejoin="round"/>
<path d="M56.8555 61.6047V44.7574C56.8555 43.8686 57.0333 42.9892 57.4558 42.2073C59.508 38.4087 66.8111 27.3032 79.2045 33.9526C81.0392 34.937 82.638 36.369 83.8563 38.0575C92.7094 50.3281 81.9012 58.4598 77.9853 60.8628C77.1378 61.3829 76.1575 61.6047 75.1632 61.6047L56.8555 61.6047Z" stroke="#444B54" stroke-width="2.59923" stroke-linecap="round" stroke-linejoin="round"/>
<path d="M64.6531 44.385C63.9353 44.385 63.3535 44.9668 63.3535 45.6846C63.3535 46.4023 63.9353 46.9842 64.6531 46.9842V44.385ZM78.299 46.9842C79.0168 46.9842 79.5987 46.4023 79.5987 45.6846C79.5987 44.9668 79.0168 44.385 78.299 44.385V46.9842ZM64.6531 49.5834C63.9353 49.5834 63.3535 50.1653 63.3535 50.883C63.3535 51.6008 63.9353 52.1827 64.6531 52.1827V49.5834ZM71.801 52.1827C72.5187 52.1827 73.1006 51.6008 73.1006 50.883C73.1006 50.1653 72.5187 49.5834 71.801 49.5834V52.1827ZM76.0247 49.5834C75.307 49.5834 74.7251 50.1653 74.7251 50.883C74.7251 51.6008 75.307 52.1827 76.0247 52.1827V49.5834ZM78.299 52.1827C79.0168 52.1827 79.5987 51.6008 79.5987 50.883C79.5987 50.1653 79.0168 49.5834 78.299 49.5834V52.1827ZM64.6531 46.9842H78.299V44.385H64.6531V46.9842ZM64.6531 52.1827H71.801V49.5834H64.6531V52.1827ZM76.0247 52.1827H78.299V49.5834H76.0247V52.1827Z" fill="#1E96A3"/>
<defs>
<filter id="filter0_d" x="0" y="0" width="134" height="164" filterUnits="userSpaceOnUse" color-interpolation-filters="sRGB">
<feFlood flood-opacity="0" result="BackgroundImageFix"/>
<feColorMatrix in="SourceAlpha" type="matrix" values="0 0 0 0 0 0 0 0 0 0 0 0 0 0 0 0 0 0 127 0" result="hardAlpha"/>
<feOffset dx="10" dy="10"/>
<feGaussianBlur stdDeviation="2"/>
<feComposite in2="hardAlpha" operator="out"/>
<feColorMatrix type="matrix" values="0 0 0 0 0.266667 0 0 0 0 0.294118 0 0 0 0 0.329412 0 0 0 1 0"/>
<feBlend mode="normal" in2="BackgroundImageFix" result="effect1_dropShadow"/>
<feBlend mode="normal" in="SourceGraphic" in2="effect1_dropShadow" result="shape"/>
</filter>
<filter id="filter1_ii" x="4" y="4" width="112" height="112" filterUnits="userSpaceOnUse" color-interpolation-filters="sRGB">
<feFlood flood-opacity="0" result="BackgroundImageFix"/>
<feBlend mode="normal" in="SourceGraphic" in2="BackgroundImageFix" result="shape"/>
<feColorMatrix in="SourceAlpha" type="matrix" values="0 0 0 0 0 0 0 0 0 0 0 0 0 0 0 0 0 0 127 0" result="hardAlpha"/>
<feOffset dx="1" dy="1"/>
<feGaussianBlur stdDeviation="1"/>
<feComposite in2="hardAlpha" operator="arithmetic" k2="-1" k3="1"/>
<feColorMatrix type="matrix" values="0 0 0 0 0.266667 0 0 0 0 0.294118 0 0 0 0 0.329412 0 0 0 0.4 0"/>
<feBlend mode="normal" in2="shape" result="effect1_innerShadow"/>
<feColorMatrix in="SourceAlpha" type="matrix" values="0 0 0 0 0 0 0 0 0 0 0 0 0 0 0 0 0 0 127 0" result="hardAlpha"/>
<feOffset dx="-1" dy="-1"/>
<feGaussianBlur stdDeviation="0.5"/>
<feComposite in2="hardAlpha" operator="arithmetic" k2="-1" k3="1"/>
<feColorMatrix type="matrix" values="0 0 0 0 1 0 0 0 0 1 0 0 0 0 1 0 0 0 0.7 0"/>
<feBlend mode="normal" in2="effect1_innerShadow" result="effect2_innerShadow"/>
</filter>
</defs>
</svg>
