<svg width="100%" height="100%" viewBox="0 0 134 164" fill="none" xmlns="http://www.w3.org/2000/svg">
<g filter="url(#filter0_d)">
<rect width="120" height="150" rx="15" fill="white"/>
</g>
<g filter="url(#filter1_ii)">
<rect x="5" y="5" width="110" height="110" rx="15" fill="#FFF3F3"/>
</g>
<path d="M40.8055 137C40.3295 137 39.9001 136.883 39.5175 136.65C39.1441 136.407 38.8455 136.085 38.6215 135.684C38.4068 135.273 38.2995 134.807 38.2995 134.284V127.55C38.2995 127.363 38.3601 127.209 38.4815 127.088C38.6028 126.967 38.7568 126.906 38.9435 126.906C39.1395 126.906 39.2981 126.967 39.4195 127.088C39.5408 127.209 39.6015 127.363 39.6015 127.55V134.284C39.6015 134.695 39.7135 135.035 39.9375 135.306C40.1708 135.577 40.4601 135.712 40.8055 135.712H41.2535C41.4121 135.712 41.5428 135.773 41.6455 135.894C41.7575 136.015 41.8135 136.169 41.8135 136.356C41.8135 136.543 41.7435 136.697 41.6035 136.818C41.4635 136.939 41.2861 137 41.0715 137H40.8055ZM37.5715 130.742C37.3941 130.742 37.2495 130.691 37.1375 130.588C37.0255 130.476 36.9695 130.345 36.9695 130.196C36.9695 130.019 37.0255 129.879 37.1375 129.776C37.2495 129.673 37.3941 129.622 37.5715 129.622H40.9175C41.0948 129.622 41.2395 129.673 41.3515 129.776C41.4635 129.879 41.5195 130.019 41.5195 130.196C41.5195 130.345 41.4635 130.476 41.3515 130.588C41.2395 130.691 41.0948 130.742 40.9175 130.742H37.5715ZM45.3186 137C45.1786 137 45.0526 136.963 44.9406 136.888C44.8286 136.804 44.7493 136.701 44.7026 136.58L42.5886 130.252C42.5233 129.981 42.5279 129.762 42.6026 129.594C42.6773 129.426 42.8359 129.342 43.0786 129.342C43.2373 129.342 43.3726 129.389 43.4846 129.482C43.5966 129.566 43.6853 129.706 43.7506 129.902L45.5706 135.572H45.1366L46.8586 129.832C46.8959 129.692 46.9659 129.575 47.0686 129.482C47.1806 129.389 47.3253 129.342 47.5026 129.342C47.6706 129.342 47.8059 129.389 47.9086 129.482C48.0206 129.566 48.0953 129.683 48.1326 129.832L49.6166 135.292H49.3926L51.1286 129.902C51.2499 129.529 51.4693 129.342 51.7866 129.342C52.0293 129.342 52.1926 129.431 52.2766 129.608C52.3699 129.776 52.3699 129.991 52.2766 130.252L50.1626 136.58C50.1253 136.701 50.0506 136.804 49.9386 136.888C49.8266 136.963 49.7006 137 49.5606 137C49.4206 137 49.2899 136.963 49.1686 136.888C49.0473 136.804 48.9679 136.701 48.9306 136.58L47.3906 131.064H47.5306L45.9346 136.58C45.8973 136.701 45.8226 136.804 45.7106 136.888C45.5986 136.963 45.4679 137 45.3186 137ZM54.6485 137C54.4525 137 54.2938 136.939 54.1725 136.818C54.0512 136.697 53.9905 136.538 53.9905 136.342V130C53.9905 129.804 54.0512 129.645 54.1725 129.524C54.2938 129.403 54.4525 129.342 54.6485 129.342C54.8445 129.342 55.0032 129.403 55.1245 129.524C55.2458 129.645 55.3065 129.804 55.3065 130V136.342C55.3065 136.538 55.2458 136.697 55.1245 136.818C55.0032 136.939 54.8445 137 54.6485 137ZM54.6485 128.026C54.4152 128.026 54.2098 127.942 54.0325 127.774C53.8645 127.597 53.7805 127.391 53.7805 127.158C53.7805 126.906 53.8645 126.701 54.0325 126.542C54.2098 126.374 54.4152 126.29 54.6485 126.29C54.8818 126.29 55.0825 126.374 55.2505 126.542C55.4278 126.701 55.5165 126.906 55.5165 127.158C55.5165 127.391 55.4325 127.597 55.2645 127.774C55.0965 127.942 54.8912 128.026 54.6485 128.026ZM60.8484 137C60.3724 137 59.9431 136.883 59.5604 136.65C59.1871 136.407 58.8884 136.085 58.6644 135.684C58.4498 135.273 58.3424 134.807 58.3424 134.284V127.55C58.3424 127.363 58.4031 127.209 58.5244 127.088C58.6458 126.967 58.7998 126.906 58.9864 126.906C59.1824 126.906 59.3411 126.967 59.4624 127.088C59.5838 127.209 59.6444 127.363 59.6444 127.55V134.284C59.6444 134.695 59.7564 135.035 59.9804 135.306C60.2138 135.577 60.5031 135.712 60.8484 135.712H61.2964C61.4551 135.712 61.5858 135.773 61.6884 135.894C61.8004 136.015 61.8564 136.169 61.8564 136.356C61.8564 136.543 61.7864 136.697 61.6464 136.818C61.5064 136.939 61.3291 137 61.1144 137H60.8484ZM57.6144 130.742C57.4371 130.742 57.2924 130.691 57.1804 130.588C57.0684 130.476 57.0124 130.345 57.0124 130.196C57.0124 130.019 57.0684 129.879 57.1804 129.776C57.2924 129.673 57.4371 129.622 57.6144 129.622H60.9604C61.1378 129.622 61.2824 129.673 61.3944 129.776C61.5064 129.879 61.5624 130.019 61.5624 130.196C61.5624 130.345 61.5064 130.476 61.3944 130.588C61.2824 130.691 61.1378 130.742 60.9604 130.742H57.6144ZM66.4676 137C65.9916 137 65.5622 136.883 65.1796 136.65C64.8062 136.407 64.5076 136.085 64.2836 135.684C64.0689 135.273 63.9616 134.807 63.9616 134.284V127.55C63.9616 127.363 64.0222 127.209 64.1436 127.088C64.2649 126.967 64.4189 126.906 64.6056 126.906C64.8016 126.906 64.9602 126.967 65.0816 127.088C65.2029 127.209 65.2636 127.363 65.2636 127.55V134.284C65.2636 134.695 65.3756 135.035 65.5996 135.306C65.8329 135.577 66.1222 135.712 66.4676 135.712H66.9156C67.0742 135.712 67.2049 135.773 67.3076 135.894C67.4196 136.015 67.4756 136.169 67.4756 136.356C67.4756 136.543 67.4056 136.697 67.2656 136.818C67.1256 136.939 66.9482 137 66.7336 137H66.4676ZM63.2336 130.742C63.0562 130.742 62.9116 130.691 62.7996 130.588C62.6876 130.476 62.6316 130.345 62.6316 130.196C62.6316 130.019 62.6876 129.879 62.7996 129.776C62.9116 129.673 63.0562 129.622 63.2336 129.622H66.5796C66.7569 129.622 66.9016 129.673 67.0136 129.776C67.1256 129.879 67.1816 130.019 67.1816 130.196C67.1816 130.345 67.1256 130.476 67.0136 130.588C66.9016 130.691 66.7569 130.742 66.5796 130.742H63.2336ZM72.7867 137.056C72.0214 137.056 71.34 136.893 70.7427 136.566C70.1454 136.23 69.6787 135.773 69.3427 135.194C69.0067 134.606 68.8387 133.934 68.8387 133.178C68.8387 132.413 68.9974 131.741 69.3147 131.162C69.632 130.574 70.0707 130.117 70.6307 129.79C71.2 129.454 71.8487 129.286 72.5767 129.286C73.2954 129.286 73.916 129.449 74.4387 129.776C74.9707 130.093 75.3767 130.537 75.6567 131.106C75.9367 131.666 76.0767 132.315 76.0767 133.052C76.0767 133.22 76.0207 133.36 75.9087 133.472C75.7967 133.575 75.652 133.626 75.4747 133.626H69.7347V132.576H75.4887L74.9007 132.982C74.9007 132.487 74.8074 132.049 74.6207 131.666C74.434 131.274 74.168 130.966 73.8227 130.742C73.4774 130.518 73.062 130.406 72.5767 130.406C72.0447 130.406 71.5827 130.527 71.1907 130.77C70.808 131.003 70.514 131.33 70.3087 131.75C70.1127 132.17 70.0147 132.646 70.0147 133.178C70.0147 133.71 70.1314 134.186 70.3647 134.606C70.6074 135.017 70.934 135.343 71.3447 135.586C71.7647 135.819 72.2454 135.936 72.7867 135.936C73.0947 135.936 73.4027 135.88 73.7107 135.768C74.028 135.656 74.2847 135.525 74.4807 135.376C74.6114 135.283 74.7514 135.236 74.9007 135.236C75.05 135.227 75.1807 135.269 75.2927 135.362C75.442 135.493 75.5214 135.637 75.5307 135.796C75.54 135.945 75.47 136.076 75.3207 136.188C75.0127 136.44 74.6207 136.65 74.1447 136.818C73.6687 136.977 73.216 137.056 72.7867 137.056ZM78.5007 132.24C78.51 131.671 78.65 131.162 78.9207 130.714C79.2007 130.266 79.5693 129.911 80.0267 129.65C80.4933 129.389 81.002 129.258 81.5527 129.258C82.066 129.258 82.4533 129.342 82.7147 129.51C82.976 129.669 83.0787 129.869 83.0227 130.112C82.9853 130.243 82.9247 130.341 82.8407 130.406C82.766 130.471 82.6727 130.509 82.5607 130.518C82.4487 130.527 82.3273 130.518 82.1967 130.49C81.618 130.397 81.1 130.411 80.6427 130.532C80.1947 130.653 79.84 130.859 79.5787 131.148C79.3173 131.437 79.1867 131.801 79.1867 132.24H78.5007ZM78.5427 137C78.3373 137 78.1787 136.949 78.0667 136.846C77.9547 136.734 77.8987 136.571 77.8987 136.356V129.986C77.8987 129.781 77.9547 129.622 78.0667 129.51C78.1787 129.398 78.3373 129.342 78.5427 129.342C78.7573 129.342 78.916 129.398 79.0187 129.51C79.1307 129.613 79.1867 129.771 79.1867 129.986V136.356C79.1867 136.561 79.1307 136.72 79.0187 136.832C78.916 136.944 78.7573 137 78.5427 137Z" fill="#444B54"/>
<rect x="30" y="30" width="60" height="60" rx="9.375" fill="#1DA1F2"/>
<path d="M54.2 74.0625C65.9875 74.0625 72.4375 63.835 72.4375 54.9808C72.4375 54.6931 72.4375 54.4054 72.425 54.1176C73.675 53.1629 74.7625 51.9858 75.625 50.6518C74.45 51.188 73.2125 51.5542 71.9375 51.7112C73.275 50.8741 74.275 49.5532 74.75 47.9968C73.4875 48.7816 72.1125 49.3309 70.675 49.6186C68.25 46.9113 64.1875 46.7805 61.6 49.3309C59.9375 50.9657 59.225 53.4114 59.75 55.7394C54.6125 55.4647 49.8 52.9144 46.55 48.7292C44.85 51.7896 45.7125 55.7132 48.5375 57.675C47.5125 57.6489 46.525 57.3611 45.625 56.838C45.625 56.8641 45.625 56.8903 45.625 56.9164C45.625 60.1077 47.775 62.8541 50.775 63.495C49.825 63.7697 48.8375 63.8089 47.875 63.6127C48.7125 66.3461 51.125 68.2164 53.8625 68.2687C51.5875 70.1389 48.7875 71.1459 45.9 71.1459C45.3875 71.1459 44.875 71.1067 44.375 71.0544C47.3125 73.0292 50.7125 74.0625 54.2 74.0625Z" stroke="white" stroke-width="2" stroke-linecap="round" stroke-linejoin="round"/>
<defs>
<filter id="filter0_d" x="0" y="0" width="134" height="164" filterUnits="userSpaceOnUse" color-interpolation-filters="sRGB">
<feFlood flood-opacity="0" result="BackgroundImageFix"/>
<feColorMatrix in="SourceAlpha" type="matrix" values="0 0 0 0 0 0 0 0 0 0 0 0 0 0 0 0 0 0 127 0" result="hardAlpha"/>
<feOffset dx="10" dy="10"/>
<feGaussianBlur stdDeviation="2"/>
<feComposite in2="hardAlpha" operator="out"/>
<feColorMatrix type="matrix" values="0 0 0 0 0.266667 0 0 0 0 0.294118 0 0 0 0 0.329412 0 0 0 1 0"/>
<feBlend mode="normal" in2="BackgroundImageFix" result="effect1_dropShadow"/>
<feBlend mode="normal" in="SourceGraphic" in2="effect1_dropShadow" result="shape"/>
</filter>
<filter id="filter1_ii" x="4" y="4" width="112" height="112" filterUnits="userSpaceOnUse" color-interpolation-filters="sRGB">
<feFlood flood-opacity="0" result="BackgroundImageFix"/>
<feBlend mode="normal" in="SourceGraphic" in2="BackgroundImageFix" result="shape"/>
<feColorMatrix in="SourceAlpha" type="matrix" values="0 0 0 0 0 0 0 0 0 0 0 0 0 0 0 0 0 0 127 0" result="hardAlpha"/>
<feOffset dx="1" dy="1"/>
<feGaussianBlur stdDeviation="1"/>
<feComposite in2="hardAlpha" operator="arithmetic" k2="-1" k3="1"/>
<feColorMatrix type="matrix" values="0 0 0 0 0.266667 0 0 0 0 0.294118 0 0 0 0 0.329412 0 0 0 0.4 0"/>
<feBlend mode="normal" in2="shape" result="effect1_innerShadow"/>
<feColorMatrix in="SourceAlpha" type="matrix" values="0 0 0 0 0 0 0 0 0 0 0 0 0 0 0 0 0 0 127 0" result="hardAlpha"/>
<feOffset dx="-1" dy="-1"/>
<feGaussianBlur stdDeviation="0.5"/>
<feComposite in2="hardAlpha" operator="arithmetic" k2="-1" k3="1"/>
<feColorMatrix type="matrix" values="0 0 0 0 1 0 0 0 0 1 0 0 0 0 1 0 0 0 0.7 0"/>
<feBlend mode="normal" in2="effect1_innerShadow" result="effect2_innerShadow"/>
</filter>
</defs>
</svg>
