<svg width="100%" height="100%" viewBox="0 0 134 164" fill="none" xmlns="http://www.w3.org/2000/svg">
<g filter="url(#filter0_d)">
<rect width="120" height="150" rx="15" fill="white"/>
</g>
<g filter="url(#filter1_ii)">
<rect x="5" y="5" width="110" height="110" rx="15" fill="#FFF3F3"/>
</g>
<path d="M27.1965 137C27.0565 137 26.9305 136.963 26.8185 136.888C26.7065 136.804 26.6272 136.701 26.5805 136.58L24.4665 130.252C24.4012 129.981 24.4059 129.762 24.4805 129.594C24.5552 129.426 24.7139 129.342 24.9565 129.342C25.1152 129.342 25.2505 129.389 25.3625 129.482C25.4745 129.566 25.5632 129.706 25.6285 129.902L27.4485 135.572H27.0145L28.7365 129.832C28.7739 129.692 28.8439 129.575 28.9465 129.482C29.0585 129.389 29.2032 129.342 29.3805 129.342C29.5485 129.342 29.6839 129.389 29.7865 129.482C29.8985 129.566 29.9732 129.683 30.0105 129.832L31.4945 135.292H31.2705L33.0065 129.902C33.1279 129.529 33.3472 129.342 33.6645 129.342C33.9072 129.342 34.0705 129.431 34.1545 129.608C34.2479 129.776 34.2479 129.991 34.1545 130.252L32.0405 136.58C32.0032 136.701 31.9285 136.804 31.8165 136.888C31.7045 136.963 31.5785 137 31.4385 137C31.2985 137 31.1679 136.963 31.0465 136.888C30.9252 136.804 30.8459 136.701 30.8085 136.58L29.2685 131.064H29.4085L27.8125 136.58C27.7752 136.701 27.7005 136.804 27.5885 136.888C27.4765 136.963 27.3459 137 27.1965 137ZM42.1964 137.014C42.0098 137.014 41.8511 136.953 41.7204 136.832C41.5991 136.701 41.5384 136.543 41.5384 136.356V132.842C41.5384 132.301 41.4358 131.857 41.2304 131.512C41.0344 131.157 40.7591 130.896 40.4044 130.728C40.0591 130.551 39.6671 130.462 39.2284 130.462C38.8084 130.462 38.4304 130.546 38.0944 130.714C37.7678 130.882 37.5064 131.106 37.3104 131.386C37.1144 131.666 37.0164 131.983 37.0164 132.338H36.1624C36.1718 131.75 36.3211 131.227 36.6104 130.77C36.8998 130.303 37.2918 129.939 37.7864 129.678C38.2811 129.407 38.8364 129.272 39.4524 129.272C40.0964 129.272 40.6751 129.412 41.1884 129.692C41.7018 129.963 42.1078 130.364 42.4064 130.896C42.7051 131.428 42.8544 132.077 42.8544 132.842V136.356C42.8544 136.543 42.7891 136.701 42.6584 136.832C42.5371 136.953 42.3831 137.014 42.1964 137.014ZM36.3584 137.014C36.1624 137.014 36.0038 136.953 35.8824 136.832C35.7611 136.701 35.7004 136.543 35.7004 136.356V130C35.7004 129.804 35.7611 129.645 35.8824 129.524C36.0038 129.403 36.1624 129.342 36.3584 129.342C36.5544 129.342 36.7131 129.403 36.8344 129.524C36.9558 129.645 37.0164 129.804 37.0164 130V136.356C37.0164 136.543 36.9558 136.701 36.8344 136.832C36.7131 136.953 36.5544 137.014 36.3584 137.014ZM36.3584 134.102C36.1624 134.102 36.0038 134.041 35.8824 133.92C35.7611 133.789 35.7004 133.631 35.7004 133.444V126.724C35.7004 126.528 35.7611 126.369 35.8824 126.248C36.0038 126.127 36.1624 126.066 36.3584 126.066C36.5544 126.066 36.7131 126.127 36.8344 126.248C36.9558 126.369 37.0164 126.528 37.0164 126.724V133.444C37.0164 133.631 36.9558 133.789 36.8344 133.92C36.7131 134.041 36.5544 134.102 36.3584 134.102ZM48.4777 137.056C47.7871 137.056 47.1664 136.888 46.6157 136.552C46.0651 136.216 45.6311 135.754 45.3137 135.166C44.9964 134.578 44.8377 133.915 44.8377 133.178C44.8377 132.431 45.0057 131.769 45.3417 131.19C45.6871 130.602 46.1491 130.14 46.7277 129.804C47.3157 129.459 47.9737 129.286 48.7017 129.286C49.4391 129.286 50.0971 129.459 50.6757 129.804C51.2544 130.14 51.7117 130.602 52.0477 131.19C52.3931 131.778 52.5657 132.441 52.5657 133.178L52.0617 133.29C52.0617 133.999 51.9031 134.639 51.5857 135.208C51.2777 135.777 50.8531 136.23 50.3117 136.566C49.7797 136.893 49.1684 137.056 48.4777 137.056ZM48.7017 135.894C49.2057 135.894 49.6491 135.777 50.0317 135.544C50.4237 135.301 50.7317 134.975 50.9557 134.564C51.1891 134.153 51.3057 133.691 51.3057 133.178C51.3057 132.655 51.1891 132.189 50.9557 131.778C50.7317 131.367 50.4237 131.045 50.0317 130.812C49.6491 130.569 49.2057 130.448 48.7017 130.448C48.2164 130.448 47.7731 130.569 47.3717 130.812C46.9797 131.045 46.6671 131.367 46.4337 131.778C46.2097 132.189 46.0977 132.655 46.0977 133.178C46.0977 133.691 46.2097 134.153 46.4337 134.564C46.6671 134.975 46.9797 135.301 47.3717 135.544C47.7731 135.777 48.2164 135.894 48.7017 135.894ZM51.9077 137.014C51.7211 137.014 51.5624 136.953 51.4317 136.832C51.3104 136.701 51.2497 136.543 51.2497 136.356V134.13L51.5157 132.772L52.5657 133.178V136.356C52.5657 136.543 52.5051 136.701 52.3837 136.832C52.2624 136.953 52.1037 137.014 51.9077 137.014ZM57.5467 137C57.0707 137 56.6413 136.883 56.2587 136.65C55.8853 136.407 55.5867 136.085 55.3627 135.684C55.148 135.273 55.0407 134.807 55.0407 134.284V127.55C55.0407 127.363 55.1013 127.209 55.2227 127.088C55.344 126.967 55.498 126.906 55.6847 126.906C55.8807 126.906 56.0393 126.967 56.1607 127.088C56.282 127.209 56.3427 127.363 56.3427 127.55V134.284C56.3427 134.695 56.4547 135.035 56.6787 135.306C56.912 135.577 57.2013 135.712 57.5467 135.712H57.9947C58.1533 135.712 58.284 135.773 58.3867 135.894C58.4987 136.015 58.5547 136.169 58.5547 136.356C58.5547 136.543 58.4847 136.697 58.3447 136.818C58.2047 136.939 58.0273 137 57.8127 137H57.5467ZM54.3127 130.742C54.1353 130.742 53.9907 130.691 53.8787 130.588C53.7667 130.476 53.7107 130.345 53.7107 130.196C53.7107 130.019 53.7667 129.879 53.8787 129.776C53.9907 129.673 54.1353 129.622 54.3127 129.622H57.6587C57.836 129.622 57.9807 129.673 58.0927 129.776C58.2047 129.879 58.2607 130.019 58.2607 130.196C58.2607 130.345 58.2047 130.476 58.0927 130.588C57.9807 130.691 57.836 130.742 57.6587 130.742H54.3127ZM63.0538 137.056C62.4378 137.056 61.8545 136.958 61.3038 136.762C60.7531 136.566 60.3191 136.305 60.0018 135.978C59.8711 135.838 59.8151 135.684 59.8338 135.516C59.8618 135.339 59.9505 135.194 60.0998 135.082C60.2678 134.951 60.4358 134.895 60.6038 134.914C60.7718 134.933 60.9118 135.007 61.0238 135.138C61.2105 135.343 61.4811 135.521 61.8358 135.67C62.1905 135.819 62.5871 135.894 63.0258 135.894C63.6138 135.894 64.0525 135.796 64.3418 135.6C64.6405 135.404 64.7945 135.157 64.8038 134.858C64.8038 134.559 64.6591 134.307 64.3698 134.102C64.0805 133.887 63.5718 133.715 62.8438 133.584C61.9011 133.407 61.2151 133.131 60.7858 132.758C60.3565 132.385 60.1418 131.932 60.1418 131.4C60.1418 130.924 60.2771 130.532 60.5478 130.224C60.8185 129.907 61.1685 129.673 61.5978 129.524C62.0365 129.365 62.4985 129.286 62.9838 129.286C63.5998 129.286 64.1411 129.389 64.6078 129.594C65.0838 129.79 65.4618 130.065 65.7418 130.42C65.8538 130.56 65.9051 130.705 65.8958 130.854C65.8865 131.003 65.8071 131.129 65.6578 131.232C65.5271 131.325 65.3685 131.358 65.1818 131.33C64.9951 131.293 64.8365 131.213 64.7058 131.092C64.4725 130.849 64.2158 130.681 63.9358 130.588C63.6558 130.485 63.3291 130.434 62.9558 130.434C62.5078 130.434 62.1391 130.518 61.8498 130.686C61.5605 130.845 61.4158 131.069 61.4158 131.358C61.4158 131.535 61.4625 131.699 61.5558 131.848C61.6585 131.988 61.8405 132.114 62.1018 132.226C62.3725 132.338 62.7645 132.441 63.2778 132.534C63.9778 132.665 64.5285 132.842 64.9298 133.066C65.3405 133.281 65.6298 133.533 65.7978 133.822C65.9751 134.102 66.0638 134.424 66.0638 134.788C66.0638 135.227 65.9425 135.619 65.6998 135.964C65.4665 136.3 65.1258 136.566 64.6778 136.762C64.2391 136.958 63.6978 137.056 63.0538 137.056ZM71.1457 137.056C70.455 137.056 69.8344 136.888 69.2837 136.552C68.733 136.216 68.299 135.754 67.9817 135.166C67.6644 134.578 67.5057 133.915 67.5057 133.178C67.5057 132.431 67.6737 131.769 68.0097 131.19C68.355 130.602 68.817 130.14 69.3957 129.804C69.9837 129.459 70.6417 129.286 71.3697 129.286C72.107 129.286 72.765 129.459 73.3437 129.804C73.9224 130.14 74.3797 130.602 74.7157 131.19C75.061 131.778 75.2337 132.441 75.2337 133.178L74.7297 133.29C74.7297 133.999 74.571 134.639 74.2537 135.208C73.9457 135.777 73.521 136.23 72.9797 136.566C72.4477 136.893 71.8364 137.056 71.1457 137.056ZM71.3697 135.894C71.8737 135.894 72.317 135.777 72.6997 135.544C73.0917 135.301 73.3997 134.975 73.6237 134.564C73.857 134.153 73.9737 133.691 73.9737 133.178C73.9737 132.655 73.857 132.189 73.6237 131.778C73.3997 131.367 73.0917 131.045 72.6997 130.812C72.317 130.569 71.8737 130.448 71.3697 130.448C70.8844 130.448 70.441 130.569 70.0397 130.812C69.6477 131.045 69.335 131.367 69.1017 131.778C68.8777 132.189 68.7657 132.655 68.7657 133.178C68.7657 133.691 68.8777 134.153 69.1017 134.564C69.335 134.975 69.6477 135.301 70.0397 135.544C70.441 135.777 70.8844 135.894 71.3697 135.894ZM74.5757 137.014C74.389 137.014 74.2304 136.953 74.0997 136.832C73.9784 136.701 73.9177 136.543 73.9177 136.356V134.13L74.1837 132.772L75.2337 133.178V136.356C75.2337 136.543 75.173 136.701 75.0517 136.832C74.9304 136.953 74.7717 137.014 74.5757 137.014ZM78.0166 140.276C77.8206 140.276 77.662 140.215 77.5406 140.094C77.4193 139.973 77.3586 139.814 77.3586 139.618V133.164C77.368 132.427 77.5406 131.764 77.8766 131.176C78.222 130.588 78.684 130.126 79.2626 129.79C79.8413 129.454 80.49 129.286 81.2086 129.286C81.9553 129.286 82.618 129.459 83.1966 129.804C83.7846 130.14 84.2466 130.602 84.5826 131.19C84.928 131.769 85.1006 132.431 85.1006 133.178C85.1006 133.915 84.9373 134.578 84.6106 135.166C84.2933 135.754 83.8593 136.216 83.3086 136.552C82.758 136.888 82.1373 137.056 81.4466 137.056C80.868 137.056 80.3406 136.939 79.8646 136.706C79.3886 136.463 78.992 136.137 78.6746 135.726V139.618C78.6746 139.814 78.614 139.973 78.4926 140.094C78.3713 140.215 78.2126 140.276 78.0166 140.276ZM81.2226 135.894C81.7173 135.894 82.1606 135.777 82.5526 135.544C82.9446 135.301 83.2526 134.975 83.4766 134.564C83.71 134.153 83.8266 133.691 83.8266 133.178C83.8266 132.655 83.71 132.189 83.4766 131.778C83.2526 131.367 82.9446 131.045 82.5526 130.812C82.1606 130.569 81.7173 130.448 81.2226 130.448C80.728 130.448 80.2846 130.569 79.8926 130.812C79.5006 131.045 79.1926 131.367 78.9686 131.778C78.7446 132.189 78.6326 132.655 78.6326 133.178C78.6326 133.691 78.7446 134.158 78.9686 134.578C79.1926 134.989 79.5006 135.311 79.8926 135.544C80.2846 135.777 80.728 135.894 81.2226 135.894ZM87.8741 140.276C87.6781 140.276 87.5194 140.215 87.3981 140.094C87.2767 139.973 87.2161 139.814 87.2161 139.618V133.164C87.2254 132.427 87.3981 131.764 87.7341 131.176C88.0794 130.588 88.5414 130.126 89.1201 129.79C89.6987 129.454 90.3474 129.286 91.0661 129.286C91.8127 129.286 92.4754 129.459 93.0541 129.804C93.6421 130.14 94.1041 130.602 94.4401 131.19C94.7854 131.769 94.9581 132.431 94.9581 133.178C94.9581 133.915 94.7947 134.578 94.4681 135.166C94.1507 135.754 93.7167 136.216 93.1661 136.552C92.6154 136.888 91.9947 137.056 91.3041 137.056C90.7254 137.056 90.1981 136.939 89.7221 136.706C89.2461 136.463 88.8494 136.137 88.5321 135.726V139.618C88.5321 139.814 88.4714 139.973 88.3501 140.094C88.2287 140.215 88.0701 140.276 87.8741 140.276ZM91.0801 135.894C91.5747 135.894 92.0181 135.777 92.4101 135.544C92.8021 135.301 93.1101 134.975 93.3341 134.564C93.5674 134.153 93.6841 133.691 93.6841 133.178C93.6841 132.655 93.5674 132.189 93.3341 131.778C93.1101 131.367 92.8021 131.045 92.4101 130.812C92.0181 130.569 91.5747 130.448 91.0801 130.448C90.5854 130.448 90.1421 130.569 89.7501 130.812C89.3581 131.045 89.0501 131.367 88.8261 131.778C88.6021 132.189 88.4901 132.655 88.4901 133.178C88.4901 133.691 88.6021 134.158 88.8261 134.578C89.0501 134.989 89.3581 135.311 89.7501 135.544C90.1421 135.777 90.5854 135.894 91.0801 135.894Z" fill="#444B54"/>
<rect x="30" y="30" width="60" height="60" rx="9.375" fill="#25D366"/>
<path d="M51.0994 72.1762L52.4569 72.9694C54.7462 74.3045 57.3499 75.0054 60 75C62.9667 75 65.8668 74.1202 68.3336 72.472C70.8003 70.8238 72.7229 68.4811 73.8582 65.7402C74.9935 62.9993 75.2906 59.9833 74.7118 57.0736C74.133 54.1639 72.7044 51.4912 70.6066 49.3934C68.5088 47.2956 65.8361 45.867 62.9264 45.2882C60.0167 44.7094 57.0007 45.0065 54.2598 46.1418C51.5189 47.2771 49.1762 49.1997 47.528 51.6664C45.8798 54.1332 45 57.0333 45 60C45 62.6925 45.7069 65.2744 47.0325 67.545L47.8238 68.9025L46.5994 73.4044L51.0994 72.1762ZM41.2575 78.75L43.7925 69.435C42.1222 66.5716 41.2446 63.315 41.25 60C41.25 49.6444 49.6444 41.25 60 41.25C70.3556 41.25 78.75 49.6444 78.75 60C78.75 70.3556 70.3556 78.75 60 78.75C56.6865 78.7553 53.4312 77.8784 50.5688 76.2094L41.2575 78.75ZM53.2331 51.2025C53.4844 51.1837 53.7375 51.1837 53.9888 51.195C54.09 51.2025 54.1913 51.2137 54.2925 51.225C54.5906 51.2587 54.9188 51.4406 55.0294 51.6919C55.5881 52.9594 56.1319 54.2362 56.6569 55.5169C56.7731 55.8019 56.7038 56.1675 56.4825 56.5237C56.3304 56.7646 56.1658 56.9975 55.9894 57.2212C55.7775 57.4931 55.3219 57.9919 55.3219 57.9919C55.3219 57.9919 55.1363 58.2131 55.2075 58.4887C55.2338 58.5937 55.32 58.7456 55.3988 58.8731L55.5094 59.0512C55.9894 59.8519 56.6344 60.6637 57.4219 61.4287C57.6469 61.6462 57.8663 61.8694 58.1025 62.0775C58.98 62.8519 59.9738 63.4837 61.0463 63.9525L61.0556 63.9562C61.215 64.0256 61.2956 64.0631 61.5281 64.1625C61.6444 64.2112 61.7644 64.2544 61.8863 64.2862C62.0122 64.3183 62.1448 64.3123 62.2673 64.2689C62.3899 64.2255 62.4967 64.1467 62.5744 64.0425C63.9319 62.3981 64.0556 62.2912 64.0669 62.2912V62.295C64.1612 62.207 64.2732 62.1403 64.3955 62.0992C64.5177 62.0581 64.6473 62.0437 64.7756 62.0569C64.8881 62.0644 65.0025 62.085 65.1075 62.1319C66.1031 62.5875 67.7325 63.2981 67.7325 63.2981L68.8238 63.7875C69.0075 63.8756 69.1744 64.0837 69.18 64.2844C69.1875 64.41 69.1988 64.6125 69.1556 64.9837C69.0956 65.4694 68.9494 66.0525 68.8031 66.3581C68.703 66.5667 68.57 66.7579 68.4094 66.9244C68.2202 67.123 68.0131 67.3038 67.7906 67.4644C67.7137 67.5222 67.6355 67.5785 67.5563 67.6331C67.323 67.7811 67.0834 67.9187 66.8381 68.0456C66.3554 68.302 65.8222 68.4492 65.2763 68.4769C64.9294 68.4956 64.5825 68.5219 64.2338 68.5031C64.2188 68.5031 63.1688 68.34 63.1688 68.34C60.503 67.6388 58.0376 66.3252 55.9688 64.5037C55.545 64.1306 55.1531 63.7294 54.7519 63.33C53.0831 61.6706 51.8231 59.88 51.0581 58.1887C50.6666 57.3587 50.4551 56.4551 50.4375 55.5375C50.4298 54.3991 50.8019 53.2906 51.495 52.3875C51.6319 52.2112 51.7613 52.0275 51.9844 51.8156C52.2225 51.5906 52.3725 51.4706 52.5356 51.3881C52.7525 51.2794 52.9891 51.2157 53.2313 51.2006L53.2331 51.2025Z" fill="white"/>
<defs>
<filter id="filter0_d" x="0" y="0" width="134" height="164" filterUnits="userSpaceOnUse" color-interpolation-filters="sRGB">
<feFlood flood-opacity="0" result="BackgroundImageFix"/>
<feColorMatrix in="SourceAlpha" type="matrix" values="0 0 0 0 0 0 0 0 0 0 0 0 0 0 0 0 0 0 127 0" result="hardAlpha"/>
<feOffset dx="10" dy="10"/>
<feGaussianBlur stdDeviation="2"/>
<feComposite in2="hardAlpha" operator="out"/>
<feColorMatrix type="matrix" values="0 0 0 0 0.266667 0 0 0 0 0.294118 0 0 0 0 0.329412 0 0 0 1 0"/>
<feBlend mode="normal" in2="BackgroundImageFix" result="effect1_dropShadow"/>
<feBlend mode="normal" in="SourceGraphic" in2="effect1_dropShadow" result="shape"/>
</filter>
<filter id="filter1_ii" x="4" y="4" width="112" height="112" filterUnits="userSpaceOnUse" color-interpolation-filters="sRGB">
<feFlood flood-opacity="0" result="BackgroundImageFix"/>
<feBlend mode="normal" in="SourceGraphic" in2="BackgroundImageFix" result="shape"/>
<feColorMatrix in="SourceAlpha" type="matrix" values="0 0 0 0 0 0 0 0 0 0 0 0 0 0 0 0 0 0 127 0" result="hardAlpha"/>
<feOffset dx="1" dy="1"/>
<feGaussianBlur stdDeviation="1"/>
<feComposite in2="hardAlpha" operator="arithmetic" k2="-1" k3="1"/>
<feColorMatrix type="matrix" values="0 0 0 0 0.266667 0 0 0 0 0.294118 0 0 0 0 0.329412 0 0 0 0.4 0"/>
<feBlend mode="normal" in2="shape" result="effect1_innerShadow"/>
<feColorMatrix in="SourceAlpha" type="matrix" values="0 0 0 0 0 0 0 0 0 0 0 0 0 0 0 0 0 0 127 0" result="hardAlpha"/>
<feOffset dx="-1" dy="-1"/>
<feGaussianBlur stdDeviation="0.5"/>
<feComposite in2="hardAlpha" operator="arithmetic" k2="-1" k3="1"/>
<feColorMatrix type="matrix" values="0 0 0 0 1 0 0 0 0 1 0 0 0 0 1 0 0 0 0.7 0"/>
<feBlend mode="normal" in2="effect1_innerShadow" result="effect2_innerShadow"/>
</filter>
</defs>
</svg>
